<?xml version="1.0" encoding="utf-8"?>
<!-- Generator: Adobe Illustrator 26.0.3, SVG Export Plug-In . SVG Version: 6.00 Build 0)  -->
<svg version="1.1" id="圖層_1" xmlns="http://www.w3.org/2000/svg" xmlns:xlink="http://www.w3.org/1999/xlink" x="0px" y="0px"
	 viewBox="0 0 22 22" style="enable-background:new 0 0 22 22;" xml:space="preserve">
<style type="text/css">
	.st0{fill:none;stroke:#000000;stroke-linecap:round;stroke-linejoin:round;}
</style>
<g id="_7-Line">
	<path class="st0" d="M21,9.7C21,4.9,16.5,1,11,1S1,4.9,1,9.7s4.5,8.7,10,8.7c0.4,0,0.9,0,1.3-0.1V21C12.3,21,21,16.2,21,9.7z"/>
	<polyline class="st0" points="17.1,7.5 14.9,7.5 14.9,11.9 17.1,11.9 	"/>
	<line class="st0" x1="14.9" y1="9.7" x2="17.1" y2="9.7"/>
	<polyline class="st0" points="4.9,7.5 4.9,11.9 7.1,11.9 	"/>
	<line class="st0" x1="8.8" y1="7.5" x2="8.8" y2="11.9"/>
	<polyline class="st0" points="10.6,11.9 10.6,7.5 13.2,11.9 13.2,7.5 	"/>
</g>
</svg>
