<?xml version="1.0" encoding="utf-8"?>
<!-- Generator: Adobe Illustrator 26.0.3, SVG Export Plug-In . SVG Version: 6.00 Build 0)  -->
<svg version="1.1" id="圖層_1" xmlns="http://www.w3.org/2000/svg" xmlns:xlink="http://www.w3.org/1999/xlink" x="0px" y="0px"
	 viewBox="0 0 22 22" style="enable-background:new 0 0 22 22;" xml:space="preserve">
<g id="Expanded">
	<g>
		<g>
			<path d="M5.6,21c-1,0-2-0.4-2.7-1.1l-0.8-0.8c-1.5-1.5-1.5-3.9,0-5.4l5-5C7.9,8,8.8,7.6,9.8,7.6s2,0.4,2.7,1.1l0.8,0.8
				c0.2,0.2,0.2,0.6,0,0.8s-0.6,0.2-0.8,0l-0.8-0.8c-0.5-0.5-1.2-0.8-1.9-0.8c-0.7,0-1.4,0.3-1.9,0.8l-5,5c-1.1,1.1-1.1,2.8,0,3.9
				l0.8,0.8c0.5,0.5,1.2,0.8,1.9,0.8c0.7,0,1.4-0.3,1.9-0.8l3.5-3.5c0.2-0.2,0.6-0.2,0.8,0c0.2,0.2,0.2,0.6,0,0.8l-3.5,3.5
				C7.6,20.6,6.6,21,5.6,21z"/>
		</g>
		<g>
			<path d="M12.2,14.4c-1,0-2-0.4-2.7-1.1c-0.2-0.2-0.2-0.6,0-0.8s0.6-0.2,0.8,0c0.5,0.5,1.2,0.8,1.9,0.8c0.7,0,1.4-0.3,1.9-0.8l5-5
				c1.1-1.1,1.1-2.8,0-3.9l-0.8-0.8c-1.1-1.1-2.8-1.1-3.9,0L11,6.4c-0.2,0.2-0.6,0.2-0.8,0s-0.2-0.6,0-0.8l3.5-3.5
				c1.5-1.5,3.9-1.5,5.4,0l0.8,0.8c1.5,1.5,1.5,3.9,0,5.4l-5,5C14.1,14,13.2,14.4,12.2,14.4z"/>
		</g>
	</g>
</g>
</svg>
