<?xml version="1.0" encoding="utf-8"?>
<!-- Generator: Adobe Illustrator 26.0.3, SVG Export Plug-In . SVG Version: 6.00 Build 0)  -->
<svg version="1.1" id="Layer_1" xmlns="http://www.w3.org/2000/svg" xmlns:xlink="http://www.w3.org/1999/xlink" x="0px" y="0px"
	 viewBox="0 0 22 22" style="enable-background:new 0 0 22 22;" xml:space="preserve">
<path d="M11.2,9.7c0.7,0,1.3,0.6,1.3,1.3s-0.6,1.3-1.3,1.3S9.8,11.7,9.8,11S10.4,9.7,11.2,9.7 M11.2,8.6c-1.3,0-2.4,1.1-2.4,2.4
	s1.1,2.4,2.4,2.4s2.4-1.1,2.4-2.4S12.5,8.6,11.2,8.6L11.2,8.6z"/>
<path d="M4.1,9.7c0.7,0,1.3,0.6,1.3,1.3s-0.6,1.3-1.3,1.3c-0.7,0-1.3-0.6-1.3-1.3S3.3,9.7,4.1,9.7 M4.1,8.6c-1.3,0-2.4,1.1-2.4,2.4
	s1.1,2.4,2.4,2.4s2.4-1.1,2.4-2.4S5.4,8.6,4.1,8.6L4.1,8.6z"/>
<path d="M18.3,9.7c0.7,0,1.3,0.6,1.3,1.3s-0.6,1.3-1.3,1.3c-0.7,0-1.3-0.6-1.3-1.3S17.6,9.7,18.3,9.7 M18.3,8.6
	c-1.3,0-2.4,1.1-2.4,2.4s1.1,2.4,2.4,2.4c1.3,0,2.4-1.1,2.4-2.4S19.6,8.6,18.3,8.6L18.3,8.6z"/>
</svg>
