<?xml version="1.0" encoding="utf-8"?>
<!-- Generator: Adobe Illustrator 26.0.3, SVG Export Plug-In . SVG Version: 6.00 Build 0)  -->
<svg version="1.1" id="圖層_1" xmlns="http://www.w3.org/2000/svg" xmlns:xlink="http://www.w3.org/1999/xlink" x="0px" y="0px"
	 viewBox="0 0 22 22" style="enable-background:new 0 0 22 22;" xml:space="preserve">
<style type="text/css">
	.st0{fill:#231815;}
</style>
<g>
	<path class="st0" d="M16.1,8.2h-1.4c0-0.6-0.2-1.1-0.6-1.5c-0.4-0.4-1-0.6-1.5-0.6V4.6c1,0,1.9,0.4,2.5,1.1
		C15.7,6.3,16.1,7.2,16.1,8.2z"/>
	<path class="st0" d="M19,8.2h-1.4c0-1.3-0.5-2.6-1.5-3.6c-0.9-0.9-2.2-1.5-3.6-1.5V1.7c1.7,0,3.4,0.7,4.6,1.9
		C18.3,4.8,19,6.5,19,8.2z"/>
	<path class="st0" d="M18.7,21h-0.1C3.5,20.1,1.3,7.4,1,3.5c0-0.6,0.2-1.2,0.5-1.7C2,1.3,2.5,1.1,3.1,1c0.1,0,0.1,0,0.2,0h4.1
		C7.7,1,8,1.1,8.2,1.3C8.5,1.4,8.7,1.7,8.8,2L10,4.8c0.1,0.3,0.1,0.6,0.1,0.9C10,6,9.8,6.3,9.6,6.5L8,8.2c0.3,1.5,1,2.8,2,3.8
		c1,1,2.4,1.7,3.8,2l1.7-1.7c0.2-0.2,0.5-0.4,0.8-0.4c0.3-0.1,0.6,0,0.9,0.1l2.9,1.2c0.3,0.1,0.5,0.3,0.7,0.6
		c0.2,0.3,0.3,0.6,0.3,0.9v4.1c0,0.6-0.2,1.2-0.7,1.6C19.9,20.8,19.3,21,18.7,21z M3.3,2.5c-0.1,0-0.2,0-0.3,0.1
		c-0.1,0-0.2,0.1-0.2,0.2C2.7,2.8,2.6,2.9,2.6,3c0,0.1-0.1,0.2-0.1,0.3c0,0,0,0,0,0.1c0.4,4.6,2.6,15.3,16.1,16.1
		c0.2,0,0.4-0.1,0.6-0.2c0.2-0.1,0.2-0.3,0.3-0.5l0,0v-4.1l-2.9-1.2l-2.2,2.2l-0.4,0C7.3,14.8,6.4,8.1,6.4,8l0-0.4l2.2-2.2L7.4,2.5
		H3.3z"/>
</g>
</svg>
