<?xml version="1.0" encoding="utf-8"?>
<!-- Generator: Adobe Illustrator 26.0.3, SVG Export Plug-In . SVG Version: 6.00 Build 0)  -->
<svg version="1.1" id="圖層_1" xmlns="http://www.w3.org/2000/svg" xmlns:xlink="http://www.w3.org/1999/xlink" x="0px" y="0px"
	 viewBox="0 0 22 22" style="enable-background:new 0 0 22 22;" xml:space="preserve">
<style type="text/css">
	.st0{fill:none;}
</style>
<g>
	<path class="st0" d="M-1-1h24v24H-1V-1z"/>
	<path d="M15,16v-1h-3v-3h3v2h2v2h-1v2h-2v2h-2v-3h2v-1H15z M20,20h-4v-2h2v-2h2V20z M2,2h8v8H2V2z M4,4v4h4V4H4z M12,2h8v8h-8V2z
		 M14,4v4h4V4H14z M2,12h8v8H2V12z M4,14v4h4v-4H4z M17,12h3v2h-3V12z M5,5h2v2H5V5z M5,15h2v2H5V15z M15,5h2v2h-2V5z"/>
</g>
</svg>
