<?xml version="1.0" encoding="utf-8"?>
<!-- Generator: Adobe Illustrator 16.0.0, SVG Export Plug-In . SVG Version: 6.00 Build 0)  -->
<!DOCTYPE svg PUBLIC "-//W3C//DTD SVG 1.1//EN" "http://www.w3.org/Graphics/SVG/1.1/DTD/svg11.dtd">
<svg version="1.1" id="Capa_1" xmlns="http://www.w3.org/2000/svg" xmlns:xlink="http://www.w3.org/1999/xlink" x="0px" y="0px"
	 width="224.328px" height="224.16px" viewBox="0 0 224.328 224.16" enable-background="new 0 0 224.328 224.16"
	 xml:space="preserve">
<path fill="#FFFFFF" d="M16.628,30.935C16.628,14.406,30.033,1,46.563,1c16.525,0,29.931,13.4,29.931,29.935
	c0,16.539-13.405,29.94-29.931,29.94C30.033,60.875,16.628,47.474,16.628,30.935z M152.363,30.935
	C152.363,14.406,165.779,1,182.308,1c16.524,0,29.931,13.4,29.931,29.935c0,16.539-13.401,29.94-29.931,29.94
	S152.363,47.474,152.363,30.935z M223.134,153.539c-18.553,42.901-62,70.621-110.681,70.621c-49.728,0-93.432-27.859-111.341-70.979
	c-3.07-7.381,0.43-15.858,7.82-18.929c1.815-0.748,3.697-1.105,5.552-1.105c5.677,0,11.064,3.355,13.377,8.931
	c13.406,32.277,46.609,53.122,84.592,53.122c37.124,0,70.134-20.859,84.096-53.155c3.176-7.343,11.701-10.727,19.039-7.546
	C222.926,137.681,226.311,146.201,223.134,153.539z"/>
</svg>
