<?xml version="1.0" encoding="utf-8"?>
<!-- Generator: Adobe Illustrator 16.0.0, SVG Export Plug-In . SVG Version: 6.00 Build 0)  -->
<!DOCTYPE svg PUBLIC "-//W3C//DTD SVG 1.1//EN" "http://www.w3.org/Graphics/SVG/1.1/DTD/svg11.dtd">
<svg version="1.1" id="Capa_1" xmlns="http://www.w3.org/2000/svg" xmlns:xlink="http://www.w3.org/1999/xlink" x="0px" y="0px"
	 width="55.437px" height="20.56px" viewBox="0 0 55.437 20.56" enable-background="new 0 0 55.437 20.56" xml:space="preserve">
<g>
	<path fill="#FFFFFF" d="M4.306,16.254V2.153C4.306,0.964,3.342,0,2.153,0l0,0C0.964,0,0,0.964,0,2.153v16.254
		c0,1.189,0.964,2.152,2.153,2.152h8.612c1.189,0,2.153-0.963,2.153-2.152l0,0c0-1.189-0.964-2.153-2.153-2.153H4.306z"/>
	<path fill="#FFFFFF" d="M17.586,20.56h-0.941c-0.929,0-1.683-0.753-1.683-1.682V1.683C14.962,0.753,15.716,0,16.645,0h0.941
		c0.929,0,1.683,0.753,1.683,1.683v17.196C19.269,19.807,18.515,20.56,17.586,20.56z"/>
	<path fill="#FFFFFF" d="M34.985,2.153v9.93c0,0-8.599-11.215-8.73-11.362c-0.411-0.461-1.016-0.745-1.688-0.719
		c-1.171,0.044-2.069,1.068-2.069,2.24v16.167c0,1.188,0.964,2.152,2.153,2.152l0,0c1.189,0,2.153-0.964,2.153-2.152v-9.87
		c0,0,8.728,11.313,8.857,11.435c0.381,0.359,0.893,0.583,1.457,0.588c1.195,0.012,2.173-1.047,2.173-2.242V2.153
		C39.291,0.964,38.327,0,37.137,0l0,0C35.948,0,34.985,0.964,34.985,2.153z"/>
	<path fill="#FFFFFF" d="M55.437,2.153L55.437,2.153C55.437,0.964,54.473,0,53.284,0h-8.611c-1.189,0-2.152,0.964-2.152,2.153
		v16.254c0,1.189,0.963,2.152,2.152,2.152h8.611c1.189,0,2.153-0.963,2.153-2.152l0,0c0-1.189-0.964-2.153-2.153-2.153h-6.459
		v-3.821h6.459c1.189,0,2.153-0.964,2.153-2.153l0,0c0-1.189-0.964-2.153-2.153-2.153h-6.459V4.306h6.459
		C54.473,4.306,55.437,3.342,55.437,2.153z"/>
</g>
</svg>
