<?xml version="1.0" encoding="utf-8"?>
<!-- Generator: Adobe Illustrator 16.0.0, SVG Export Plug-In . SVG Version: 6.00 Build 0)  -->
<!DOCTYPE svg PUBLIC "-//W3C//DTD SVG 1.1//EN" "http://www.w3.org/Graphics/SVG/1.1/DTD/svg11.dtd">
<svg version="1.1" id="Capa_1" xmlns="http://www.w3.org/2000/svg" xmlns:xlink="http://www.w3.org/1999/xlink" x="0px" y="0px"
	 width="198.866px" height="39.872px" viewBox="0 0 198.866 39.872" enable-background="new 0 0 198.866 39.872"
	 xml:space="preserve">
<path fill="#FFFFFF" d="M0,19.935C0,8.927,8.927,0,19.935,0c11.004,0,19.932,8.923,19.932,19.935
	c0,11.014-8.927,19.938-19.932,19.938C8.927,39.872,0,30.948,0,19.935z"/>
<path fill="#FFFFFF" d="M80,19.935C80,8.927,88.927,0,99.935,0c11.004,0,19.932,8.923,19.932,19.935
	c0,11.014-8.927,19.938-19.932,19.938C88.927,39.872,80,30.948,80,19.935z"/>
<path fill="#FFFFFF" d="M159,19.935C159,8.927,167.927,0,178.935,0c11.004,0,19.932,8.923,19.932,19.935
	c0,11.014-8.927,19.938-19.932,19.938C167.927,39.872,159,30.948,159,19.935z"/>
</svg>
