<?xml version="1.0" encoding="utf-8"?>
<!-- Generator: Adobe Illustrator 16.0.0, SVG Export Plug-In . SVG Version: 6.00 Build 0)  -->
<!DOCTYPE svg PUBLIC "-//W3C//DTD SVG 1.1//EN" "http://www.w3.org/Graphics/SVG/1.1/DTD/svg11.dtd">
<svg version="1.1" id="Capa_1" xmlns="http://www.w3.org/2000/svg" xmlns:xlink="http://www.w3.org/1999/xlink" x="0px" y="0px"
	 width="512px" height="512px" viewBox="0 0 512 512" enable-background="new 0 0 512 512" xml:space="preserve">
<g>
	<path fill="#FFFFFF" d="M473.978,0.11l-66.394-0.107c-74.592,0-122.796,49.457-122.796,126.003v58.096h-66.757
		c-5.769,0-10.439,4.677-10.439,10.445v84.174c0,5.769,4.676,10.439,10.439,10.439h66.757v212.397c0,5.769,4.671,10.44,10.439,10.44
		h87.098c5.769,0,10.44-4.677,10.44-10.44V289.159h78.054c5.769,0,10.439-4.671,10.439-10.439l0.032-84.174
		c0-2.77-1.103-5.423-3.058-7.383c-1.954-1.96-4.617-3.063-7.388-3.063h-78.08v-49.248c0-23.671,5.641-35.688,36.476-35.688
		l44.727-0.016c5.763,0,10.434-4.677,10.434-10.44v-78.16C484.402,4.791,479.737,0.119,473.978,0.11z"/>
</g>
</svg>
