<?xml version="1.0" encoding="utf-8"?>
<!-- Generator: Adobe Illustrator 16.0.0, SVG Export Plug-In . SVG Version: 6.00 Build 0)  -->
<!DOCTYPE svg PUBLIC "-//W3C//DTD SVG 1.1//EN" "http://www.w3.org/Graphics/SVG/1.1/DTD/svg11.dtd">
<svg version="1.1" id="圖層_1" xmlns="http://www.w3.org/2000/svg" xmlns:xlink="http://www.w3.org/1999/xlink" x="0px" y="0px"
	 width="50px" height="50px" viewBox="0 0 50 50" enable-background="new 0 0 50 50" xml:space="preserve">
<path fill="#5CBABA" d="M34.615,24.23l0.01-0.012l-0.177-0.101c-0.026-0.013-0.048-0.032-0.075-0.043l-13.748-7.856l-0.01,0.012
	C20.444,16.094,20.236,16,20,16c-0.552,0-1,0.447-1,1v16c0,0.553,0.448,1,1,1c0.236,0,0.444-0.094,0.615-0.23l0.01,0.012
	l13.748-7.856c0.027-0.011,0.048-0.028,0.074-0.042l0.178-0.102l-0.01-0.012C34.844,25.586,35,25.316,35,25
	S34.844,24.414,34.615,24.23 M21,31.291V18.709L32.009,25L21,31.291z M25,3C12.85,3,3,12.85,3,25s9.85,22,22,22
	c12.15,0,22-9.85,22-22S37.15,3,25,3 M25,45C13.955,45,5,36.045,5,25C5,13.954,13.955,5,25,5c11.046,0,20,8.954,20,20
	C45,36.045,36.046,45,25,45"/>
</svg>
