<?xml version="1.0" encoding="utf-8"?>
<!-- Generator: Adobe Illustrator 16.0.0, SVG Export Plug-In . SVG Version: 6.00 Build 0)  -->
<!DOCTYPE svg PUBLIC "-//W3C//DTD SVG 1.1//EN" "http://www.w3.org/Graphics/SVG/1.1/DTD/svg11.dtd">
<svg version="1.1" id="Capa_1" xmlns="http://www.w3.org/2000/svg" xmlns:xlink="http://www.w3.org/1999/xlink" x="0px" y="0px"
	 width="224.328px" height="224.16px" viewBox="0 0 224.328 224.16" enable-background="new 0 0 224.328 224.16"
	 xml:space="preserve">
<path fill="#231815" d="M16.628,30.935C16.628,14.406,30.033,1,46.563,1c16.525,0,29.931,13.4,29.931,29.935
	c0,16.539-13.405,29.94-29.931,29.94C30.033,60.875,16.628,47.474,16.628,30.935z M152.363,30.935
	C152.363,14.406,165.779,1,182.309,1c16.523,0,29.93,13.4,29.93,29.935c0,16.539-13.4,29.94-29.93,29.94
	C165.777,60.875,152.363,47.474,152.363,30.935z M223.134,153.539c-18.553,42.9-62,70.621-110.681,70.621
	c-49.728,0-93.432-27.859-111.341-70.979c-3.07-7.382,0.43-15.859,7.82-18.93c1.815-0.748,3.697-1.105,5.552-1.105
	c5.677,0,11.064,3.355,13.377,8.932C41.267,174.355,74.47,195.2,112.453,195.2c37.124,0,70.134-20.859,84.096-53.155
	c3.176-7.343,11.701-10.727,19.039-7.546C222.926,137.682,226.311,146.201,223.134,153.539z"/>
</svg>
