<?xml version="1.0" encoding="utf-8"?>
<!-- Generator: Adobe Illustrator 16.0.0, SVG Export Plug-In . SVG Version: 6.00 Build 0)  -->
<!DOCTYPE svg PUBLIC "-//W3C//DTD SVG 1.1//EN" "http://www.w3.org/Graphics/SVG/1.1/DTD/svg11.dtd">
<svg version="1.1" id="Capa_1" xmlns="http://www.w3.org/2000/svg" xmlns:xlink="http://www.w3.org/1999/xlink" x="0px" y="0px"
	 width="512px" height="512px" viewBox="0 0 512 512" enable-background="new 0 0 512 512" xml:space="preserve">
<g>
	<g>
		<path fill="#231815" d="M511.756,403.97c1.085,8.312-1.448,15.539-7.588,21.681l-72.089,71.544
			c-3.252,3.613-7.497,6.688-12.736,9.214c-5.239,2.53-10.388,4.156-15.445,4.878c-0.361,0-1.448,0.094-3.256,0.274
			c-1.804,0.18-4.152,0.271-7.043,0.271c-6.867,0-17.979-1.174-33.337-3.524c-15.357-2.35-34.146-8.132-56.367-17.344
			c-22.227-9.215-47.43-23.038-75.613-41.465c-28.185-18.426-58.177-43.722-89.976-75.883
			c-25.294-24.933-46.252-48.781-62.874-71.545c-16.621-22.766-29.991-43.814-40.109-63.146
			c-10.118-19.332-17.706-36.857-22.766-52.576c-5.059-15.719-8.491-29.27-10.298-40.651c-1.807-11.383-2.529-20.326-2.168-26.83
			s0.542-10.117,0.542-10.84c0.723-5.06,2.349-10.208,4.878-15.448c2.529-5.239,5.601-9.485,9.214-12.737L86.813,7.755
			c5.059-5.06,10.841-7.589,17.345-7.589c4.697,0,8.853,1.355,12.467,4.065c3.613,2.71,6.685,6.053,9.214,10.027l57.996,110.029
			c3.252,5.782,4.155,12.105,2.71,18.971c-1.445,6.866-4.517,12.647-9.215,17.345l-26.559,26.559
			c-0.723,0.723-1.354,1.897-1.896,3.523s-0.813,2.981-0.813,4.065c1.445,7.588,4.697,16.261,9.757,26.017
			c4.336,8.673,11.021,19.242,20.055,31.708c9.033,12.467,21.861,26.829,38.482,43.09c16.261,16.623,30.715,29.54,43.362,38.756
			c12.644,9.211,23.217,15.988,31.709,20.324c8.491,4.337,14.995,6.956,19.512,7.857l6.773,1.355c0.723,0,1.899-0.271,3.523-0.813
			c1.626-0.543,2.801-1.175,3.524-1.898l30.894-31.437c6.508-5.781,14.093-8.672,22.766-8.672c6.145,0,11.021,1.083,14.634,3.252
			h0.541l104.609,61.79C505.794,390.782,510.309,396.742,511.756,403.97z"/>
	</g>
</g>
</svg>
