<?xml version="1.0" encoding="utf-8"?>
<!-- Generator: Adobe Illustrator 16.0.0, SVG Export Plug-In . SVG Version: 6.00 Build 0)  -->
<!DOCTYPE svg PUBLIC "-//W3C//DTD SVG 1.1//EN" "http://www.w3.org/Graphics/SVG/1.1/DTD/svg11.dtd">
<svg version="1.1" id="Capa_1" xmlns="http://www.w3.org/2000/svg" xmlns:xlink="http://www.w3.org/1999/xlink" x="0px" y="0px"
	 width="84.057px" height="79.649px" viewBox="47.5 0 84.057 79.649" enable-background="new 47.5 0 84.057 79.649"
	 xml:space="preserve">
<g>
	<path fill="#231815" d="M131.194,37.74c0.193-1.018,0.289-1.875,0.334-2.547c0.072-1.109-0.011-2.755-0.04-3.271
		C130.467,14.155,112.034,0,89.444,0C66.199,0,47.355,14.989,47.355,33.478c0,16.994,15.92,31.03,36.544,33.188
		c1.261,0.133,2.17,1.271,2.031,2.531l-0.878,7.904c-0.199,1.793,1.656,3.1,3.282,2.314c17.425-8.41,27.845-17.061,34.068-24.556
		c1.131-1.364,4.824-6.537,5.576-7.896C129.575,44.081,130.677,40.983,131.194,37.74z"/>
	<path fill="#FFFFFF" d="M66.3,40.259V26.158c0-1.189-0.964-2.153-2.153-2.153l0,0c-1.189,0-2.153,0.964-2.153,2.153v16.254
		c0,1.189,0.964,2.152,2.153,2.152h8.612c1.189,0,2.153-0.963,2.153-2.152l0,0c0-1.189-0.964-2.153-2.153-2.153H66.3z"/>
	<path fill="#FFFFFF" d="M79.581,44.565H78.64c-0.929,0-1.683-0.753-1.683-1.682V25.688c0-0.929,0.753-1.683,1.683-1.683h0.941
		c0.929,0,1.683,0.753,1.683,1.683v17.196C81.263,43.812,80.51,44.565,79.581,44.565z"/>
	<path fill="#FFFFFF" d="M96.979,26.158v9.93c0,0-8.599-11.215-8.73-11.362c-0.411-0.461-1.016-0.745-1.688-0.719
		c-1.171,0.044-2.069,1.068-2.069,2.24v16.167c0,1.188,0.964,2.152,2.153,2.152l0,0c1.189,0,2.153-0.964,2.153-2.152v-9.87
		c0,0,8.728,11.313,8.857,11.435c0.381,0.359,0.893,0.583,1.457,0.588c1.195,0.012,2.173-1.047,2.173-2.242V26.158
		c0-1.189-0.964-2.153-2.153-2.153l0,0C97.942,24.005,96.979,24.969,96.979,26.158z"/>
	<path fill="#FFFFFF" d="M117.432,26.158L117.432,26.158c0-1.189-0.964-2.153-2.153-2.153h-8.611c-1.189,0-2.152,0.964-2.152,2.153
		v16.254c0,1.189,0.963,2.152,2.152,2.152h8.611c1.189,0,2.153-0.963,2.153-2.152l0,0c0-1.189-0.964-2.153-2.153-2.153h-6.459
		v-3.821h6.459c1.189,0,2.153-0.964,2.153-2.153l0,0c0-1.189-0.964-2.153-2.153-2.153h-6.459v-3.821h6.459
		C116.468,28.311,117.432,27.347,117.432,26.158z"/>
</g>
</svg>
