<?xml version="1.0" encoding="utf-8"?>
<!-- Generator: Adobe Illustrator 16.0.0, SVG Export Plug-In . SVG Version: 6.00 Build 0)  -->
<!DOCTYPE svg PUBLIC "-//W3C//DTD SVG 1.1//EN" "http://www.w3.org/Graphics/SVG/1.1/DTD/svg11.dtd">
<svg version="1.1" id="Capa_1" xmlns="http://www.w3.org/2000/svg" xmlns:xlink="http://www.w3.org/1999/xlink" x="0px" y="0px"
	 width="512px" height="512px" viewBox="0 0 512 512" enable-background="new 0 0 512 512" xml:space="preserve">
<g>
	<path id="Facebook_Places" fill="#231815" d="M424.024,127.432c-1.823-6.831-5.524-14.108-8.262-20.48
		C383.001,28.217,311.417,0,253.617,0C176.241,0,91.02,51.884,79.642,158.829v21.85c0,0.911,0.314,9.103,0.761,13.2
		c6.378,50.967,46.596,105.134,76.631,156.102c32.314,54.606,65.845,108.323,99.064,162.018
		c20.484-35.04,40.895-70.541,60.912-104.674c5.456-10.017,11.788-20.028,17.25-29.589c3.641-6.366,10.595-12.732,13.771-18.656
		c32.313-59.16,84.324-118.778,84.324-177.49V157.47C432.358,151.105,424.468,128.804,424.024,127.432z M255.033,237.115
		c-22.744,0-47.64-11.373-59.928-42.781c-1.831-4.999-1.684-15.019-1.684-15.937v-14.108c0-40.04,33.997-58.248,63.573-58.248
		c36.412,0,64.572,29.132,64.572,65.543C321.567,207.994,291.445,237.115,255.033,237.115z"/>
</g>
</svg>
