<?xml version="1.0" encoding="utf-8"?>
<!-- Generator: Adobe Illustrator 16.0.0, SVG Export Plug-In . SVG Version: 6.00 Build 0)  -->
<!DOCTYPE svg PUBLIC "-//W3C//DTD SVG 1.1//EN" "http://www.w3.org/Graphics/SVG/1.1/DTD/svg11.dtd">
<svg version="1.1" id="Capa_1" xmlns="http://www.w3.org/2000/svg" xmlns:xlink="http://www.w3.org/1999/xlink" x="0px" y="0px"
	 width="512px" height="512px" viewBox="0 0 512 512" enable-background="new 0 0 512 512" xml:space="preserve">
<g>
	<g>
		<path fill="#231815" d="M500.62,444.926L395.081,339.392c25.434-36.716,38.157-77.638,38.157-122.769
			c0-29.333-5.694-57.387-17.084-84.155c-11.381-26.772-26.768-49.848-46.152-69.232s-42.457-34.771-69.225-46.154
			C274.002,5.696,245.95,0.003,216.618,0.003c-29.331,0-57.385,5.692-84.153,17.078c-26.772,11.383-49.848,26.77-69.232,46.154
			C43.845,82.62,28.461,105.7,17.077,132.468C5.692,159.24,0,187.29,0,216.623c0,29.33,5.692,57.374,17.077,84.149
			c11.383,26.769,26.769,49.841,46.155,69.233c19.385,19.383,42.465,34.763,69.232,46.152
			c26.771,11.384,54.822,17.075,84.153,17.075c45.133,0,86.057-12.725,122.773-38.156L444.93,500.306
			c7.385,7.793,16.603,11.691,27.689,11.691c10.873,0,20.152-3.843,27.846-11.536s11.536-16.972,11.536-27.845
			S508.21,452.516,500.62,444.926z M314.003,313.997c-26.974,26.979-59.433,40.467-97.385,40.467
			c-37.946,0-70.406-13.492-97.382-40.467c-26.976-26.974-40.464-59.429-40.464-97.381c0-37.946,13.491-70.411,40.464-97.382
			c26.971-26.977,59.436-40.463,97.382-40.463c37.947,0,70.407,13.491,97.385,40.463c26.979,26.971,40.466,59.436,40.466,97.382
			C354.469,254.569,340.977,287.024,314.003,313.997z"/>
		<path fill="#231815" d="M305.24,196.927h-68.923v-68.923c0-2.667-0.976-4.974-2.923-6.923c-1.95-1.95-4.258-2.923-6.922-2.923
			h-19.693c-2.666,0-4.974,0.973-6.922,2.923c-1.947,1.949-2.923,4.256-2.923,6.923v68.923H128.01c-2.666,0-4.974,0.975-6.922,2.923
			c-1.949,1.949-2.923,4.256-2.923,6.923v19.69c0,2.668,0.974,4.976,2.923,6.924c1.949,1.949,4.253,2.924,6.922,2.924h68.924v68.923
			c0,2.671,0.976,4.975,2.923,6.927c1.949,1.943,4.256,2.917,6.922,2.917h19.691c2.666,0,4.974-0.974,6.923-2.917
			c1.947-1.952,2.923-4.256,2.923-6.927v-68.923h68.923c2.671,0,4.971-0.976,6.927-2.924c1.944-1.948,2.913-4.256,2.913-6.924
			v-19.69c0-2.667-0.969-4.974-2.913-6.923C310.219,197.902,307.91,196.927,305.24,196.927z"/>
	</g>
</g>
</svg>
