<?xml version="1.0" encoding="utf-8"?>
<!-- Generator: Adobe Illustrator 16.0.0, SVG Export Plug-In . SVG Version: 6.00 Build 0)  -->
<!DOCTYPE svg PUBLIC "-//W3C//DTD SVG 1.1//EN" "http://www.w3.org/Graphics/SVG/1.1/DTD/svg11.dtd">
<svg version="1.1" id="Capa_1" xmlns="http://www.w3.org/2000/svg" xmlns:xlink="http://www.w3.org/1999/xlink" x="0px" y="0px"
	 width="512px" height="512px" viewBox="0 0 512 512" enable-background="new 0 0 512 512" xml:space="preserve">
<g>
	<path fill="#231815" d="M466.544,125.192c-4.181-40.871-10.84-72.692-21.376-85.2c-43.439-51.429-347.73-55.192-382.279,0
		c-8.451,13.521-14.378,45.231-18.355,85.268c-12.835,1.51-22.83,12.316-22.83,25.545v50.065c0,11.134,7.054,20.52,16.902,24.182
		c-2.332,78.856-0.439,161.126,3.054,202.042c0,31.585,21.219,26.345,21.219,26.345h19.889v34.099
		c0,13.521,13.938,24.464,31.111,24.464c17.195,0,31.135-10.942,31.135-24.464v-34.099h231.384v34.099
		c0,13.521,13.928,24.464,31.124,24.464c17.173,0,31.111-10.942,31.111-24.464v-34.099h6.536c0,0,24.971,3.426,26.57-11.448
		c0-40.803,2.569-131.231,0.451-216.589c10.469-3.279,18.108-12.925,18.108-24.531v-50.065
		C490.308,137.26,479.829,126.273,466.544,125.192z M137.204,47.327h233.648v35.349H137.204V47.327z M140.539,413.176
		c-18.345,0-33.208-14.874-33.208-33.219c0-18.334,14.863-33.196,33.208-33.196s33.219,14.862,33.219,33.196
		C173.758,398.302,158.895,413.176,140.539,413.176z M369.602,413.176c-18.334,0-33.23-14.874-33.23-33.219
		c0-18.334,14.885-33.196,33.23-33.196c18.345,0,33.207,14.862,33.207,33.196C402.821,398.302,387.947,413.176,369.602,413.176z
		 M411.824,267.815H96.232V102.282h315.592V267.815z"/>
</g>
</svg>
