<?xml version="1.0" encoding="utf-8"?>
<!-- Generator: Adobe Illustrator 16.0.0, SVG Export Plug-In . SVG Version: 6.00 Build 0)  -->
<!DOCTYPE svg PUBLIC "-//W3C//DTD SVG 1.1//EN" "http://www.w3.org/Graphics/SVG/1.1/DTD/svg11.dtd">
<svg version="1.1" id="Capa_1" xmlns="http://www.w3.org/2000/svg" xmlns:xlink="http://www.w3.org/1999/xlink" x="0px" y="0px"
	 width="512px" height="512px" viewBox="0 0 512 512" enable-background="new 0 0 512 512" xml:space="preserve">
<g>
	<g>
		<g>
			<path fill="#231815" d="M503.407,233.072l-77.597-77.596V65.839c0-16.208-13.134-29.343-29.365-29.343
				c-16.194,0-29.328,13.135-29.328,29.343v30.944l-57.776-57.778c-28.565-28.55-78.23-28.499-106.73,0.052L8.591,233.072
				c-11.453,11.477-11.453,30.045,0,41.504c11.459,11.473,30.063,11.473,41.519,0l194-194.021c6.32-6.287,17.459-6.287,23.746-0.019
				l194.034,194.039c5.754,5.737,13.255,8.591,20.754,8.591c7.515,0,15.028-2.857,20.765-8.591
				C514.865,263.117,514.865,244.549,503.407,233.072z"/>
			<path fill="#231815" d="M266.192,136.254c-5.637-5.634-14.764-5.634-20.384,0L75.149,306.864
				c-2.694,2.692-4.223,6.37-4.223,10.207v124.437c0,29.2,23.676,52.874,52.875,52.874h84.493V363.529h95.393v130.853h84.495
				c29.197,0,52.873-23.674,52.873-52.873V317.071c0-3.837-1.514-7.514-4.222-10.207L266.192,136.254z"/>
		</g>
	</g>
</g>
</svg>
