<?xml version="1.0" encoding="utf-8"?>
<!-- Generator: Adobe Illustrator 16.0.0, SVG Export Plug-In . SVG Version: 6.00 Build 0)  -->
<!DOCTYPE svg PUBLIC "-//W3C//DTD SVG 1.1//EN" "http://www.w3.org/Graphics/SVG/1.1/DTD/svg11.dtd">
<svg version="1.1" id="Capa_1" xmlns="http://www.w3.org/2000/svg" xmlns:xlink="http://www.w3.org/1999/xlink" x="0px" y="0px"
	 width="512px" height="512px" viewBox="0 0 512 512" enable-background="new 0 0 512 512" xml:space="preserve">
<g>
	<g>
		<path fill="#231815" d="M18.856,128.572c-12.571,12.572-18.855,27.62-18.855,45.141v237.713c0,17.525,6.284,32.573,18.855,45.145
			c12.572,12.571,27.62,18.856,45.144,18.856h9.143V109.712H64C46.472,109.712,31.426,116,18.856,128.572z"/>
		<path fill="#231815" d="M365.713,63.999c0-7.619-2.665-14.094-8-19.428c-5.328-5.334-11.809-7.999-19.425-7.999H173.717
			c-7.618,0-14.094,2.665-19.429,7.999c-5.334,5.331-8,11.808-8,19.428v45.713h-45.714v365.714h310.852V109.712h-45.713V63.999
			L365.713,63.999z M182.859,73.142h146.285v36.57H182.859V73.142z M365.713,319.998c0,2.672-0.855,4.856-2.568,6.575
			c-1.713,1.708-3.903,2.568-6.568,2.568h-63.999v63.999c0,2.664-0.863,4.856-2.575,6.568c-1.705,1.712-3.897,2.568-6.565,2.568
			h-54.859c-2.669,0-4.857-0.856-6.571-2.568c-1.713-1.713-2.57-3.904-2.57-6.568v-63.999h-64c-2.67,0-4.857-0.86-6.571-2.568
			c-1.715-1.72-2.572-3.903-2.572-6.575v-54.855c0-2.672,0.857-4.862,2.572-6.575c1.71-1.711,3.901-2.566,6.566-2.566h64V192
			c0-2.668,0.856-4.856,2.572-6.572c1.714-1.714,3.901-2.569,6.571-2.569h54.858c2.667,0,4.858,0.855,6.567,2.569
			c1.712,1.716,2.575,3.904,2.575,6.572v64h63.999c2.665,0,4.856,0.855,6.568,2.566c1.709,1.713,2.564,3.903,2.564,6.575v54.855
			L365.713,319.998L365.713,319.998z"/>
		<path fill="#231815" d="M493.145,128.572c-12.572-12.571-27.621-18.859-45.145-18.859h-9.144v365.714h9.144
			c17.524,0,32.572-6.284,45.145-18.856c12.567-12.571,18.855-27.62,18.855-45.145V173.712
			C512,156.192,505.712,141.144,493.145,128.572z"/>
	</g>
</g>
</svg>
