<?xml version="1.0" encoding="utf-8"?>
<!-- Generator: Adobe Illustrator 16.0.0, SVG Export Plug-In . SVG Version: 6.00 Build 0)  -->
<!DOCTYPE svg PUBLIC "-//W3C//DTD SVG 1.1//EN" "http://www.w3.org/Graphics/SVG/1.1/DTD/svg11.dtd">
<svg version="1.1" id="Layer_1" xmlns="http://www.w3.org/2000/svg" xmlns:xlink="http://www.w3.org/1999/xlink" x="0px" y="0px"
	 width="512px" height="512px" viewBox="0 0 512 512" enable-background="new 0 0 512 512" xml:space="preserve">
<g>
	<g>
		<g>
			<path fill="#231815" d="M78.321,60.421c-0.014,0-0.029,0-0.043,0c-4.843,0-9.397,1.888-12.837,5.318
				c-3.477,3.469-5.393,8.087-5.393,13.004v274.73c0,10.074,8.229,18.291,18.345,18.316c42.646,0.102,114.095,8.99,163.386,60.571
				V144.848c0-3.415-0.873-6.623-2.52-9.277C198.804,70.42,121.063,60.522,78.321,60.421z"/>
			<path fill="#231815" d="M451.953,353.474V78.741c0-4.917-1.915-9.535-5.393-13.004c-3.438-3.431-7.997-5.318-12.834-5.318
				c-0.016,0-0.031,0-0.045,0c-42.741,0.103-120.482,10.001-160.939,75.151c-1.646,2.654-2.517,5.862-2.517,9.277v287.513
				c49.29-51.581,120.739-60.47,163.385-60.571C443.724,371.763,451.953,363.547,451.953,353.474z"/>
			<path fill="#231815" d="M493.682,123.779h-13.285v229.695c0,25.723-20.957,46.697-46.72,46.761
				c-36.173,0.087-95.816,7.16-138.058,47.139c73.056-17.887,150.07-6.259,193.961,3.743c5.48,1.248,11.144-0.041,15.534-3.541
				c4.375-3.491,6.885-8.709,6.885-14.311V142.097C512.002,131.996,503.782,123.779,493.682,123.779z"/>
			<path fill="#231815" d="M31.602,353.474V123.779H18.318C8.219,123.779,0,131.996,0,142.097V433.26
				c0,5.603,2.511,10.819,6.886,14.311c4.387,3.497,10.045,4.792,15.534,3.541c43.891-10.004,120.906-21.63,193.959-3.743
				c-42.239-39.978-101.884-47.049-138.057-47.135C52.562,400.171,31.602,379.197,31.602,353.474z"/>
		</g>
	</g>
</g>
</svg>
