<?xml version="1.0" encoding="utf-8"?>
<!-- Generator: Adobe Illustrator 16.0.0, SVG Export Plug-In . SVG Version: 6.00 Build 0)  -->
<!DOCTYPE svg PUBLIC "-//W3C//DTD SVG 1.1//EN" "http://www.w3.org/Graphics/SVG/1.1/DTD/svg11.dtd">
<svg version="1.1" id="Capa_1" xmlns="http://www.w3.org/2000/svg" xmlns:xlink="http://www.w3.org/1999/xlink" x="0px" y="0px"
	 width="512px" height="512px" viewBox="0 0 512 512" enable-background="new 0 0 512 512" xml:space="preserve">
<g>
	<g>
		<path fill="#231815" d="M161.988,167.225c25.885,1.9,47.223,20.006,53.966,44.226c0.435,1.562,1.837,2.653,3.458,2.653h46.647
			c2.566,0,4.708,1.959,4.937,4.514l20.882,233.289c0.229,2.556,2.37,4.515,4.937,4.515h181.184c2.911,0,5.196-2.498,4.937-5.398
			l-34.2-382.179c-0.229-2.556-2.37-4.515-4.937-4.515h-69.056c-1.438,0-2.631-1.107-2.746-2.541C369.208,27.21,340.341,0,305.047,0
			s-64.156,27.21-66.948,61.789c-0.116,1.434-1.308,2.541-2.746,2.541h-63.2c-2.566,0-4.708,1.958-4.938,4.514l-8.468,94.557
			C158.572,165.357,160.03,167.081,161.988,167.225z M305.052,11.517c28.754,0,52.426,21.903,55.356,49.896
			c0.163,1.557-1.041,2.918-2.606,2.918h-105.5c-1.564,0-2.77-1.361-2.605-2.918C252.626,33.42,276.299,11.517,305.052,11.517z"/>
		<path fill="#231815" d="M35.908,511.999h241.791c4.032,0,7.194-3.457,6.836-7.473L260.08,231.301
			c-0.316-3.539-3.282-6.251-6.835-6.251h-46.177c-1.803,0-3.328-1.354-3.52-3.146c-2.646-24.688-23.485-43.933-48.882-43.933
			c-25.394,0-46.236,19.24-48.883,43.933c-0.192,1.793-1.717,3.146-3.521,3.146h-41.9c-3.553,0-6.518,2.712-6.835,6.251
			L29.074,504.527C28.714,508.542,31.878,511.999,35.908,511.999z M117.499,221.08c2.927-17.89,18.45-31.593,37.161-31.593
			s34.234,13.703,37.165,31.592c0.341,2.078-1.244,3.972-3.35,3.972h-67.627C118.744,225.05,117.16,223.157,117.499,221.08z"/>
	</g>
</g>
</svg>
