<?xml version="1.0" encoding="utf-8"?>
<!-- Generator: Adobe Illustrator 16.0.0, SVG Export Plug-In . SVG Version: 6.00 Build 0)  -->
<!DOCTYPE svg PUBLIC "-//W3C//DTD SVG 1.1//EN" "http://www.w3.org/Graphics/SVG/1.1/DTD/svg11.dtd">
<svg version="1.1" id="Capa_1" xmlns="http://www.w3.org/2000/svg" xmlns:xlink="http://www.w3.org/1999/xlink" x="0px" y="0px"
	 width="512px" height="512px" viewBox="0 0 512 512" enable-background="new 0 0 512 512" xml:space="preserve">
<g>
	<g>
		<path fill="#C8A063" d="M0,511.996h232.727V279.267H0V511.996z M46.542,325.817h139.638v139.275H46.542V325.817z"/>
		<rect x="93.09" y="372.358" fill="#C8A063" width="46.545" height="46.551"/>
		<rect x="372.354" y="465.454" fill="#C8A063" width="46.556" height="46.546"/>
		<rect x="465.446" y="465.454" fill="#C8A063" width="46.554" height="46.546"/>
		<polygon fill="#C8A063" points="465.451,325.817 418.909,325.817 418.909,279.267 279.267,279.267 279.267,511.996 
			325.816,511.996 325.816,372.358 372.354,372.358 372.354,418.908 511.997,418.908 511.997,279.267 511.997,279.267 
			465.451,279.267 		"/>
		<path fill="#C8A063" d="M0,232.732h232.727V0H0V232.732z M46.542,46.541h139.638V186.18H46.542V46.541z"/>
		<rect x="93.09" y="93.09" fill="#C8A063" width="46.545" height="46.548"/>
		<path fill="#C8A063" d="M279.267,0v232.731h232.733V0H279.267z M465.451,186.18H325.816V46.541h139.635V186.18z"/>
		<rect x="372.354" y="93.09" fill="#C8A063" width="46.556" height="46.548"/>
	</g>
</g>
</svg>
