<?xml version="1.0" encoding="utf-8"?>
<!-- Generator: Adobe Illustrator 16.0.0, SVG Export Plug-In . SVG Version: 6.00 Build 0)  -->
<!DOCTYPE svg PUBLIC "-//W3C//DTD SVG 1.1//EN" "http://www.w3.org/Graphics/SVG/1.1/DTD/svg11.dtd">
<svg version="1.1" id="Capa_1" xmlns="http://www.w3.org/2000/svg" xmlns:xlink="http://www.w3.org/1999/xlink" x="0px" y="0px"
	 width="512px" height="512px" viewBox="0 0 512 512" enable-background="new 0 0 512 512" xml:space="preserve">
<g>
	<path fill="#C8A063" d="M490.358,92.154l-65.471-64.78c-28.979-28.529-76.035-28.722-105.078-0.321l-72.647,70.865
		c-29.091,28.385-29.22,74.622-0.321,103.136l41.518-39.88c-4.206-12.699,0.979-27.245,11.255-37.312l46.221-45.065
		c14.643-14.208,38.13-14.144,52.579,0.161l39.318,38.852c14.449,14.305,14.385,37.344-0.16,51.584l-46.222,45.098
		c-9.777,9.536-25.832,14.771-38.291,11.415l-40.666,39.912c28.946,28.593,75.971,28.722,105.078,0.321l72.567-70.802
		C519.209,166.905,519.305,120.715,490.358,92.154z"/>
	<path fill="#C8A063" d="M224.364,351.501c3.452,12.41-2.071,28.465-12.073,38.226l-43.171,42.176
		c-14.802,14.449-38.756,14.369-53.494-0.192l-40.104-39.511c-14.706-14.545-14.609-38.194,0.192-52.579l43.203-42.175
		c10.532-10.228,25.655-15.429,38.853-11.063l41.646-41.26c-29.476-29.075-77.447-29.22-107.052-0.321l-70.047,68.393
		c-29.637,28.946-29.781,76.003-0.321,105.143l66.691,65.937c29.444,29.043,77.384,29.188,107.053,0.289l70.046-68.394
		c29.605-28.979,29.733-76.003,0.321-105.11L224.364,351.501z"/>
	<path fill="#C8A063" d="M178.833,332.685c9.81,9.906,25.864,10.002,35.866,0.129l119.688-119.062
		c9.97-9.906,10.034-25.929,0.128-35.866c-9.842-9.874-25.864-9.938-35.802-0.097l-119.72,119.029
		C169.04,306.693,168.975,322.715,178.833,332.685z"/>
</g>
</svg>
