<?xml version="1.0" encoding="utf-8"?>
<!-- Generator: Adobe Illustrator 16.0.0, SVG Export Plug-In . SVG Version: 6.00 Build 0)  -->
<!DOCTYPE svg PUBLIC "-//W3C//DTD SVG 1.1//EN" "http://www.w3.org/Graphics/SVG/1.1/DTD/svg11.dtd">
<svg version="1.1" id="Capa_1" xmlns="http://www.w3.org/2000/svg" xmlns:xlink="http://www.w3.org/1999/xlink" x="0px" y="0px"
	 width="512px" height="512px" viewBox="0 0 512 512" enable-background="new 0 0 512 512" xml:space="preserve">
<g>
	<g>
		<g>
			<path fill="#C8A062" d="M403.891,284.898c-5.748-4.494-65.737-71.068-81.937-80.474V31.667C321.955,14.109,307.741,0,290.288,0
				H127.146c-17.558,0-31.667,14.213-31.667,31.667v302.454c0,17.559,14.214,31.667,31.667,31.667h52.36h18.707l-2.926-24.873
				c-0.941-0.836-1.568-1.358-2.509-2.195h-10.451h-20.902c1.045-4.18,1.359-8.778,0.522-13.481
				c-2.299-13.064-12.646-23.62-25.709-26.023c-4.808-0.94-9.511-0.627-13.796,0.418V64.17c1.881,0.313,3.867,0.522,5.853,0.522
				c17.767,0,32.085-14.423,32.085-32.085c0-1.882-0.209-3.763-0.522-5.644h97.404c-0.313,1.881-0.522,3.762-0.522,5.644
				c0,17.767,14.318,32.085,32.085,32.085c1.985,0,3.972-0.209,5.853-0.522V293.99l0,0v66.051
				c-11.078-8.151-23.41-33.652-23.41-33.652s-6.062-67.827-40.446-67.827c-0.94,0-1.776,0-2.717,0.104
				c0,0-26.023,2.194-4.494,76.606l9.615,82.668c0,0,10.765,44.835,40.445,75.875v9.197c0,4.912,3.972,8.988,8.988,8.988h96.673
				c4.599,0,8.36-3.449,8.883-7.943c3.449-32.189,16.827-151.854,24.665-170.04c1.254-2.926,2.299-5.853,2.718-8.987
				C417.374,314.787,418.001,295.976,403.891,284.898z"/>
		</g>
		<g>
			<circle fill="#C8A062" cx="212.219" cy="83.923" r="19.23"/>
		</g>
		<g>
			<g>
				<path fill="#C8A062" d="M139.269,185.089c0,33.13,23.201,60.825,54.241,67.828c0.94-1.777,1.882-3.345,3.031-5.017
					c10.242-14.945,24.142-17.663,28.845-18.081c1.881-0.209,3.763-0.313,5.644-0.313c6.688,0,15.781,1.255,25.188,6.271
					c13.481-12.646,21.947-30.726,21.947-50.688c0-38.355-31.145-69.5-69.5-69.5S139.269,146.734,139.269,185.089z M167.069,178.923
					c4.181,0,4.285,0,4.912-4.181c0.522-3.239,1.464-6.271,2.718-9.302c0.731-1.672,1.881-2.299,3.553-1.776
					c2.613,0.731,5.121,1.463,7.734,2.3c2.403,0.731,2.717,1.567,1.672,3.866c-2.299,4.703-3.239,9.511-2.926,14.736
					c0.104,1.358,0.209,2.718,0.836,3.867c1.985,4.494,6.897,5.121,9.929,1.358c1.567-1.881,2.612-4.076,3.553-6.375
					c1.673-3.972,3.24-7.943,5.226-11.601c6.584-11.915,21.529-15.154,31.771-6.689c3.658,3.031,6.166,7.003,7.42,11.602
					c0.523,1.985,1.568,2.926,3.658,2.821c2.091-0.104,4.076,0,6.166,0c1.882,0,2.822,0.94,2.822,2.718
					c0.104,2.194,0.104,4.389,0,6.584c0,1.985-1.149,2.821-3.031,2.821c-1.463,0-3.03,0-4.494,0c-3.344,0-3.448,0.104-3.971,3.345
					c-0.627,4.076-1.568,8.047-3.345,11.81c-1.463,2.927-2.194,3.24-5.226,2.404c-2.299-0.628-4.599-1.255-6.793-1.986
					c-2.613-0.836-2.927-1.567-1.672-3.972c2.194-4.075,3.344-8.465,3.971-13.063c0.418-2.926,0.104-5.853-1.149-8.57
					c-2.194-5.12-8.151-5.957-11.705-1.567c-1.254,1.463-2.091,3.136-2.822,4.912c-1.985,4.494-3.448,9.197-5.957,13.378
					c-4.075,6.897-9.72,11.183-18.08,10.66c-9.406-0.523-15.363-5.958-18.499-14.527c-1.254-3.554-1.254-3.554-5.016-3.658
					c-1.255,0-2.509,0-3.763,0c-2.822-0.104-3.345-0.522-3.345-3.344c0-0.837,0-1.777,0-2.613
					C161.112,179.028,161.112,179.028,167.069,178.923z"/>
			</g>
		</g>
	</g>
</g>
</svg>
