<?xml version="1.0" encoding="utf-8"?>
<!-- Generator: Adobe Illustrator 16.0.0, SVG Export Plug-In . SVG Version: 6.00 Build 0)  -->
<!DOCTYPE svg PUBLIC "-//W3C//DTD SVG 1.1//EN" "http://www.w3.org/Graphics/SVG/1.1/DTD/svg11.dtd">
<svg version="1.1" id="Capa_1" xmlns="http://www.w3.org/2000/svg" xmlns:xlink="http://www.w3.org/1999/xlink" x="0px" y="0px"
	 width="512px" height="512px" viewBox="0 0 512 512" enable-background="new 0 0 512 512" xml:space="preserve">
<g>
	<g id="Layer_1_43_">
		<g>
			<path fill="#C8A062" d="M488.71,117.338H379.798c14.957,13.366,27.746,29.031,37.768,46.536h71.145
				c12.854,0,23.279-10.414,23.279-23.268C511.989,127.763,501.564,117.338,488.71,117.338z"/>
			<path fill="#C8A062" d="M488.71,176.021h-64.858c6.993,14.597,12.156,30.175,15.152,46.536h49.706
				c12.854,0,23.279-10.414,23.279-23.268C511.989,186.435,501.564,176.021,488.71,176.021z"/>
			<path fill="#C8A062" d="M488.71,58.677H316.431c-10.033,0-18.476,6.362-21.766,15.229c25.763,5.468,49.467,16.383,70.121,31.308
				h123.935c12.864,0,23.29-10.414,23.29-23.269S501.564,58.677,488.71,58.677z"/>
			<path fill="#C8A062" d="M316.431,46.542H488.71c12.854,0,23.279-10.414,23.279-23.269c0-12.844-10.425-23.269-23.279-23.269
				H316.431c-12.865,0-23.279,10.425-23.279,23.279S303.566,46.542,316.431,46.542z"/>
			<path fill="#C8A062" d="M488.71,234.671h-47.854c0.796,7.015,1.308,14.106,1.308,21.329c0,8.562-0.773,16.961-1.906,25.207
				h48.442c12.854,0,23.279-10.425,23.279-23.279S501.564,234.671,488.71,234.671z"/>
			<path fill="#C8A062" d="M488.71,293.342h-50.316c-3.366,16.449-9.03,32.005-16.427,46.537h66.743
				c12.854,0,23.279-10.414,23.279-23.269S501.564,293.342,488.71,293.342z"/>
			<path fill="#C8A062" d="M488.71,352.003h-73.509c-10.664,17.614-24.009,33.366-39.706,46.536H488.71
				c12.854,0,23.279-10.414,23.279-23.268C511.989,362.417,501.564,352.003,488.71,352.003z"/>
			<path fill="#C8A062" d="M23.279,277.329h47.854c-0.806-7.016-1.317-14.107-1.317-21.329c0-8.563,0.784-16.95,1.906-25.208H23.279
				C10.425,230.804,0,241.218,0,254.072C0,266.915,10.425,277.329,23.279,277.329z"/>
			<path fill="#C8A062" d="M23.279,336.001h64.859c-6.982-14.598-12.157-30.175-15.152-46.526H23.279
				C10.425,289.475,0,299.878,0,312.733C0,325.586,10.425,336.001,23.279,336.001z"/>
			<path fill="#C8A062" d="M23.279,218.668h50.316c3.355-16.438,9.031-32.005,16.417-46.536H23.279
				C10.425,172.121,0,182.535,0,195.4C0,208.265,10.425,218.668,23.279,218.668z"/>
			<path fill="#C8A062" d="M23.279,160.007h73.509c10.664-17.604,24.009-33.366,39.695-46.536H23.279
				C10.425,113.471,0,123.885,0,136.729C0,149.582,10.425,160.007,23.279,160.007z"/>
			<path fill="#C8A062" d="M23.279,394.661h108.912c-14.956-13.366-27.745-29.02-37.768-46.525H23.279
				C10.425,348.136,0,358.55,0,371.394C0,384.258,10.425,394.661,23.279,394.661z"/>
			<path fill="#C8A062" d="M23.279,453.333h172.279c10.032,0,18.485-6.361,21.765-15.229c-25.763-5.469-49.467-16.384-70.109-31.308
				H23.279C10.425,406.786,0,417.2,0,430.065C0,442.919,10.425,453.333,23.279,453.333z"/>
			<path fill="#C8A062" d="M195.558,465.469H23.279C10.425,465.469,0,475.871,0,488.737c0,12.844,10.425,23.258,23.279,23.258
				h172.279c12.865,0,23.279-10.425,23.279-23.279S208.424,465.469,195.558,465.469z"/>
			<path fill="#C8A062" d="M255.995,93.1c-89.827,0-162.9,73.073-162.9,162.9c0,89.826,73.073,162.91,162.9,162.91
				c89.826,0,162.899-73.073,162.899-162.91C418.894,166.162,345.821,93.1,255.995,93.1z M255.995,372.363
				c-64.162,0-116.363-52.189-116.363-116.362c0-64.162,52.201-116.363,116.363-116.363c64.173,0,116.363,52.201,116.363,116.363
				C372.358,320.173,320.168,372.363,255.995,372.363z"/>
			<path fill="#C8A062" d="M262.781,240.281v-40.218c23.421,0.436,23.247,23.072,36.994,23.072c7.189,0,13.366-4.848,13.366-13.105
				c0-20.74-33.867-31.101-50.36-31.536v-11.274c0-3.605-2.767-7.2-6.384-7.2c-3.572,0-6.307,3.595-6.307,7.2v11.274
				c-26.449,0.817-50.371,15.665-50.371,44.424c0,23.496,18.998,37.255,50.371,42.952v44.238
				c-35.175-1.482-16.743-30.687-40.447-30.687c-7.996,0-13.104,4.891-13.104,13.333c0,16.732,17.788,38.104,53.552,38.977v13.094
				c0,3.595,2.734,7.189,6.307,7.189c3.617,0,6.384-3.595,6.384-7.189v-13.094c31.515-1.906,52.67-16.318,52.67-44.674
				C315.451,254.453,290.722,246.218,262.781,240.281z M250.091,237.96c-15.872-3.191-23.748-9.303-23.748-19.913
				c0-9.085,9.314-17.56,23.748-17.995V237.96z M262.781,310.096V268.2c11.395,2.517,26.046,6.754,26.046,21.133
				C288.827,303.299,275.461,309.257,262.781,310.096z"/>
		</g>
	</g>
</g>
</svg>
