<?xml version="1.0" encoding="utf-8"?>
<!-- Generator: Adobe Illustrator 16.0.0, SVG Export Plug-In . SVG Version: 6.00 Build 0)  -->
<!DOCTYPE svg PUBLIC "-//W3C//DTD SVG 1.1//EN" "http://www.w3.org/Graphics/SVG/1.1/DTD/svg11.dtd">
<svg version="1.1" id="Layer_1" xmlns="http://www.w3.org/2000/svg" xmlns:xlink="http://www.w3.org/1999/xlink" x="0px" y="0px"
	 width="512px" height="512px" viewBox="0 0 512 512" enable-background="new 0 0 512 512" xml:space="preserve">
<g>
	<g>
		<path fill="#C8A062" d="M423.892,229.581h-21.406v-43.154H49.378v82.953c0,97.352,79.202,176.554,176.555,176.554
			c62.028,0,116.683-32.159,148.182-80.675h49.777c37.406,0,67.839-30.434,67.839-67.839
			C491.731,260.015,461.299,229.581,423.892,229.581z M423.892,331.866h-32.839c7.379-19.436,11.433-40.495,11.433-62.486v-6.408
			h21.406c18.994,0,34.448,15.453,34.448,34.448C458.341,316.414,442.886,331.866,423.892,331.866z"/>
	</g>
</g>
<g>
	<g>
		<rect x="20.27" y="478.61" fill="#C8A062" width="411.325" height="33.391"/>
	</g>
</g>
<g>
	<g>
		<path fill="#C8A062" d="M297.392,86.894c0-6.167,1.312-8.315,4.187-13.022c3.832-6.275,9.081-14.869,9.081-30.428
			c0-15.557-5.249-24.149-9.082-30.425c-2.875-4.706-4.186-6.854-4.186-13.019h-33.392c0,15.557,5.249,24.15,9.082,30.425
			c2.875,4.706,4.187,6.853,4.187,13.018c0,6.167-1.313,8.316-4.188,13.023c-3.832,6.278-9.081,14.871-9.081,30.43
			s5.249,24.152,9.081,30.426c2.875,4.707,4.188,6.855,4.188,13.023h33.391c0-15.558-5.249-24.152-9.081-30.427
			C298.705,95.21,297.392,93.062,297.392,86.894z"/>
	</g>
</g>
<g>
	<g>
		<path fill="#C8A062" d="M174.595,86.894c0-6.167,1.312-8.315,4.187-13.022c3.832-6.275,9.081-14.869,9.081-30.428
			c0-15.557-5.249-24.149-9.082-30.425c-2.875-4.706-4.186-6.854-4.186-13.019h-33.392c0,15.557,5.249,24.15,9.082,30.425
			c2.875,4.706,4.187,6.853,4.187,13.018c0,6.167-1.313,8.316-4.188,13.023c-3.832,6.278-9.081,14.871-9.081,30.43
			s5.249,24.152,9.081,30.426c2.875,4.707,4.188,6.855,4.188,13.023h33.391c0-15.558-5.249-24.152-9.081-30.427
			C175.907,95.21,174.595,93.062,174.595,86.894z"/>
	</g>
</g>
</svg>
