<?xml version="1.0" encoding="utf-8"?>
<!-- Generator: Adobe Illustrator 16.0.0, SVG Export Plug-In . SVG Version: 6.00 Build 0)  -->
<!DOCTYPE svg PUBLIC "-//W3C//DTD SVG 1.1//EN" "http://www.w3.org/Graphics/SVG/1.1/DTD/svg11.dtd">
<svg version="1.1" id="Layer_1" xmlns="http://www.w3.org/2000/svg" xmlns:xlink="http://www.w3.org/1999/xlink" x="0px" y="0px"
	 width="512px" height="512px" viewBox="0 0 512 512" enable-background="new 0 0 512 512" xml:space="preserve">
<g>
	<g>
		<g>
			<path fill="#C8A063" d="M505.132,46.625c-0.021-17.365-5.933-32-17.536-43.521c-3.84-3.817-9.92-4.139-14.165-0.768
				C471.403,3.957,435.884,39.2,20.054,455.605C7.551,468.129,7.53,488.481,20.01,500.939c6.059,6.059,14.101,9.387,22.654,9.387
				c8.514,0,16.533-3.328,22.571-9.344l135.787-135.808c52.309-52.311,74.965-59.563,87.445-60.459
				c23.443-1.687,43.669-10.411,58.517-25.259C414.933,211.489,505.279,113.419,505.132,46.625z"/>
			<path fill="#C8A063" d="M85.823,191.286c0.064,0.063,0.085,0.147,0.149,0.213c14.507,14.271,34.475,22.697,57.707,24.403
				c12.352,0.896,27.968,8.939,47.765,24.599c1.939,1.536,4.288,2.304,6.613,2.304c2.729,0,5.481-1.045,7.552-3.136l34.069-34.091
				c3.817-3.842,4.181-9.899,0.832-14.165c-22.315-28.269-24.789-42.646-24.685-51.01c0.213-18.985-7.744-37.931-22.443-52.563
				l-2.752-2.325c0,0-0.021,0-0.021-0.021l-96-81.346c-4.501-3.817-11.243-3.243-15.04,1.237c-3.819,4.479-3.243,11.221,1.237,15.04
				l87.168,73.855l-29.313,29.313L50.218,35.147c-4.158-4.16-10.923-4.16-15.081,0c-4.16,4.16-4.16,10.923,0,15.083l88.446,88.448
				L93.631,168.63L18.431,88.694c-4.032-4.288-10.795-4.479-15.083-0.446c-4.288,4.03-4.48,10.795-0.448,15.083l82.709,87.808
				C85.674,191.201,85.759,191.222,85.823,191.286z"/>
			<path fill="#C8A063" d="M502.635,457.377L356.01,310.753c-3.499-3.521-8.939-4.141-13.143-1.536
				c-11.797,7.253-25.344,12.245-40.32,14.805c-3.925,0.661-7.146,3.477-8.361,7.275c-1.216,3.797-0.192,7.957,2.624,10.771
				l160.555,160.555c6.037,6.037,14.08,9.365,22.635,9.365c8.557,0,16.576-3.328,22.637-9.365
				c6.059-6.035,9.363-14.078,9.363-22.611S508.673,463.435,502.635,457.377z"/>
		</g>
	</g>
</g>
</svg>
