<?xml version="1.0" encoding="utf-8"?>
<!-- Generator: Adobe Illustrator 16.0.0, SVG Export Plug-In . SVG Version: 6.00 Build 0)  -->
<!DOCTYPE svg PUBLIC "-//W3C//DTD SVG 1.1//EN" "http://www.w3.org/Graphics/SVG/1.1/DTD/svg11.dtd">
<svg version="1.1" id="Capa_1" xmlns="http://www.w3.org/2000/svg" xmlns:xlink="http://www.w3.org/1999/xlink" x="0px" y="0px"
	 width="512px" height="512px" viewBox="0 0 512 512" enable-background="new 0 0 512 512" xml:space="preserve">
<g>
	<g>
		<path fill="#C8A062" d="M469.903,120.32l0.427-0.426L364.374,14.223l-30.151,30.15l60.018,60.018
			c-26.737,10.24-45.796,35.982-45.796,66.275c0,39.254,31.857,71.111,71.11,71.111c10.098,0,19.77-2.134,28.444-5.974v205.084
			c0.001,15.646-12.799,28.445-28.442,28.445c-15.645,0-28.444-12.8-28.444-28.444v-128c0-31.431-25.457-56.889-56.89-56.889
			h-28.443V56.889C305.777,25.457,280.32,0,248.889,0H78.222C46.791,0,21.334,25.457,21.334,56.889V512h284.443V298.666h42.667
			v142.223c0,39.254,31.857,71.111,71.11,71.111c39.254,0,71.111-31.857,71.111-71.111V170.666
			C490.667,151.04,482.703,133.263,469.903,120.32z M248.889,199.111H78.222V56.889h170.667V199.111z M419.556,199.111
			c-15.645,0-28.444-12.8-28.444-28.444c0-15.644,12.8-28.443,28.444-28.443c15.644,0,28.443,12.8,28.443,28.443
			C448,186.311,435.2,199.111,419.556,199.111z"/>
	</g>
</g>
</svg>
