<?xml version="1.0" encoding="utf-8"?>
<!-- Generator: Adobe Illustrator 16.0.0, SVG Export Plug-In . SVG Version: 6.00 Build 0)  -->
<!DOCTYPE svg PUBLIC "-//W3C//DTD SVG 1.1//EN" "http://www.w3.org/Graphics/SVG/1.1/DTD/svg11.dtd">
<svg version="1.1" id="Capa_1" xmlns="http://www.w3.org/2000/svg" xmlns:xlink="http://www.w3.org/1999/xlink" x="0px" y="0px"
	 width="512px" height="512px" viewBox="0 0 512 512" enable-background="new 0 0 512 512" xml:space="preserve">
<g>
	<path fill="#C8A062" d="M488.732,405.323h-93.089v-35.899h17.945c6.433,0,11.643-5.201,11.643-11.644
		c0-6.433-5.21-11.623-11.643-11.623H354.41c-6.434,0-11.643,5.19-11.643,11.623c0,6.444,5.209,11.644,11.643,11.644h17.945v35.899
		H186.188v-80.578h93.078c4.633,0,8.822-2.756,10.677-6.999c1.834-4.245,1-9.179-2.154-12.556l-59.146-63.634h27.333
		c4.623,0,8.813-2.743,10.679-6.99c1.834-4.243,1.001-9.176-2.156-12.566l-54.491-58.621h27.347c4.633,0,8.833-2.732,10.677-6.99
		c1.834-4.232,1-9.177-2.144-12.577l-74.455-80.123c-4.411-4.756-12.645-4.756-17.044,0l-74.455,80.123
		c-3.156,3.4-3.99,8.345-2.156,12.577c1.867,4.256,6.045,6.99,10.679,6.99H115.8L61.31,221.999
		c-3.133,3.391-3.988,8.323-2.134,12.566c1.845,4.245,6.045,6.99,10.656,6.99h27.355L38.021,305.19
		c-3.146,3.377-3.99,8.311-2.146,12.556c1.856,4.243,6.045,6.999,10.668,6.999h93.1v80.578H23.266C10.424,405.323,0,415.745,0,428.6
		c0,12.855,10.424,23.278,23.267,23.278h465.468c12.843,0,23.266-10.423,23.266-23.278
		C511.999,415.745,501.575,405.323,488.732,405.323z"/>
</g>
</svg>
