<?xml version="1.0" encoding="utf-8"?>
<!-- Generator: Adobe Illustrator 16.0.0, SVG Export Plug-In . SVG Version: 6.00 Build 0)  -->
<!DOCTYPE svg PUBLIC "-//W3C//DTD SVG 1.1//EN" "http://www.w3.org/Graphics/SVG/1.1/DTD/svg11.dtd">
<svg version="1.1" id="Capa_1" xmlns="http://www.w3.org/2000/svg" xmlns:xlink="http://www.w3.org/1999/xlink" x="0px" y="0px"
	 width="512px" height="512px" viewBox="0 0 512 512" enable-background="new 0 0 512 512" xml:space="preserve">
<g>
	<g>
		<path fill="#C8A062" d="M472.196,39.468c-52.654-52.625-138.301-52.625-190.955,0L169.915,150.794l126.395,126.394
			c26.014-21.663,58.995-35.227,95.412-35.227c20.888,0,40.765,4.339,58.851,12.087l21.624-23.624
			C524.836,177.784,524.836,92.123,472.196,39.468z"/>
	</g>
</g>
<g>
	<g>
		<path fill="#C8A062" d="M275.27,298.576L148.7,172.008L39.742,281.073c-52.639,52.64-52.639,138.301,0,190.955
			c52.653,52.622,139.3,53.626,191.955,0.999l22.088-22.194c-7.748-18.086-12.087-37.963-12.087-58.851
			C241.699,356.5,254.599,324.29,275.27,298.576z"/>
	</g>
</g>
<g>
	<g>
		<path fill="#C8A062" d="M271.703,391.983c0,61.145,45.894,111.045,105.016,118.504V273.478
			C317.596,280.937,271.703,330.836,271.703,391.983z"/>
	</g>
</g>
<g>
	<g>
		<path fill="#C8A062" d="M406.722,273.478v237.009c59.122-7.459,105.015-57.359,105.015-118.505
			C511.737,330.837,465.845,280.937,406.722,273.478z"/>
	</g>
</g>
</svg>
