<?xml version="1.0" encoding="utf-8"?>
<!-- Generator: Adobe Illustrator 16.0.0, SVG Export Plug-In . SVG Version: 6.00 Build 0)  -->
<!DOCTYPE svg PUBLIC "-//W3C//DTD SVG 1.1//EN" "http://www.w3.org/Graphics/SVG/1.1/DTD/svg11.dtd">
<svg version="1.1" id="Capa_1" xmlns="http://www.w3.org/2000/svg" xmlns:xlink="http://www.w3.org/1999/xlink" x="0px" y="0px"
	 width="512px" height="512px" viewBox="0 0 512 512" enable-background="new 0 0 512 512" xml:space="preserve">
<path fill="#C69F68" d="M496.93,282.742c-1.596,0-3.23,0.227-4.864,0.677l-18.48,5.089l-19.186-46.74
	c-5.435-13.242-21.504-24.016-35.819-24.016h-61.979v-35.823c0-13.295-4.109-34.124-9.159-46.429l-3.097-7.543h2.347
	c10.729,0,19.458-8.729,19.458-19.457V97.605c0-9.19-6.339-15.862-15.07-15.862c-1.596,0-3.23,0.229-4.864,0.677l-18.479,5.089
	l-19.188-46.74c-5.435-13.242-21.504-24.015-35.819-24.015H93.161c-14.313,0-30.38,10.772-35.818,24.015L38.18,87.447l-18.244-5.025
	c-1.632-0.449-3.271-0.679-4.864-0.679C6.339,81.742,0,88.412,0,97.605V108.5c0,10.729,8.729,19.457,19.458,19.457h2.091
	l-3.097,7.543c-5.052,12.301-9.159,33.127-9.159,46.429v92.858c0,10.729,8.729,19.458,19.457,19.458h25.418
	c10.729,0,19.458-8.729,19.458-19.458v-23.188h125.526l-15.126,36.845l-18.246-5.027c-1.632-0.449-3.269-0.677-4.864-0.677
	c-8.731,0-15.07,6.673-15.07,15.862v10.896c0,10.729,8.729,19.458,19.458,19.458h2.091l-3.1,7.545
	c-5.049,12.3-9.158,33.127-9.158,46.429v92.858c0,10.729,8.729,19.457,19.457,19.457h25.416c10.728,0,19.457-8.729,19.457-19.457
	v-23.189h218.648v23.189c0,10.729,8.729,19.457,19.457,19.457h25.413c10.729,0,19.458-8.729,19.458-19.457v-92.858
	c0-13.302-4.11-34.129-9.159-46.429l-3.097-7.545h2.349c10.729,0,19.458-8.729,19.458-19.458v-10.896
	C512,289.412,505.662,282.742,496.93,282.742z M319.153,180.353v26.462c0,4.281-3.502,7.783-7.783,7.783h-55.139
	c-4.281,0-7.783-3.502-7.783-7.783v-26.462c0-4.28,3.502-7.782,7.783-7.782h55.139C315.651,172.571,319.153,176.073,319.153,180.353
	z M116.927,206.815c0,4.281-3.502,7.783-7.783,7.783H54.008c-4.281,0-7.783-3.502-7.783-7.783v-26.462
	c0-4.28,3.502-7.782,7.783-7.782h55.138c4.281,0,7.783,3.502,7.783,7.782v26.462H116.927z M61.791,131.789
	c-8.563,0-12.906-6.48-9.655-14.402l29.021-70.699c3.253-7.922,12.917-14.402,21.477-14.402h160.624
	c8.563,0,18.229,6.48,21.478,14.402l29.025,70.699c3.251,7.922-1.093,14.402-9.655,14.402H61.791z M197.981,318.387l29.023-70.7
	c3.251-7.921,12.917-14.401,21.478-14.401h160.624c8.562,0,18.229,6.48,21.479,14.401l29.021,70.7
	c3.252,7.921-1.094,14.401-9.655,14.401H207.636C199.074,332.788,194.73,326.308,197.981,318.387z M262.774,407.815
	c0,4.281-3.502,7.783-7.782,7.783h-55.139c-4.281,0-7.783-3.502-7.783-7.783v-26.462c0-4.281,3.502-7.783,7.783-7.783h55.141
	c4.281,0,7.783,3.502,7.783,7.783v26.462H262.774z M464.997,407.815c0,4.281-3.502,7.783-7.783,7.783h-55.136
	c-4.281,0-7.783-3.502-7.783-7.783v-26.462c0-4.281,3.502-7.783,7.783-7.783h55.136c4.281,0,7.783,3.502,7.783,7.783V407.815z"/>
</svg>
