<?xml version="1.0" encoding="UTF-8"?><svg id="_層_2" xmlns="http://www.w3.org/2000/svg" viewBox="0 0 446.01 106.72"><defs><style>.cls-1{fill:#005743;}</style></defs><g id="_層_1-2"><g><g><path class="cls-1" d="M36.83,67.06H3.95v-7.52H45.99c3.75-4.28,10.61-12.72,12.9-18.04l1.35-3.12H16.96c5.62,1.39,11.76,2.08,16.75,5.55,3.02,2.2,4.27,4.16,4.27,8.44,0,3.58-4.27,6.47-7.49,6.47-5.2,0-5.51-1.5-7.08-6.13-.73-2.2-2.29-5.78-3.43-7.75-1.87-3.12-2.5-3.35-5.31-5.55l1.04-1.04H.21v-7.28H37.15v-10.87H4.79v-7.28H37.15V2.31h15.71V12.95h33.19v7.28H52.86v10.87h36.63v7.28h-26.43l14.98,3.12c-5.93,8.79-14.98,14.34-24.14,18.04h31.74v7.52H52.23v11.21h36.73l-.1,7.52H52.23v20h-15.4v-20H0v-7.52H36.83v-11.21Z"/><path class="cls-1" d="M123.39,47.87c3.54,1.39,7.08,1.5,9.57,4.86,.73,1.04,1.56,2.43,1.56,3.82,0,3.35-2.5,7.17-5.1,6.82-4.16-.58-3.85-5.67-4.58-9.37-.21-1.39-.73-2.31-1.46-3.47v54.57h-14.46V57.69c-3.23,1.85-6.35,3.82-9.68,5.43l-1.04-1.04c.73-.92,1.56-1.85,2.39-2.66,5.2-5.67,10.72-16.76,13.53-24.16h-15.92v-7.17h18.31l4.47-4.97,15.61,3.58-4.99,4.51c-2.39,5.43-5.72,9.94-9.05,14.68h.83v1.97ZM106.84,2.43c4.79,.46,16.44-.46,19.35,4.16,.94,1.39,1.77,3.35,1.77,5.2,0,4.39-3.12,8.32-8.01,8.09-4.79-.12-5.93-2.54-7.39-6.94-.62-1.85-1.14-3.58-1.98-5.32-.94-1.85-2.6-3.24-4.37-4.16l.62-1.04Zm82.2,3.58v7.4h-56.6V6.01h56.6Zm-39.64,48.56h22.58l3.43-4.74,15.82,3.58-3.75,4.51v46.94h-15.09v-4.16h-23v4.39h-14.36V51.68h14.36v2.89Zm2.71-36.42v3.01h18l3.75-4.28,14.36,3.35-3.64,4.05v23.24h-13.94v-2.89h-18.52v3.12h-14.36V18.15h14.36Zm2.18,55.96v-12.14h-4.89v12.14h4.89Zm0,7.63h-4.89v11.56h4.89v-11.56Zm16.34-44.63v-8.9h-18.52v8.9h18.52Zm1.77,37v-12.14h-5.72v12.14h5.72Zm0,19.19v-11.56h-5.72v11.56h5.72Z"/><path class="cls-1" d="M223.8,104.06v-32.03h-5.2c-.21,3.82-.1,7.75-.63,11.56-.62,5.43-3.54,10.52-7.28,13.99-3.54,3.12-7.18,6.13-10.72,9.13l-1.67-.81c1.67-2.66,4.27-6.94,5.2-10.06,2.19-7.63,2.29-15.84,2.5-23.82h-5.51v-7.4h23.31v-8.32h-10.82l-3.75,3.47-10.93-7.05,4.79-3.47v-17h13.32v16.65h7.39V29.48h14.57V104.06h-14.57Zm45.16-84.4v8.09h-14.88v-8.09h-20.6v8.32h-14.88v-8.32h-19.04v-7.4h19.04V1.5h14.88V12.26h20.6V1.5h14.88V12.26h19.67v7.4h-19.67Zm2.71,36.3v38.39h9.68v7.4h-34.75v-7.4h10.09V55.96h-14.98v-7.28h14.98V29.94h14.98v18.73h15.19v7.28h-15.19Z"/><path class="cls-1" d="M369.24,5.32l4.68-5.32,14.67,4.51-4.89,4.05V105.56h-13.94v-4.97h-57.33v4.97h-14.05V1.73h14.05v3.58h56.81Zm-40.48,59.08h-8.85v-24.51h11.86v2.54h19.15l3.75-3.7,12.49,2.78-4.47,4.05v18.15h-2.29l8.53,3.01c-4.37,2.66-8.95,4.86-13.42,7.17,3.64,1.62,10.4,4.16,10.4,9.71,0,3.12-2.7,4.28-5.1,4.28-7.18,0-9.99-9.36-16.44-13.53-2.39-1.5-4.89-2.66-7.6-3.58l.42-.69c4.16,.46,8.32,1.16,12.49,2.08,2.08-2.66,4.27-5.43,6.14-8.44h-4.58v-3.01h-19.46v1.85l14.46-.12c-3.43,2.89-6.97,5.55-10.61,8.09v19.77h-10.82v-14.8c-4.06,1.62-8.32,2.77-12.38,4.28v13.87h57.33V12.14h-57.33V77.46c5.62-3.82,11.65-7.63,16.34-13.06Zm6.35-33.65v-4.74h-16.23v-6.47h16.23v-4.97h12.28v4.97h18v6.47h-18v4.74h20.39v6.59h-54.21v-6.59h21.54Zm16.23,23.7v-6.01h-19.56v6.01h19.56Z"/></g><path class="cls-1" d="M435.84,98.53c-4.14,4.4-9.51,6.06-15.05,6.26-4.4,.1-8.36-.88-11.62-3.03-3.43-2.25-5.99-5.87-7.39-10.76-.97-3.52-1.32-7.24-1.23-11.05h13.29c-.18,3.33-.26,8.61,.35,11.44,.44,2.35,1.5,4.5,3.7,5.87,1.67,1.08,4.31,1.17,6.16,.1,2.11-1.27,3.26-3.91,3.87-6.36,1.5-6.26,2.02-16.24-.26-22.01-.97-2.45-2.82-3.91-4.84-4.4-2.03-.59-4.05-.29-5.72,.88-1.32,.88-2.38,2.35-2.91,4.11h-12.59l3.35-38.54h35.65v6.55h-23.24l-1.94,21.52c3.17-2.93,7.4-3.91,11.53-3.23,3.79,.59,7.39,2.54,9.95,5.58,4.31,5.28,5.81,12.03,5.55,19.17-.18,6.85-2.11,13.01-6.6,17.9Z"/><g><path class="cls-1" d="M415.83,20.94V8.64c0-1.13-.32-1.98-.85-2.43-.58-.52-1.46-.58-2.51-.13-1.14,.45-2.1,1.17-3.01,2.01v12.84h-3.88V4.01h3.88v1.75c1.28-1.04,3.01-1.78,4.73-1.98,1.69-.16,3.09,.16,4.06,1.1,.93,.88,1.46,2.27,1.46,4.18v11.87h-3.88Z"/><path class="cls-1" d="M435.68,18.05c-1.11,1.59-2.63,2.5-4.29,2.89-1.58,.36-3.59,.23-5.08-.49-1.63-.81-2.89-2.46-3.56-4.31-.58-1.65-.73-3.53-.44-5.32,.32-2.11,1.28-4.09,2.8-5.38,1.14-.97,2.63-1.52,4.15-1.65,1.46-.13,2.92,.16,4.09,.88,1.72,1.04,2.92,2.72,3.47,4.77,.35,1.23,.5,2.56,.41,3.89-.09,1.75-.61,3.44-1.55,4.73Zm-4.7-12.16c-.73-.36-1.61-.39-2.48,.1-.91,.49-1.49,1.36-1.87,2.3-.91,2.27-.88,6.32,0,8.5,.44,1.1,1.17,1.88,2.01,2.21,.79,.32,1.63,.26,2.36-.1,.82-.39,1.52-1.17,1.81-2.4,.64-2.56,.85-5.74,.06-8.3-.35-1.07-1.02-1.91-1.9-2.3Z"/><path class="cls-1" d="M444.66,20.45c-1.02,.71-2.39,.58-3.33-.26-.76-.65-1.11-1.59-1.08-2.63,.03-1.2,.58-2.14,1.52-2.72,.99-.58,2.13-.45,3.04,.26,.79,.62,1.2,1.49,1.2,2.56,0,1.13-.47,2.21-1.34,2.79Z"/></g></g></g></svg>