<?xml version="1.0" encoding="UTF-8"?><svg id="_層_2" xmlns="http://www.w3.org/2000/svg" viewBox="0 0 89.19 27.65"><defs><style>.cls-1{fill:#fff;}</style></defs><g id="_層_1-2"><g><path class="cls-1" d="M13.93,0C6.24,0,0,6.24,0,13.93c0,6.88,4.99,12.59,11.55,13.72v-9.82h-3.33v-3.96h3.44v-3.44s.06-5.05,4.76-5.05c2.24,0,3.73,.29,3.73,.29v3.56h-2.18s-1.58,.23-1.58,1.58v3.07h3.7l-.63,4.01h-3.15v9.76c6.56-1.13,11.55-6.83,11.55-13.72C27.87,6.24,21.63,0,13.93,0Z"/><g><path class="cls-1" d="M34.59,4.41h.94v-.48c0-.54,.06-.94,.17-1.21,.11-.27,.32-.48,.63-.65,.31-.17,.7-.25,1.17-.25s.95,.07,1.42,.22l-.23,1.18c-.27-.06-.53-.1-.78-.1s-.42,.06-.53,.17c-.11,.11-.16,.33-.16,.66v.45h1.27v1.33h-1.27v5.07h-1.69V5.74h-.94v-1.33Z"/><path class="cls-1" d="M40.71,6.36l-1.54-.28c.17-.62,.47-1.08,.89-1.37,.42-.3,1.05-.45,1.88-.45,.75,0,1.32,.09,1.69,.27,.37,.18,.63,.41,.78,.68,.15,.28,.23,.78,.23,1.52l-.02,1.98c0,.56,.03,.98,.08,1.24,.05,.27,.16,.55,.3,.86h-1.67c-.04-.11-.1-.28-.16-.5-.03-.1-.05-.17-.06-.2-.29,.28-.6,.49-.93,.63-.33,.14-.68,.21-1.06,.21-.66,0-1.18-.18-1.56-.54-.38-.36-.57-.81-.57-1.36,0-.36,.09-.68,.26-.97,.17-.28,.41-.5,.73-.65,.31-.15,.76-.28,1.35-.39,.79-.15,1.34-.29,1.64-.42v-.17c0-.33-.08-.56-.24-.7s-.46-.21-.91-.21c-.3,0-.54,.06-.7,.18-.17,.12-.31,.33-.41,.62Zm2.27,1.37c-.22,.07-.56,.16-1.03,.26-.47,.1-.78,.2-.92,.3-.22,.16-.33,.36-.33,.6s.09,.44,.27,.61c.18,.17,.4,.26,.67,.26,.31,0,.6-.1,.87-.3,.21-.15,.34-.34,.4-.56,.04-.14,.07-.42,.07-.83v-.34Z"/><path class="cls-1" d="M51.89,6.3l-1.67,.3c-.06-.33-.18-.58-.38-.75-.2-.17-.46-.25-.77-.25-.42,0-.76,.15-1.01,.44-.25,.29-.38,.78-.38,1.46,0,.76,.13,1.3,.38,1.61,.26,.31,.6,.47,1.03,.47,.32,0,.58-.09,.79-.27,.2-.18,.35-.5,.43-.94l1.66,.28c-.17,.76-.5,1.34-.99,1.73-.49,.39-1.15,.58-1.97,.58-.94,0-1.68-.3-2.24-.89-.56-.59-.83-1.41-.83-2.45s.28-1.88,.84-2.47c.56-.59,1.31-.88,2.27-.88,.78,0,1.4,.17,1.86,.5,.46,.34,.79,.85,.99,1.53Z"/><path class="cls-1" d="M56.88,8.77l1.69,.28c-.22,.62-.56,1.09-1.03,1.41-.47,.32-1.05,.49-1.76,.49-1.11,0-1.94-.36-2.47-1.09-.42-.58-.63-1.32-.63-2.21,0-1.06,.28-1.89,.83-2.49,.55-.6,1.26-.9,2.1-.9,.95,0,1.7,.31,2.25,.94s.81,1.59,.79,2.89h-4.24c.01,.5,.15,.89,.41,1.17,.26,.28,.59,.42,.98,.42,.27,0,.49-.07,.67-.22,.18-.14,.32-.38,.41-.7Zm.1-1.71c-.01-.49-.14-.86-.38-1.12-.24-.26-.53-.38-.88-.38-.37,0-.68,.13-.92,.4-.24,.27-.36,.63-.36,1.1h2.53Z"/><path class="cls-1" d="M59.96,10.81V1.98h1.69v3.18c.52-.59,1.14-.89,1.86-.89,.78,0,1.42,.28,1.93,.85,.51,.56,.76,1.38,.76,2.43s-.26,1.93-.78,2.52c-.52,.59-1.15,.89-1.9,.89-.37,0-.73-.09-1.08-.27-.36-.18-.66-.45-.92-.81v.94h-1.57Zm1.68-3.34c0,.66,.1,1.15,.31,1.47,.29,.45,.68,.68,1.17,.68,.37,0,.69-.16,.95-.48,.26-.32,.4-.82,.4-1.51,0-.73-.13-1.26-.4-1.58-.27-.32-.61-.48-1.02-.48s-.74,.16-1.01,.47c-.27,.32-.4,.79-.4,1.44Z"/><path class="cls-1" d="M67.18,7.52c0-.56,.14-1.11,.42-1.63,.28-.53,.67-.93,1.18-1.21,.51-.28,1.08-.42,1.7-.42,.97,0,1.76,.31,2.38,.94,.62,.63,.93,1.42,.93,2.38s-.31,1.77-.94,2.41c-.62,.64-1.41,.96-2.36,.96-.59,0-1.15-.13-1.68-.4-.53-.27-.94-.65-1.21-1.17-.28-.51-.42-1.14-.42-1.87Zm1.74,.09c0,.63,.15,1.12,.45,1.46,.3,.34,.67,.51,1.11,.51s.81-.17,1.11-.51c.3-.34,.45-.83,.45-1.47s-.15-1.11-.45-1.45c-.3-.34-.67-.51-1.11-.51s-.81,.17-1.11,.51c-.3,.34-.45,.82-.45,1.46Z"/><path class="cls-1" d="M74.72,7.52c0-.56,.14-1.11,.42-1.63,.28-.53,.67-.93,1.18-1.21,.51-.28,1.08-.42,1.7-.42,.97,0,1.76,.31,2.38,.94,.62,.63,.93,1.42,.93,2.38s-.31,1.77-.94,2.41c-.62,.64-1.41,.96-2.36,.96-.59,0-1.15-.13-1.68-.4-.53-.27-.94-.65-1.21-1.17-.28-.51-.42-1.14-.42-1.87Zm1.74,.09c0,.63,.15,1.12,.45,1.46,.3,.34,.67,.51,1.11,.51s.81-.17,1.11-.51c.3-.34,.45-.83,.45-1.47s-.15-1.11-.45-1.45c-.3-.34-.67-.51-1.11-.51s-.81,.17-1.11,.51c-.3,.34-.45,.82-.45,1.46Z"/><path class="cls-1" d="M82.59,10.81V1.98h1.69V6.67l1.98-2.25h2.08l-2.19,2.34,2.34,4.06h-1.83l-1.61-2.87-.79,.83v2.05h-1.69Z"/><path class="cls-1" d="M36.84,18.89v-4l.91,.07c.17,.01,.25,.05,.25,.12,0,.06-.06,.16-.18,.28v3.53h1.31v.64c.31-.43,.57-.88,.77-1.32,.34-.65,.64-1.53,.93-2.65l.89,.31c.1,.04,.14,.08,.14,.16,0,.05-.1,.1-.29,.14-.26,1.02-.58,1.91-.94,2.68-.35,.71-.75,1.35-1.18,1.93l-.84-.57c.1-.12,.19-.24,.29-.37h-.71c.39,.95,.82,1.78,1.31,2.49l-.75,.65c-.37-.63-.69-1.25-.94-1.87v4.65h-.99v-4.37c-.1,.28-.18,.53-.26,.75-.26,.72-.58,1.37-.91,1.97l-.99-.66c.43-.53,.82-1.1,1.14-1.72,.22-.41,.48-1.05,.79-1.89h-1.56v-.95h1.79Zm-.34-.7l-.89,.18c-.15-.72-.31-1.4-.52-2.02l.89-.18c.24,.7,.42,1.37,.52,2.02Zm3.24-1.78c.1,.02,.16,.08,.16,.18,0,.06-.07,.16-.19,.28l-.89,1.55-.71-.13c.26-.57,.52-1.28,.76-2.12l.88,.24Zm4.33-1.05c.07,1.18,.29,2.13,.64,2.85,.24,.52,.67,1.13,1.29,1.85l-.89,.61c-.17-.2-.33-.41-.47-.6-.01,2.14-.07,3.5-.19,4.08-.08,.6-.26,1.02-.53,1.24-.29,.24-.77,.36-1.44,.36l-.47-1.04c.67,0,1.07-.06,1.2-.2,.12-.1,.2-.35,.28-.75,.1-.39,.14-1.42,.17-3.09h-1.4c-.07,.93-.22,1.67-.41,2.25-.26,.7-.57,1.25-.91,1.66-.36,.42-.84,.81-1.47,1.17l-.89-.71c.67-.29,1.17-.61,1.48-.99,.36-.39,.66-.85,.88-1.42,.19-.52,.31-1.17,.39-1.96h-.95v-.99h4.01c-.31-.46-.54-.89-.71-1.3-.25-.54-.42-1.25-.52-2.13h-1.05v-.9h1.97Z"/><path class="cls-1" d="M51.09,22.23c.1,.02,.14,.07,.14,.14,0,.1-.07,.19-.19,.29-.17,1-.39,1.87-.65,2.59l-1-.34c.17-.34,.3-.72,.42-1.16,.14-.53,.25-1.13,.34-1.81l.94,.28Zm1.29-6.87c.11,.06,.17,.11,.17,.16,0,.1-.06,.17-.18,.24l-1.19,1.6c.32,.2,.64,.4,.93,.59l.96-1.49,.77,.51c.07,.06,.12,.13,.12,.2s-.08,.12-.23,.14l-1.97,2.82c.52-.05,1.02-.1,1.52-.17-.1-.24-.2-.48-.3-.72l.94-.19c.37,.83,.64,1.62,.81,2.4l-.94,.19c-.07-.29-.16-.57-.24-.84-.31,.05-.65,.11-1.04,.16v4.83h-.99v-4.69c-.46,.06-.95,.12-1.46,.18-.08,.12-.16,.18-.23,.18s-.12-.05-.12-.16l-.22-.96c.39-.02,.76-.05,1.13-.08l.98-1.5c-.64-.41-1.34-.83-2.11-1.24l.61-.75c.1,.06,.19,.11,.29,.16l1.22-1.95,.77,.41Zm1.58,9.94l-.94,.18c-.05-1.2-.11-2.32-.18-3.33l.94-.19c.07,1.16,.13,2.28,.18,3.35Zm3.77-9.94c.12,.06,.19,.11,.19,.16,0,.11-.08,.2-.24,.29l-1.17,1.59c.31,.19,.61,.36,.89,.53l.99-1.47,.81,.51c.08,.06,.13,.13,.13,.2,0,.1-.08,.17-.24,.19l-2,2.7c.61-.05,1.22-.12,1.82-.19-.11-.24-.22-.48-.34-.72l.86-.19c.41,.82,.71,1.6,.89,2.36l-.85,.13c-.07-.25-.16-.51-.24-.76-.36,.06-.78,.12-1.26,.19v4.9h-1.04v-4.77c-.48,.07-1.01,.13-1.59,.2-.08,.12-.17,.18-.24,.18s-.12-.05-.13-.17l-.24-1c.4-.02,.8-.05,1.18-.07l.99-1.46c-.67-.41-1.42-.81-2.21-1.2l.61-.75c.13,.07,.26,.13,.4,.2l1.24-2,.81,.41Zm-1.23,6.87c.1,.02,.14,.07,.14,.14,0,.1-.07,.19-.19,.29-.22,1.06-.48,1.96-.79,2.72l-.99-.33c.19-.36,.35-.76,.48-1.22,.17-.55,.31-1.19,.41-1.89l.94,.28Zm3.82,2.83l-.94,.19c-.29-1.12-.63-2.15-1.04-3.11l.94-.19c.48,1.08,.82,2.12,1.04,3.11Z"/><path class="cls-1" d="M68.63,15.65v-.81l.99,.08c.18,.02,.28,.07,.28,.16,0,.06-.06,.16-.18,.28v.29h5.03v.94h-5.03v.47h3.33v3.36l.19-.16c.51,.46,1,1.06,1.5,1.78l-.89,.61c-.17-.29-.35-.57-.52-.82-.42,.04-.88,.07-1.37,.1v.91h2.78v.94h-2.78v.84c0,.41-.16,.72-.47,.91-.26,.2-.93,.31-1.97,.31l-.42-1.08h1.14c.4,0,.61-.11,.64-.34v-.65h-3.8c.43,.31,.88,.67,1.31,1.08l-.89,.6c-.46-.53-.95-.97-1.5-1.36l.41-.32h-2.48v-.94h6.96v-.84c-1.56,.11-3.46,.23-5.68,.36-.08,.13-.17,.19-.24,.19s-.12-.05-.13-.17l-.24-1.01c1.37-.04,2.72-.08,4.04-.14v-.6h-3.25v-3.58h3.25v-.47h-4.71v-.94h4.71Zm0,2.82v-.57h-2.17v.57h2.17Zm0,.76h-2.17v.57h2.17v-.57Zm1.08-.76h2.25v-.57h-2.25v.57Zm2.25,.76h-2.25v.57h2.25v-.57Zm.57,1.6l.24-.19h-3.06v.55c1.01-.05,2.01-.1,3-.17-.07-.07-.13-.13-.18-.19Z"/><path class="cls-1" d="M88.95,15.37v.95h-4.49l-.29,.94h3.61v6.58h-1.14c.67,.55,1.53,1.02,2.55,1.41l-.99,.7c-1.01-.51-1.89-1.12-2.64-1.83l.42-.28h-4.48l.36,.24c.07,.07,.12,.13,.12,.18s-.07,.08-.19,.1c-.57,.47-1.4,.99-2.49,1.54l-.94-.7c.87-.35,1.69-.79,2.46-1.36h-1.28v-6.58h3.42l.29-.94h-4.65v-.95h10.34Zm-2.25,3.82v-.99h-6.07v.99h6.07Zm0,1.88v-.99h-6.07v.99h6.07Zm0,.89h-6.07v.94h6.07v-.94Z"/></g></g></g></svg>