<?xml version="1.0" encoding="UTF-8"?><svg id="_層_2" xmlns="http://www.w3.org/2000/svg" viewBox="0 0 401 91"><defs><style>.cls-1{fill:#b59046;}</style></defs><g id="_層_1-2"><g><path class="cls-1" d="M51.89,31.96c-.36,.42-1.39,.71-2.72,.78,2.4,2.98,8.26,6.09,14.07,7.45v.39c-1.69,.49-3.01,2.01-3.47,3.56-4.7-2.63-9.24-6.77-11.38-11.31-3.27,5.44-9.33,9.98-16.04,12.57l-.19-.32c4.93-3.11,9.46-7.94,11.44-12.45h-5.38l-.29-.94h9.43l1.2-1.94,3.34,2.2Zm6.38,23.46s2.37,1.81,3.82,3.11c-.1,.36-.42,.52-.91,.52h-27.32l-.26-.91h11.8v-6.94h-8.36l-.26-.91h8.62v-6.19h-7.16l-.26-.94h13.58l1.91-2.37s2.17,1.62,3.53,2.79c-.1,.36-.45,.52-.91,.52h-6.71v6.19h4.34l2.01-2.56s2.24,1.75,3.63,2.95c-.06,.36-.42,.52-.87,.52h-9.11v6.94h6.74l2.14-2.72Z"/><path class="cls-1" d="M98.33,55.62c1.81,.32,2.24,.84,2.24,1.49,0,1.78-2.17,2.11-13.09,2.11h-7.16c-5.25,0-7.58-.55-7.58-4.25v-22.01h-1.13l-.29-.91h22.91l1.94-2.59s2.17,1.78,3.5,2.98c-.1,.36-.45,.52-.91,.52h-22.52v21.52c0,1.46,.87,1.91,3.69,1.91h7.84c2.79,0,5.28-.07,6.26-.16,.62-.03,1.39-.13,1.91-.19,.45-.06,1.13-.23,1.85-.45h.36l.19,.03Zm-14.49-.88v-1.59h-2.69v1.36c0,.26-1.36,.97-2.66,.97h-.45v-10.99l3.24,1.3h2.27l1.46-1.52,3.05,2.3c-.16,.19-.55,.45-1.07,.52v6.81c-.03,.23-1.59,.84-2.62,.84h-.52Zm7.32-12.54h-6.45v.91c0,.32-1.62,1.1-3.08,1.1h-.52v-10.05l3.76,1.46h6l1.65-1.78,3.47,2.63c-.19,.23-.58,.49-1.17,.62v5.7c-.03,.23-1.88,.88-3.01,.88h-.65v-1.46Zm-7.32,10.01v-5.48h-2.69v5.48h2.69Zm7.32-10.95v-4.7h-6.45v4.7h6.45Zm3.56,13.35v-1.46h-2.79v.84c0,.29-1.39,.97-2.69,.97h-.45v-10.47l3.27,1.3h2.37l1.49-1.56,3.11,2.37c-.16,.19-.55,.42-1.07,.52v6.64c-.03,.19-1.65,.84-2.69,.84h-.55Zm0-2.4v-5.48h-2.79v5.48h2.79Z"/><path class="cls-1" d="M131.04,43.6l2.69-3.76s2.98,2.59,4.76,4.28c-.1,.36-.45,.52-1,.52h-29.04l-.29-1.04h22.88Z"/><path class="cls-1" d="M169.48,45.67v-1.1h-3.27v3.79h3.76l1.94-2.46s2.14,1.69,3.47,2.88c-.1,.36-.45,.52-.91,.52h-8.26v3.95h4.83l2.01-2.59s2.27,1.81,3.66,3.01c-.1,.36-.45,.52-.94,.52h-9.56v4.63c0,.42-1.56,1.33-2.95,1.33h-.71v-5.96h-7.65l-.26-.94h7.91v-3.95h-6.74l-.26-.94h7v-3.79h-5.93l-.29-.91h6.22v-4.02h-6.9c-.62,.84-1.3,1.75-2.11,2.66l1.33,.49c-.1,.29-.39,.49-.97,.62v15.59c-.03,.29-1.52,1.2-3.01,1.2h-.71v-14.45c-1.2,1.07-2.5,2.07-3.89,2.92l-.29-.32c2.92-3.4,5.57-8.69,6.74-12.15l4.63,2.37c-.03,.06-.06,.1-.1,.16h5.28v-3.89h-5.74l-.29-.91h6.03v-4.18l4.86,.49c-.1,.45-.32,.81-1.2,.94v2.75h2.95l1.75-1.94,3.63,2.79c-.23,.26-.65,.55-1.3,.71v3.24h.13l1.36-2.17s1.52,1.56,2.37,2.59c-.1,.36-.39,.52-.84,.52h-3.01v5.15c-.03,.23-1.91,.88-3.11,.88h-.65Zm-12.96-13.55c-.13,.29-.42,.49-1.23,.42-2.04,2.11-5.54,4.83-8.95,6.61l-.32-.32c2.37-2.56,4.83-6.61,5.96-9.11l4.54,2.4Zm9.69,6.58h3.27v-3.89h-3.27v3.89Zm3.27,4.96v-4.02h-3.27v4.02h3.27Z"/><path class="cls-1" d="M192.36,39.38c-.1,.29-.36,.52-.97,.62v19.06c-.06,.29-1.59,1.1-3.05,1.1h-.68v-16.59c-1.04,1.3-2.14,2.5-3.31,3.53l-.42-.26c2.33-4.21,4.7-10.86,5.93-17.11l5.35,1.56c-.13,.42-.55,.68-1.3,.68-.91,2.46-1.94,4.76-3.11,6.84l1.56,.58Zm-.03,20.39c3.01-1.43,6.22-3.95,7.75-5.8l4.44,2.5c-.26,.36-.84,.55-1.82,.39-2.3,1.39-6.45,2.69-10.21,3.27l-.16-.36Zm15.56-26.54v2.56h1.78l1.62-1.75,3.4,2.56c-.13,.19-.49,.42-1.04,.52v4.28c-.03,.19-1.56,.75-2.72,.84l2.46,1.88c-.16,.23-.55,.52-1.13,.62v9.3c-.03,.23-1.85,.97-3.08,.97h-.65v-1.39h-9.53v.68c0,.32-1.59,1.13-3.08,1.13h-.52v-12.8c-.29,.06-.58,.1-.87,.1h-.49v-8.43l3.79,1.49h1.75v-2.56h-5.25l-.26-.94h14.88l2.11-2.59s2.33,1.75,3.79,3.01c-.1,.36-.45,.52-.91,.52h-6.06Zm2.04,8.26v-.13h-12.32v.29c0,.13-.39,.39-.97,.62l2.56,1.04h9.04l1.68-1.82Zm-12.32-4.8v3.73h1.98v-3.73h-1.98Zm10.92,9.69v-2.17h-9.53v2.17h9.53Zm-9.53,3.14h9.53v-2.24h-9.53v2.24Zm9.53,3.18v-2.27h-9.53v2.27h9.53Zm-3.79-19.48h-2.01v2.56h2.01v-2.56Zm0,7.19v-3.73h-2.01v3.73h2.01Zm.13,14.29c15.33,.81,8.78,7.62,5.8,4.73-.97-1.36-2.85-3.08-5.93-4.31l.13-.42Zm3.01-18.02v3.73h2.04v-3.73h-2.04Z"/><path class="cls-1" d="M252.72,55.2c1.04,.42,1.26,.91,1.26,1.65,0,1.62-1.36,2.4-6.68,2.4h-3.14c-3.27,0-4.02-.71-4.02-3.37v-11.44h-3.63c-.62,7.84-3.53,13.26-13.03,15.82l-.16-.39c6.84-3.63,8.52-8.75,8.75-15.43h-8.26l-.26-.91h13.03v-6.35h-5.41c-1.49,2.37-3.27,4.25-5.32,5.64l-.39-.29c1.81-2.95,3.47-7.45,4.15-12.09l5.09,1.43c-.1,.42-.52,.71-1.23,.68-.52,1.33-1.1,2.59-1.75,3.73h4.86v-6.51l5.15,.45c-.07,.45-.32,.78-1.2,.94v5.12h4.86l2.11-2.63s2.4,1.72,3.86,3.05c-.1,.32-.42,.49-.88,.49h-9.95v6.35h7l2.2-2.85s2.43,1.91,3.92,3.24c-.1,.36-.45,.52-.94,.52h-8.75v10.4c0,.52,.16,.68,1.1,.68h2.66c.94,0,1.78,0,2.17-.03,.45-.03,.62-.16,.84-.52,.32-.62,.84-2.43,1.52-4.67h.36l.1,4.89Z"/><path class="cls-1" d="M277.26,30.11s2.2,1.81,3.53,3.05c-.1,.36-.42,.52-.91,.52h-10.27l4.28,1.13c-.1,.36-.45,.65-1.13,.65-1.62,1.69-4.25,3.69-6.51,5.06,2.37-.1,6-.29,9.75-.55-.58-1.39-1.46-2.72-2.37-3.69l.32-.23c9.27,2.66,6.16,9.72,2.85,7-.03-.75-.19-1.49-.49-2.24-1.72,.55-4.05,1.3-6.68,2.04l4.67,.39c-.06,.45-.29,.75-1.1,.88v3.53h1.62l1.88-2.66s2.17,1.81,3.37,3.08c-.07,.36-.42,.52-.84,.52h-6.03v4.96c2.33-.36,4.86-.75,7.39-1.13l.1,.42c-3.21,1.49-8.04,3.4-15.23,5.87-.19,.42-.55,.71-.94,.81l-1.85-4.57c1.46-.13,3.86-.45,6.84-.88v-5.48h-5.96l-.26-.94h6.22v-4.76c-1.1,.32-2.27,.65-3.5,.97-.23,.39-.49,.68-.78,.81l-1.82-4.28s.75-.13,1.04-.32c1.62-1.1,3.73-4.47,4.47-6.38h-5.74l-.26-.94h12.38l1.94-2.63Zm7.81,21.84c0,.32-1.52,1-2.82,1h-.65v-20.45l4.63,.45c-.06,.45-.32,.78-1.17,.91v18.08Zm7.68-21.36c-.06,.49-.39,.81-1.17,.94v24.31c0,2.53-.58,4.02-4.86,4.38-.1-1.13-.29-2.01-.81-2.56-.55-.58-1.3-.97-2.95-1.26v-.45s3.53,.23,4.28,.23c.55,0,.71-.19,.71-.62V30.15l4.8,.45Z"/><path class="cls-1" d="M330.29,55.2c1.04,.42,1.26,.91,1.26,1.65,0,1.62-1.36,2.4-6.68,2.4h-3.14c-3.27,0-4.02-.71-4.02-3.37v-11.44h-3.63c-.62,7.84-3.53,13.26-13.03,15.82l-.16-.39c6.84-3.63,8.52-8.75,8.75-15.43h-8.26l-.26-.91h13.03v-6.35h-5.41c-1.49,2.37-3.27,4.25-5.32,5.64l-.39-.29c1.81-2.95,3.47-7.45,4.15-12.09l5.09,1.43c-.1,.42-.52,.71-1.23,.68-.52,1.33-1.1,2.59-1.75,3.73h4.86v-6.51l5.15,.45c-.07,.45-.32,.78-1.2,.94v5.12h4.86l2.11-2.63s2.4,1.72,3.86,3.05c-.1,.32-.42,.49-.88,.49h-9.95v6.35h7l2.2-2.85s2.43,1.91,3.92,3.24c-.1,.36-.45,.52-.94,.52h-8.75v10.4c0,.52,.16,.68,1.1,.68h2.66c.94,0,1.78,0,2.17-.03,.45-.03,.62-.16,.84-.52,.32-.62,.84-2.43,1.52-4.67h.36l.1,4.89Z"/><path class="cls-1" d="M351.38,46.06c-.23,.26-.52,.36-1.2,.42-.78,2.33-2.37,4.86-4.47,6.84,.2,.06,.36,.16,.58,.32,2.53,2.01,6.48,2.4,13.77,2.4,3.89,0,7-.03,10.86-.23v.36c-1.56,.32-2.43,1.72-2.62,3.18h-9.53c-7.32,0-10.14-1.13-12.87-4.54-.49-.62-.84-.52-1.1,.07-.49,.97-1.13,2.59-1.75,4.18,.1,.29,0,.49-.23,.65l-2.59-3.63c1.33-.75,3.27-2.2,4.31-2.69,1.07-2.01,1.91-4.76,2.27-7.13h-1.91l-1.07,1.04-2.75-1.91c.29-.23,.75-.45,1.23-.62,.88-1.56,2.01-3.82,2.72-5.44h-3.95l-.29-.94h4.21l1.49-1.49,3.05,2.69c-.29,.29-.91,.45-1.59,.52-.71,1.43-1.85,3.63-2.75,5.22h1.43l1.75-1.72,3.01,2.46Zm-9.33-15.78c8.46,1.3,5.35,7.62,2.11,5.25-.19-1.78-1.3-3.79-2.4-5.06l.29-.19Zm17.18,8.62c-1.46,.62-4.25,1.75-7.26,2.85-.23,.29-.52,.45-.78,.58l-1.33-2.92c.68-.42,.78-.68,.78-1.3v-8.04l3.53,1.39h1.88l1.36-1.43,2.88,2.17c-.16,.19-.55,.42-1.1,.52v3.4c-.03,.23-1.43,.88-2.37,.88h-.49v-.94h-2.62v2.82c1.59-.13,3.53-.29,5.48-.49l.03,.49Zm7.68,7.26s2.2,1.59,3.53,2.75c-.1,.36-.42,.52-.88,.52h-19.41l-.26-.94h4.67v-3.31h-2.98l-.26-.91h3.24v-3.27l4.25,.39c-.03,.36-.23,.62-.88,.75v2.14h3.05v-3.27l4.25,.39c-.03,.39-.23,.62-.88,.75v2.14h.07l1.52-1.98s1.78,1.39,2.88,2.37c-.06,.36-.39,.52-.84,.52h-3.63v3.31h.68l1.88-2.33Zm-16.85,8.72c2.07-1.33,4.12-3.66,4.99-5.35l4.44,1.98c-.16,.39-.68,.58-1.65,.49-1.65,1.3-4.57,2.59-7.55,3.24l-.23-.36Zm6.29-19.71v-2.75h-2.62v2.75h2.62Zm1.59,13.32h3.05v-3.31h-3.05v3.31Zm5.25-7.78c-2.46,0-2.82-.62-2.82-2.43v-8.17l3.44,1.36h1.75l1.36-1.46,2.95,2.2c-.16,.19-.55,.42-1.07,.55v3.27c-.03,.26-1.49,.88-2.46,.88h-.49v-.84h-2.46v1.72c0,.42,.1,.52,.71,.52h3.01c.19,0,.49-.03,.68-.03,.19-.03,.52-.1,.71-.16h.29l.16,.03c.81,.36,1.1,.58,1.1,1.07,0,1.1-1.13,1.49-4.8,1.49h-2.07Zm-2.56,9.24c13.84,1.36,7.55,7.52,4.86,4.7-.78-1.3-2.5-2.98-5.06-4.31l.19-.39Zm2.75-17.53v2.75h2.46v-2.75h-2.46Z"/></g><path class="cls-1" d="M401,91H0V0H401V91ZM1,90H400V1H1V90Z"/></g></svg>