<?xml version="1.0" encoding="UTF-8"?><svg id="_層_2" xmlns="http://www.w3.org/2000/svg" viewBox="0 0 122.59 29.33"><defs><style>.cls-1{fill:#fff;}</style></defs><g id="_層_1-2"><g><g><path class="cls-1" d="M10.12,18.43H1.09v-2.07H12.64c1.03-1.18,2.92-3.5,3.55-4.96l.37-.86H4.66c1.54,.38,3.23,.57,4.6,1.53,.83,.6,1.17,1.14,1.17,2.32,0,.99-1.17,1.78-2.06,1.78-1.43,0-1.52-.41-1.94-1.68-.2-.6-.63-1.59-.94-2.13-.51-.86-.69-.92-1.46-1.53l.29-.29H.06v-2H10.21v-2.99H1.32V3.56H10.21V.64h4.32V3.56h9.12v2H14.53v2.99h10.07v2h-7.26l4.12,.86c-1.63,2.42-4.12,3.94-6.63,4.96h8.72v2.07H14.36v3.08h10.1l-.03,2.07H14.36v5.5h-4.23v-5.5H0v-2.07H10.12v-3.08Z"/><path class="cls-1" d="M34.2,13.16c.97,.38,1.94,.41,2.63,1.33,.2,.29,.43,.67,.43,1.05,0,.92-.69,1.97-1.4,1.87-1.14-.16-1.06-1.56-1.26-2.57-.06-.38-.2-.64-.4-.95v15h-3.97V15.86c-.89,.51-1.74,1.05-2.66,1.49l-.29-.29c.2-.25,.43-.51,.66-.73,1.43-1.56,2.95-4.61,3.72-6.64h-4.38v-1.97h5.03l1.23-1.37,4.29,.99-1.37,1.24c-.66,1.49-1.57,2.73-2.49,4.04h.23v.54ZM29.65,.67c1.32,.13,4.52-.13,5.32,1.14,.26,.38,.49,.92,.49,1.43,0,1.21-.86,2.29-2.2,2.22-1.32-.03-1.63-.7-2.03-1.91-.17-.51-.31-.99-.54-1.46-.26-.51-.71-.89-1.2-1.14l.17-.29Zm22.59,.99V3.69h-15.56V1.65h15.56Zm-10.9,13.35h6.21l.94-1.3,4.35,.99-1.03,1.24v12.9h-4.15v-1.14h-6.32v1.21h-3.95V14.21h3.95v.79Zm.74-10.01v.83h4.95l1.03-1.18,3.95,.92-1,1.11v6.39h-3.83v-.79h-5.09v.86h-3.95V4.99h3.95Zm.6,15.38v-3.34h-1.34v3.34h1.34Zm0,2.1h-1.34v3.18h1.34v-3.18Zm4.49-12.27v-2.45h-5.09v2.45h5.09Zm.49,10.17v-3.34h-1.57v3.34h1.57Zm0,5.28v-3.18h-1.57v3.18h1.57Z"/><path class="cls-1" d="M62.06,28.6v-8.8h-1.43c-.06,1.05-.03,2.13-.17,3.18-.17,1.49-.97,2.89-2,3.85-.97,.86-1.97,1.68-2.95,2.51l-.46-.22c.46-.73,1.17-1.91,1.43-2.76,.6-2.1,.63-4.35,.69-6.55h-1.52v-2.03h6.41v-2.29h-2.97l-1.03,.95-3-1.94,1.32-.95v-4.67h3.66v4.58h2.03v-5.34h4V28.6h-4Zm12.41-23.2v2.22h-4.09v-2.22h-5.66v2.29h-4.09v-2.29h-5.23V3.37h5.23V.41h4.09V3.37h5.66V.41h4.09V3.37h5.41v2.03h-5.41Zm.74,9.98v10.55h2.66v2.03h-9.55v-2.03h2.77V15.38h-4.12v-2h4.12v-5.15h4.12v5.15h4.18v2h-4.18Z"/><path class="cls-1" d="M102.33,1.46l1.29-1.46,4.03,1.24-1.34,1.11V29.02h-3.83v-1.37h-15.76v1.37h-3.86V.48h3.86v.99h15.61Zm-11.12,16.24h-2.43v-6.74h3.26v.7h5.26l1.03-1.02,3.43,.76-1.23,1.11v4.99h-.63l2.34,.83c-1.2,.73-2.46,1.33-3.69,1.97,1,.44,2.86,1.14,2.86,2.67,0,.86-.74,1.18-1.4,1.18-1.97,0-2.75-2.57-4.52-3.72-.66-.41-1.34-.73-2.09-.99l.11-.19c1.14,.13,2.29,.32,3.43,.57,.57-.73,1.17-1.49,1.69-2.32h-1.26v-.83h-5.35v.51l3.98-.03c-.94,.79-1.92,1.53-2.92,2.22v5.43h-2.97v-4.07c-1.12,.45-2.29,.76-3.4,1.18v3.81h15.76V3.34h-15.76V21.29c1.54-1.05,3.2-2.1,4.49-3.59Zm1.74-9.25v-1.3h-4.46v-1.78h4.46v-1.37h3.37v1.37h4.95v1.78h-4.95v1.3h5.61v1.81h-14.9v-1.81h5.92Zm4.46,6.51v-1.65h-5.38v1.65h5.38Z"/></g><path class="cls-1" d="M119.8,27.08c-1.14,1.21-2.61,1.67-4.14,1.72-1.21,.03-2.3-.24-3.19-.83-.94-.62-1.65-1.61-2.03-2.96-.27-.97-.36-1.99-.34-3.04h3.65c-.05,.91-.07,2.37,.1,3.15,.12,.65,.41,1.24,1.02,1.61,.46,.3,1.19,.32,1.69,.03,.58-.35,.9-1.08,1.06-1.75,.41-1.72,.56-4.46-.07-6.05-.27-.67-.77-1.08-1.33-1.21-.56-.16-1.11-.08-1.57,.24-.36,.24-.65,.64-.8,1.13h-3.46l.92-10.59h9.8v1.8h-6.39l-.53,5.91c.87-.81,2.03-1.08,3.17-.89,1.04,.16,2.03,.7,2.73,1.53,1.19,1.45,1.6,3.31,1.52,5.27-.05,1.88-.58,3.58-1.81,4.92Z"/><g><path class="cls-1" d="M114.3,5.75V2.38c0-.31-.09-.54-.23-.67-.16-.14-.4-.16-.69-.04-.31,.12-.58,.32-.83,.55v3.53h-1.07V1.1h1.07v.48c.35-.29,.83-.49,1.3-.54,.47-.04,.85,.04,1.12,.3,.26,.24,.4,.62,.4,1.15v3.26h-1.07Z"/><path class="cls-1" d="M119.75,4.96c-.31,.44-.72,.69-1.18,.79-.43,.1-.99,.06-1.4-.13-.45-.22-.79-.68-.98-1.19-.16-.45-.2-.97-.12-1.46,.09-.58,.35-1.12,.77-1.48,.31-.27,.72-.42,1.14-.45,.4-.04,.8,.04,1.12,.24,.47,.29,.8,.75,.96,1.31,.1,.34,.14,.7,.11,1.07-.02,.48-.17,.94-.43,1.3Zm-1.29-3.34c-.2-.1-.44-.11-.68,.03-.25,.13-.41,.37-.51,.63-.25,.62-.24,1.74,0,2.34,.12,.3,.32,.52,.55,.61,.22,.09,.45,.07,.65-.03,.22-.11,.42-.32,.5-.66,.18-.7,.23-1.58,.02-2.28-.1-.29-.28-.53-.52-.63Z"/><path class="cls-1" d="M122.22,5.62c-.28,.2-.66,.16-.91-.07-.21-.18-.31-.44-.3-.72,0-.33,.16-.59,.42-.75,.27-.16,.59-.12,.83,.07,.22,.17,.33,.41,.33,.7,0,.31-.13,.61-.37,.77Z"/></g></g></g></svg>