<?xml version="1.0" encoding="UTF-8"?><svg id="_層_2" xmlns="http://www.w3.org/2000/svg" viewBox="0 0 545.06 46.23"><defs><style>.cls-1{fill:#d2c7a8;}</style></defs><g id="_層_1-2"><g><path class="cls-1" d="M27.79,16.95c-.14,.43-.53,.77-1.49,.91v26.83c-.1,.38-3.22,1.44-5.76,1.44h-1.34V22.61C14.06,28.42,7.63,33.51,.29,37.06l-.29-.38C9.55,28.8,17.47,16.71,19.92,6.82H1.01l-.38-1.34H34.37L38.36,.43s4.46,3.36,7.15,5.62c-.14,.53-.67,.77-1.44,.77h-14.93c-1.2,2.98-2.78,6-4.66,8.88l3.31,1.25Zm0,2.11c22.75,3.22,19.44,18.05,11.9,14.35-2.54-4.94-7.78-10.51-12.29-14.02l.38-.34Z"/><path class="cls-1" d="M84.6,36.19c2.02,.82,2.64,1.68,2.64,2.98,0,3.12-2.74,4.51-12.62,4.51h-5.57c-5.52,0-7.73-.86-8.16-4.8-3.36,1.92-7.1,3.6-11.28,4.99l-.38-.53c4.37-2.3,8.21-5.04,11.62-8.06V9.74l8.69,.82c-.05,.62-.48,1.15-1.63,1.3v15.94c6.19-7.78,10.13-16.46,12.39-24.39l8.93,3.12c-.24,.58-.72,.96-2.02,.91-3.7,9.41-9.55,19.2-19.3,26.79v1.15c0,1.1,.53,1.44,2.3,1.44h5.18c1.54,0,2.98,0,3.84-.05,.77-.05,1.34-.24,1.82-.77,.72-.91,1.73-3.22,2.88-6.29h.48l.19,6.48Zm-28.27-19.73c3.98,7.58,3.22,13.11,.82,15.99-1.78,2.16-4.99,1.82-6.34-.34-1.15-2.02-.38-3.98,1.34-5.28,1.82-1.63,3.98-5.81,3.7-10.32l.48-.05ZM67.56,1.44c15.51,4.18,8.93,16.32,2.88,10.99-.1-3.79-1.54-7.78-3.26-10.75l.38-.24Zm16.47,16.23c16.61,6.14,9.27,19.97,2.59,13.49,.14-4.56-1.15-9.36-3.02-13.25l.43-.24Z"/><path class="cls-1" d="M137.07,1.97s3.41,2.59,5.42,4.42c-.14,.53-.62,.77-1.34,.77h-14.21c-2.45,2.3-5.23,3.89-8.16,4.94l-.48-.38c.91-1.25,1.78-2.83,2.54-4.61-.14,.05-.29,.05-.48,.05h-12.19c-2.93,4.03-6.48,6.96-10.23,8.88l-.53-.38c2.45-3.7,4.8-9.55,5.95-15.41l8.83,2.45c-.14,.62-.77,1.06-1.87,1.06-.38,.72-.82,1.39-1.25,2.06h4.99l2.69-3.7s2.69,2.21,4.51,3.94c.72-1.87,1.34-3.89,1.78-5.9l8.45,3.26c-.24,.58-.91,.96-2.02,.86-.38,.53-.82,1.06-1.25,1.54h5.86l2.98-3.84Zm-.43,24s3.5,2.83,5.52,4.75c-.1,.53-.62,.77-1.3,.77h-10.94v7.2c0,4.56-1.01,6.91-8.11,7.54-.14-2.16-.34-3.65-1.01-4.7-.72-.96-1.54-1.68-3.84-2.11v-.58s4.42,.24,5.28,.24c.62,0,.82-.14,.82-.62v-6.96h-23.57l-.38-1.34h23.95v-4.8l8.45,.67c-.1,.72-.58,1.1-1.58,1.25v2.88h3.65l3.07-4.18Zm-34.9-9.17h14.64v-4.51l8.06,.67c-.05,.53-.29,.91-1.34,1.1v2.74h8.4l2.83-3.79s3.26,2.59,5.23,4.37c-.14,.53-.62,.77-1.34,.77h-15.12v5.28h6.19l2.98-3.94s3.41,2.69,5.38,4.51c-.1,.53-.62,.77-1.3,.77h-32.35l-.38-1.34h12.77v-5.28h-14.26l-.38-1.34Zm5.14,15.31c14.31,0,9.07,11.38,3.22,7.34-.24-2.59-1.78-5.42-3.55-7.06l.34-.29Zm2.4-24.1c11.23,.82,5.86,9.02,1.39,5.47,0-1.87-.91-3.98-1.78-5.23l.38-.24Zm17.76,0c11.76,.14,6.43,9.07,1.63,5.47,0-1.92-.96-4.03-2.02-5.23l.38-.24Z"/><path class="cls-1" d="M171.12,21.41c3.84,6.82,11.42,11.47,18.87,13.39l-.1,.58c-2.69,.67-4.8,2.98-5.66,6.38-7.34-4.03-11.52-10.51-14.02-20.31v22.27c0,.67-3.07,2.4-5.76,2.4h-1.34V29.33c-4.56,5.62-10.95,10.13-18.87,13.35l-.38-.48c7.25-5.14,12.82-13.25,15.65-20.79h-14.69l-.38-1.34h18.67V11.23h-14.21l-.38-1.34h14.59V.58l8.88,.86c-.1,.67-.43,1.15-1.78,1.34v7.1h5.33l3.65-4.56s4.13,3.02,6.62,5.14c-.14,.53-.72,.77-1.39,.77h-14.21v8.83h8.45l3.79-4.75s4.27,3.17,6.91,5.33c-.14,.53-.72,.77-1.44,.77h-16.8Z"/><path class="cls-1" d="M230.47,13.54c-.14,.62-.72,1.06-1.82,1.1-.38,1.15-.82,2.26-1.34,3.26,11.47,2.78,6.62,12.19,1.25,8.4-.38-2.06-1.34-4.22-2.45-6.1-1.68,2.69-3.74,4.75-6.24,6.29,4.08,5.23,10.37,8.79,16.8,10.32l-.1,.58c-2.54,.62-4.56,2.83-5.33,6.14-7.39-3.79-11.57-9.89-14.06-19.35v19.54c0,.72-3.07,2.45-5.71,2.45h-1.34v-13.06c-4.75,4.37-11.33,8.31-18.63,10.56l-.34-.58c8.3-4.51,15.75-13.44,18.96-22.56V10.13h-17.91l-.38-1.34h18.29V.82l8.83,.86c-.1,.67-.43,1.15-1.78,1.34v5.76h8.4l3.79-4.66s4.22,3.12,6.82,5.23c-.14,.53-.72,.77-1.44,.77h-17.57v11.9c.53,1.2,1.2,2.35,1.92,3.41,1.78-3.75,2.88-8.69,3.07-13.78l8.3,1.87Zm-22.99,.43c-.19,.62-.82,1.06-1.87,1.06-.48,1.2-.96,2.3-1.49,3.36,8.64,3.02,3.02,10.22-1.3,6.29,0-1.1-.19-2.26-.48-3.36-2.35,3.5-5.23,6.05-8.64,7.87l-.53-.38c2.98-4.13,5.42-10.37,6.24-17.09l8.06,2.26Z"/><path class="cls-1" d="M297.86,38.4c1.44,.77,1.68,1.54,1.68,2.83,0,2.5-2.02,3.94-7.54,3.94h-2.69c-4.61,0-5.18-1.3-5.18-5.47v-11.81h-1.39c-.96,10.08-6.62,15.84-20.4,18.19l-.19-.53c8.98-3.46,12.34-8.35,13.2-15.36-.58,.1-1.2,.19-1.82,.19h-1.01V6c-.24,.24-.62,.34-1.1,.34h-5.71v11.81l2.26-3.79s2.88,2.98,4.42,4.85c-.14,.53-.62,.77-1.3,.77h-5.38v10.71c2.06-.53,4.18-1.1,6.29-1.68l.1,.48c-2.93,2.4-7.83,6.05-15.03,10.46-.19,.62-.72,1.2-1.34,1.39l-2.83-7.63c1.3-.24,3.46-.72,6.1-1.34v-12.38h-4.75l-.38-1.34h5.14V6.34h-4.99l-.38-1.34h10.22l3.22-4.51s3.36,2.83,5.47,4.85V1.39l6.96,2.74h9.02l3.17-3.55,6.43,4.99c-.34,.43-1.01,.91-2.11,1.15V27.7c-.1,.34-2.79,1.44-5.04,1.63v8.64c0,.53,.1,.72,.72,.72h2.35c.43,0,.62-.1,.91-.58,.48-.77,1.3-2.93,2.3-5.71h.48l.14,6Zm-18.63-32.93v5.91h9.79V5.47h-9.79Zm9.79,13.49v-6.24h-9.79v6.24h9.79Zm-9.79,1.34v6.24h9.79v-6.24h-9.79Z"/><path class="cls-1" d="M318.55,22.37c-.19,.48-.62,.77-1.54,.96v20.83c-.1,.48-2.98,1.82-5.71,1.82h-1.34V28.18c-2.21,1.73-4.66,3.26-7.34,4.61l-.38-.43c6.1-5.42,10.37-12.96,13.2-20.35h-11.67l-.38-1.34h12.53c1.3-3.6,2.21-7.1,2.83-10.27l9.7,2.45c-.14,.58-.58,1.01-1.82,1.1-.77,2.16-1.73,4.46-2.83,6.72h12.91l3.89-4.94s4.37,3.31,7.01,5.52c-.14,.53-.67,.77-1.39,.77h-23.09c-1.73,3.31-3.84,6.62-6.43,9.7l1.87,.67Zm22.85,14.5s4.13,3.12,6.67,5.23c-.14,.53-.72,.77-1.44,.77h-28.85l-.38-1.34h9.79v-14.74h-8.21l-.38-1.34h8.59V14.06l8.59,.72c-.05,.62-.38,1.06-1.54,1.25v9.41h1.3l3.41-4.32s3.84,2.88,6.14,4.9c-.1,.53-.67,.77-1.34,.77h-9.5v14.74h3.46l3.7-4.66Z"/><path class="cls-1" d="M356.75,31.44c2.16,5.04,2.11,8.88,.62,10.9-1.1,1.44-4.03,1.25-4.99-.72-.82-1.73,.05-3.41,1.54-4.42,1.01-1.06,2.54-3.65,2.21-5.76h.62Zm7.92-11.42c11.57,4.13,6.29,12.82,1.92,8.78-.05-.82-.14-1.63-.29-2.45-2.54,1.25-6.29,3.07-10.51,4.8-.38,.34-.77,.58-1.15,.72l-2.06-6.48s1.3-.24,1.82-.62c2.26-1.54,5.04-4.8,7.39-8.21-1.54,.77-3.41,1.68-5.38,2.54-.38,.67-.86,1.1-1.39,1.34l-2.69-6.38s1.1-.29,1.54-.62c2.16-2.16,5.04-9.02,5.76-12.77l7.39,3.6c-.19,.43-.77,.77-1.63,.67-2.16,2.98-5.81,6.77-9.03,9.22,2.02,0,4.51,0,7.06-.05,1.2-1.97,2.21-3.89,2.78-5.38l6.38,4.56c-.24,.38-.91,.67-1.82,.43-2.93,3.6-8.69,8.64-13.73,11.91,2.45-.14,5.67-.34,8.93-.53-.43-1.78-1.15-3.46-1.78-4.85l.48-.24Zm-3.98,10.94c9.36,5.91,3.12,13.59-.43,9.03,.67-2.93,.48-6.34-.14-8.83l.58-.19Zm4.71-.96c10.37,4.22,4.99,12.19,1.1,8.26,.24-2.74-.58-5.9-1.63-8.02l.53-.24Zm30,8.26c1.92,.72,2.45,1.44,2.45,2.64,0,2.78-2.59,3.89-12.34,3.89h-5.9c-5.86,0-7.58-.96-7.58-5.57V18.67c-1.15,.62-2.35,1.15-3.6,1.63l-.29-.48c4.8-3.94,7.68-9.6,8.64-15.07h-6l-.43-1.34h17.71l3.02-2.83,5.33,4.32c-.34,.43-.91,.72-1.87,.86-.43,6.53-1.25,9.5-3.12,11.04l5.14,3.84c-.24,.29-.77,.67-1.54,.82v10.99c-.05,.34-3.22,1.44-5.28,1.44h-1.1v-2.59h-10.18v6.38c0,.91,.38,1.2,2.16,1.2h5.62c1.73,0,3.41-.05,4.27-.1,.77-.05,1.25-.19,1.68-.62,.62-.72,1.54-2.54,2.54-5.09h.48l.19,5.18Zm-10.71-33.51c-1.82,5.18-5.52,9.55-10.61,12.77l4.99,1.82h9.12l1.54-1.63c-1.2,.43-2.59,.62-4.42,.62,0-1.63-.1-2.83-.72-3.6-.62-.82-1.49-1.34-3.02-1.73v-.58c1.15,.1,3.12,.19,3.94,.19,.67,0,1.01-.05,1.3-.29,.77-.58,1.3-2.98,1.63-7.58h-3.75Zm-6.24,25.2h2.4v-9.26h-2.4v9.26Zm10.18,0v-9.26h-2.3v9.26h2.3Z"/><path class="cls-1" d="M417.51,36.58c3.07-.24,6.38-.58,9.65-.91l.05,.58c-4.32,2.02-10.99,4.66-21.27,8.11-.34,.58-.91,1.01-1.49,1.15l-3.02-7.68c2.02-.1,5.33-.34,9.36-.62v-6.19h-6.58l-.38-1.34h6.96v-5.81h-7.68l-.38-1.34h12.77c.53-2.45,1.01-5.9,1.25-8.4h-9.5c10.51,3.41,4.22,11.38-.1,7.06,.24-2.45-.43-5.14-1.25-7.06h-4.22l-.38-1.34h7.06v-2.54c-.91,1.54-3.07,2.06-4.9,.24,.14-2.78-.72-5.95-1.82-8.16l.48-.24c3.55,1.2,5.42,2.88,6.24,4.46V.58l6.19,.58c-.1,.48-.34,.82-1.15,.96V12.77h1.49V.58l6.38,.58c-.05,.53-.38,.91-1.3,1.1v7.3c.67-2.21,1.49-5.09,2.16-7.68l7.44,2.98c-.24,.58-.86,.96-1.92,.86-2.4,2.06-5.18,4.27-7.58,5.71l-.1-.05v1.39h1.63l2.83-3.7s3.22,2.5,5.14,4.27c-.14,.53-.62,.77-1.3,.77h-9.7l6,1.3c-.14,.58-.72,1.01-1.78,1.06-1.49,1.73-3.94,4.18-6.19,6.05h2.83l2.69-3.41s3.02,2.35,4.9,3.98c-.14,.53-.62,.77-1.3,.77h-8.21v5.81h.58l2.88-3.79s3.26,2.59,5.23,4.37c-.14,.53-.62,.77-1.3,.77h-7.39v5.57Zm26.98-26.31s2.69,2.88,4.03,4.66c-.1,.53-.58,.77-1.25,.77h-4.8v22.95c0,4.46-.96,6.87-8.16,7.49-.14-2.11-.38-3.65-1.2-4.66-.77-1.01-1.78-1.73-4.27-2.16v-.62s4.99,.29,6.05,.29c.77,0,1.01-.24,1.01-.82V15.7h-9.6l-.38-1.34h9.98V1.06l8.35,.77c-.1,.72-.58,1.2-1.78,1.39V13.83l2.02-3.55Zm-17.19,8.5c13.78,5.18,6.91,16.13,1.54,10.66,.19-3.55-.72-7.44-1.97-10.46l.43-.19Z"/><path class="cls-1" d="M462.33,14.02c-.19,.43-.58,.77-1.54,.96v29.33c-.05,.43-2.59,1.68-4.99,1.68h-1.15V20.98c-1.49,1.78-3.02,3.36-4.7,4.75l-.58-.34c3.17-6.24,6.19-15.84,7.44-24.91l8.88,1.68c-.14,.62-.67,1.1-1.82,1.2-1.15,3.55-2.5,6.77-4.03,9.74l2.5,.91Zm34.04,6.29c-.34,.43-.82,.53-1.78,.58-.82,.53-2.02,1.25-3.12,1.92,3.84,2.83,.96,7.49-2.54,5.28-.48-2.45-2.4-5.23-4.27-6.82l.43-.34c1.49,.1,2.79,.34,3.79,.67l.34-1.78h-22.03c.38,2.59-.29,4.51-1.49,5.33-1.3,.86-3.6,.43-4.22-1.39-.53-1.73,.48-3.07,2.02-3.79,1.01-.72,2.11-2.5,1.78-4.03h.67c.43,.91,.72,1.73,.96,2.54h1.06V5.47l6.96,2.59h.38c.05-.91,.1-2.06,.05-3.02h-10.46l-.38-1.34h21.41l3.31-3.7s3.7,2.5,6.05,4.27c-.14,.53-.67,.77-1.34,.77h-12.14c-1.49,1.1-3.22,2.26-4.71,3.02h5.57l2.93-3.02,5.71,4.27c-.29,.34-.86,.67-1.73,.86v7.63l2.06-2.06,4.75,4.56Zm-4.32,13.34c-.34,.48-.82,.62-1.97,.72-1.15,1.73-2.54,3.22-4.18,4.51,2.88,.24,6.1,.34,9.65,.29l-.05,.58c-2.3,.96-3.5,2.88-3.74,5.81-5.47-.48-9.65-1.34-12.91-2.74-4.42,1.68-9.65,2.69-15.79,3.26l-.19-.62c4.66-1.01,8.83-2.59,12.24-4.66-1.39-1.01-2.59-2.11-3.7-3.41-2.3,1.54-4.94,2.88-7.83,3.79l-.34-.38c2.3-1.87,4.32-4.32,5.86-6.77-.58-1.01-1.15-2.11-1.68-3.26l.48-.67c.53,1.01,1.2,1.87,1.92,2.69,.82-1.44,1.49-2.83,1.92-4.13l.38,.1c-1.06-.58-1.3-1.58-1.3-3.31v-5.14l6.34,.53c-.1,.62-.53,1.01-1.39,1.15v2.93c0,.48,.1,.62,1.15,.62h3.65c-.43-.05-.91-.24-1.39-.58-.24-1.68-1.34-3.7-2.3-4.8l.43-.29c7.78,.53,6.77,5.28,4.03,5.67h1.34c.48,0,.82-.1,1.1-.34,.38-.38,.96-1.34,1.54-2.64h.53l.19,2.64c1.3,.53,1.63,.96,1.63,1.73,0,1.97-1.87,2.3-8.21,2.3h-4.7l5.52,1.01c-.19,.62-.72,.96-2.26,1.06l-.48,.62h5.38l3.55-3.22,5.57,4.94Zm-22.32-12.91c1.39,4.13,.48,7.25-1.15,8.5-1.15,.82-3.26,.67-3.89-.86-.48-1.39,.29-2.59,1.58-3.31,1.2-.72,2.74-2.64,2.74-4.37l.72,.05Zm6.62,12.53c-.82,.82-1.73,1.68-2.69,2.45,1.58,.86,3.41,1.58,5.47,2.06,1.49-1.34,2.74-2.83,3.7-4.51h-6.48Zm-2.11-23.86v2.11h8.88v-2.11h-8.88Zm8.88,3.46h-8.88v2.16h8.88v-2.16Zm-8.88,5.62h8.88v-2.11h-8.88v2.11Z"/><path class="cls-1" d="M543.99,22.9c1.06,1.68,1.39,3.17,.72,4.32-1.39,2.16-4.13,1.54-5.81,.24-3.79-3.17-4.46-10.46-4.42-18.34h-2.11c-.24,2.69-.58,5.14-1.34,7.34,6.34,3.94,3.65,9.89-.82,7.73-.48-.91-1.06-1.92-1.78-2.93-1.82,2.3-4.46,4.22-8.35,5.86l-.43-.62c3.12-2.64,4.8-5.62,5.71-9.02-.53-.62-1.06-1.2-1.63-1.73-.29,1.15-1.63,1.68-4.46,1.78,.96,.72,2.35,1.78,3.36,2.64-.14,.53-.62,.77-1.25,.77h-6.34v2.35c2.11-.19,4.37-.34,6.58-.53l.05,.62c-3.79,1.49-9.36,3.46-17.57,6-.29,.62-.82,1.01-1.39,1.1l-2.54-6.34c1.82-.05,4.9-.19,8.64-.43v-2.78h-6.72l-.38-1.34h7.1v-3.46l4.66,.38c-.43-.62-.48-1.58-.48-2.98v-2.16h-2.4c-1.68,3.41-4.66,5.66-10.66,6.86l-.48-.62c3.12-1.39,4.42-3.65,4.94-6.24h-4.32l-.38-1.34h4.94v-.05h3.79v-3.74h-7.15l-.38-1.34h7.54V.53l7.58,.62c-.05,.58-.34,.96-1.34,1.1v2.64h1.39l2.59-3.12s2.98,2.11,4.85,3.7c-.14,.53-.62,.77-1.3,.77h-7.54v3.79h1.73l2.74-3.22s3.12,2.16,5.09,3.79c-.14,.53-.62,.77-1.3,.77h-4.56v1.44c0,.48,.1,.62,.43,.62h.82c.19,0,.72,0,.96-.05,.24-.05,.72-.1,1.06-.19h.43l.24,.1c.43,.14,.72,.34,.96,.53,1.01,.14,1.92,.34,2.74,.58,.24-1.68,.38-3.41,.43-5.28h-2.88l-.43-1.34h3.31c.05-2.26,.05-4.66,.05-7.25l7.78,.67c-.1,.67-.58,1.1-1.63,1.25-.05,1.87-.1,3.65-.19,5.33h1.54l2.93-3.02,5.47,4.13c-.29,.34-1.06,.62-1.78,.72-.34,4.42,.05,10.46,1.15,11.86,.29,.24,.53,.14,.72-.29,.48-.96,.96-2.35,1.39-3.79l.48,.1-.34,5.42Zm-7.73,5.62l5.66,4.66c-.38,.43-.91,.72-1.92,.86-.77,5.76-2.02,9.31-4.56,10.75-1.58,.91-3.5,1.39-6.62,1.39,.05-1.73-.19-3.26-1.1-4.22s-2.74-1.73-5.04-2.16v-.53c2.3,.19,5.95,.38,6.96,.38,.77,0,1.15-.1,1.54-.34,.86-.58,1.58-2.93,2.06-6.43h-9.17c-2.45,6.29-8.64,10.99-24.15,13.2l-.19-.58c10.75-3.07,15.31-7.58,17.09-12.62h-13.97l-.43-1.34h14.79c.38-1.54,.58-3.07,.62-4.66l9.07,1.2c-.14,.77-.67,1.2-1.82,1.25-.14,.77-.34,1.49-.53,2.21h8.4l3.31-3.02Zm-20.55-8.93l1.78-2.06h-.72c-.38,0-.72,0-1.01-.05-.19,.1-.38,.19-.72,.24v1.87h.67Z"/></g></g></svg>