<?xml version="1.0" encoding="UTF-8"?><svg id="_層_2" xmlns="http://www.w3.org/2000/svg" viewBox="0 0 606.51 44.46"><defs><style>.cls-1{fill:#3e3a39;}</style></defs><g id="_層_1-2"><g><path class="cls-1" d="M34.68,38.44l3.48-4.42s3.85,2.96,6.25,4.98c-.14,.52-.66,.75-1.36,.75H.38l-.38-1.32H34.68Zm-2.3-32.52l3.38-4.28s3.81,2.91,6.11,4.89c-.14,.52-.71,.75-1.36,.75H2.91l-.38-1.36h29.84Zm-3.57,15.46l3.29-4.09s3.71,2.77,5.97,4.7c-.14,.52-.66,.75-1.36,.75H6.06l-.38-1.36H28.81Z"/><path class="cls-1" d="M62.19,14.19c-.19,.42-.61,.75-1.5,.89v27.63c-.05,.42-2.3,1.6-4.42,1.6h-1.03V18.85c-2.07,2.4-4.32,4.46-6.72,6.2l-.56-.38c4.09-5.83,8.22-15.23,10.29-24.53l7.85,2.49c-.19,.61-.75,1.03-1.83,.99-1.41,3.52-3.05,6.67-4.84,9.54l2.77,1.03Zm29.14,24.2c1.74,2.73,1.97,4.09,1.22,4.89-2.07,2.21-6.02,.33-8.37-1.5-7.19-5.87-10.48-14.43-11.89-24.49l-9.59,1.13-.52-1.27,9.92-1.17c-.61-4.75-.8-9.82-.8-15.09l7.33,.89c-.09,.61-.52,1.17-1.69,1.36-.09,4.14,.05,8.27,.47,12.22l6.06-.71,2.77-4.28s3.85,2.11,6.3,3.76c-.09,.52-.56,.85-1.22,.94l-13.77,1.6c1.13,8.22,3.81,15.42,9.78,19.69,.75,.66,1.08,.66,1.55-.14,.8-1.22,2.11-3.76,3.01-5.83l.52,.09-1.08,7.9ZM80.38,1.79c12.6,.56,9.07,9.87,4.14,7-.71-2.35-2.73-5.08-4.51-6.67l.38-.33Z"/><path class="cls-1" d="M142.4,5.31c-.33,.38-.94,.8-1.93,.99v31.86c0,3.62-.99,5.69-7.66,6.3-.23-1.64-.56-2.82-1.46-3.62-1.03-.75-2.3-1.41-5.17-1.79v-.66s6.3,.42,7.66,.42c.94,0,1.22-.42,1.22-1.13V5.4h-27.21V42.3c0,.7-2.16,2.07-4.42,2.07h-.94V1.65l5.78,2.4h26.32l2.54-2.91,5.26,4.18Zm-14.24,2.58s3.29,2.49,5.26,4.14c-.14,.52-.66,.75-1.36,.75h-21.57l-.38-1.32h15.23l2.82-3.57Zm2.12,25.14c-.05,.38-2.63,1.46-4.32,1.46h-.89v-4.37h-7.52v3.9c0,.42-2.16,1.55-4.32,1.55h-.75V16.45l5.31,2.11h6.81l2.4-2.58,4.98,3.81c-.28,.33-.89,.7-1.69,.85v12.41Zm-5.22-4.23v-8.88h-7.52v8.88h7.52Z"/><path class="cls-1" d="M193.82,11.8c-.38,.42-.85,.52-1.83,.56-1.74,1.27-4.46,2.87-6.77,3.9l1.22,.89c-.23,.33-.85,.75-1.69,.89v8.27c-.05,.33-2.73,1.27-4.42,1.27h-.94v-1.79h-5.03v6.53h6.49l2.87-3.81s3.29,2.58,5.22,4.37c-.14,.52-.61,.75-1.27,.75h-13.3v7.57h10.72l2.91-3.9s3.29,2.68,5.26,4.51c-.14,.52-.61,.75-1.27,.75h-40.75l-.38-1.36h18.05v-7.57h-13.16l-.38-1.32h13.54v-6.53h-4.93v.99c0,.47-2.35,1.6-4.46,1.6h-.75V13.77l5.5,2.16h14.66l2.4-2.58,3.15,2.35c.47-1.32,.99-3.1,1.36-4.51h-28.81c.42,3.34-.85,5.69-2.58,6.58-1.6,.85-3.71,.33-4.28-1.5-.47-1.79,.66-3.05,2.21-3.71,1.55-.89,3.01-3.15,2.63-5.73l.66-.05c.52,1.13,.89,2.16,1.13,3.15h11.98V.14l7.28,.61c-.09,.56-.42,.99-1.6,1.22v7.94h2.77c1.13-2.63,2.35-6.3,3.01-8.88l7.8,2.11c-.23,.56-.8,.94-1.83,.89-1.93,1.69-4.98,4.09-7.8,5.87h7.24l3.01-3.01,5.17,4.89ZM157.49,1.18c12.5,1.93,8.04,11.23,3.24,7.75-.33-2.68-2.07-5.59-3.67-7.47l.42-.28Zm21.9,23.26v-7.14h-15.42v7.14h15.42Z"/><path class="cls-1" d="M210.39,18.56c2.07,0,3.71,1.65,3.71,3.71s-1.64,3.71-3.71,3.71-3.71-1.64-3.71-3.71,1.64-3.71,3.71-3.71Z"/><path class="cls-1" d="M233.12,11.7c-.99,.89-2.02,1.64-3.05,2.35l-.61-.47c2.4-3.15,4.7-8.27,6.02-13.39l5.12,1.83c-.33-.52-.71-.99-1.08-1.36l.42-.33c9.92,1.03,5.78,8.37,1.97,5.4-.05-.99-.42-2.07-.89-3.01-.33,.28-.85,.47-1.55,.42-.56,1.18-1.22,2.26-1.93,3.34l.85,.28h7.43l2.21-2.58s2.4,1.83,3.95,3.2c-.09,.52-.56,.75-1.22,.75h-5.5v3.99h.61l1.93-2.44s1.5,1.27,2.82,2.44c1.93-3.1,3.67-7.52,4.56-11.94l5.92,1.88c-.19,.61-.8,.99-1.74,.94-.56,1.22-1.18,2.35-1.83,3.38l.89,.38h8.27l2.16-2.63s2.49,1.83,4.04,3.24c-.14,.52-.56,.75-1.22,.75h-6.02v3.99h.89l1.97-2.54s2.26,1.79,3.62,3.15c-.09,.52-.52,.75-1.18,.75h-5.31v4.23h.89l2.02-2.54s2.21,1.79,3.62,3.1c-.14,.52-.56,.75-1.22,.75h-5.31v4.23h1.69l2.3-2.91s2.63,2.02,4.18,3.48c-.09,.52-.56,.75-1.22,.75h-14.76v.42c0,.38-1.46,1.46-3.9,1.46h-.85V11.7c-.85,.8-1.74,1.46-2.63,2.07l-.38-.28h-4.84v4.23h.61l1.93-2.4s2.16,1.69,3.48,2.96c-.14,.52-.56,.75-1.17,.75h-4.84v4.23h1.18l2.16-2.77s2.54,1.88,4.04,3.34c-.09,.52-.56,.75-1.22,.75h-13.63v.66c0,.33-1.46,1.41-3.81,1.41h-.85V11.7Zm35.06,17.72c-.33,.47-.89,.61-2.16,.66-2.3,2.58-5.03,4.79-8.22,6.63,5.17,1.13,10.86,1.64,16.45,1.79v.61c-2.4,.71-3.76,2.54-4.28,5.26-6.67-.89-12.78-2.35-17.91-4.84-6.3,2.58-13.72,4.14-21.81,4.75l-.23-.61c6.63-1.41,12.97-3.48,18.38-6.2-3.34-2.21-6.16-4.98-8.22-8.51h-8.08l-.42-1.36h28.34l3.43-2.87,4.75,4.7Zm-30.41-21.29v3.99h3.1v-3.99h-3.1Zm3.1,5.36h-3.1v4.23h3.1v-4.23Zm0,5.55h-3.1v4.23h3.1v-4.23Zm.47,9.92c2.68,2.77,6.49,4.84,10.9,6.3,2.96-1.88,5.45-3.95,7.38-6.3h-18.28Zm16.5-20.82v3.99h3.34v-3.99h-3.34Zm3.34,5.36h-3.34v4.23h3.34v-4.23Zm0,5.55h-3.34v4.23h3.34v-4.23Zm-.8-18.8c9.96,1.03,5.83,8.37,2.02,5.36-.09-1.83-1.22-3.9-2.4-5.08l.38-.28Z"/><path class="cls-1" d="M318.79,30.31s3.62,2.73,5.92,4.61c-.14,.52-.66,.75-1.36,.75h-17.95v7c0,.52-2.44,1.64-4.61,1.64h-1.13v-8.65h-18.47l-.38-1.32h18.85v-5.64h-7.71v1.46c0,.56-2.44,1.79-4.7,1.79h-.85V10.25l5.92,2.3h7.33V7.8h-17.01l-.38-1.36h17.39V.24l7.43,.71c-.09,.66-.42,1.17-1.69,1.36V6.44h8.79l3.24-3.95s3.67,2.68,5.92,4.56c-.14,.52-.66,.75-1.36,.75h-16.59v4.75h7.43l2.63-2.82,5.36,4.14c-.33,.38-.94,.75-1.88,.94v14.24c-.05,.38-2.77,1.55-4.7,1.55h-.94v-1.88h-7.9v5.64h10.1l3.29-4.04Zm-26.84-16.4v5.92h7.71v-5.92h-7.71Zm7.71,13.49v-6.2h-7.71v6.2h7.71Zm5.73-13.49v5.92h7.9v-5.92h-7.9Zm7.9,13.49v-6.2h-7.9v6.2h7.9Z"/><path class="cls-1" d="M342.57,14.19c-.14,.42-.56,.75-1.46,.89v27.59c-.09,.42-2.35,1.64-4.51,1.64h-1.03V19.6c-1.83,2.07-3.81,3.85-5.87,5.45l-.52-.38c3.85-5.88,7.9-15.27,9.92-24.49l7.85,2.44c-.24,.61-.85,.99-1.88,.99-1.36,3.52-3.01,6.81-4.84,9.73l2.35,.85Zm26.04,21.52s3.62,2.91,5.78,4.89c-.14,.52-.61,.75-1.32,.75h-30.74l-.38-1.36h16.4c1.83-7.57,3.57-17.91,4.32-25.19l7.85,1.88c-.19,.66-.71,1.08-1.83,1.13-1.88,6.06-5.45,15.09-9.45,22.18h6.16l3.2-4.28Zm-25.47-24.11h21.71l3.1-4.04s3.48,2.73,5.54,4.61c-.14,.52-.61,.75-1.27,.75h-28.71l-.38-1.32Zm3.81,4c14.99,14.43,6.72,26.51,3.05,20.4,0-5.17-.61-13.77-3.67-20.07l.61-.33Zm5.45-15.27c13.86,3.29,8.55,13.72,3.29,9.45-.24-3.24-1.93-6.77-3.67-9.16l.38-.28Z"/><path class="cls-1" d="M391.73,18.56c2.07,0,3.71,1.65,3.71,3.71s-1.64,3.71-3.71,3.71-3.71-1.64-3.71-3.71,1.64-3.71,3.71-3.71Z"/><path class="cls-1" d="M454.09,10.15c-.38,.42-.85,.52-1.79,.56-1.46,1.5-3.95,3.48-5.92,4.56l-.47-.28,.19-.85c-.33,.19-.75,.14-1.32-.28-1.88,.42-6.11,.94-9.31,1.08l-.23-.52c2.44-1.17,6.11-3.52,7.66-4.75h-8.65v10.57c0,.24-1.69,1.13-4.46,1.13h-.99V9.68h-11.7c.09,.66,.09,1.22,0,1.79,10.72-2.54,11.75,4.32,7.85,4.23-1.79-1.22-5.31-2.73-7.94-3.43-.38,1.69-1.32,2.87-2.44,3.43-1.55,.71-3.48,.23-4-1.41-.38-1.64,.66-2.82,2.07-3.43,1.5-.71,2.96-2.68,2.68-4.93l.71-.05c.38,.85,.66,1.69,.85,2.44h11.94v-3.52h-12.6l-.38-1.32h24.58l2.77-3.48s3.15,2.35,5.08,4.04c-.14,.52-.61,.75-1.27,.75h-12.74v3.52h12.27l2.68-2.77,4.89,4.61Zm-2.77,27.92c2.02,.85,2.21,.99,2.21,1.88,0,1.97-1.6,3.2-7.14,3.2h-10.71c-5.73,0-6.96-1.08-6.96-6.34v-2.35h-7.28v1.97c0,.42-2.44,1.6-4.61,1.6h-.8V19.97l1.36,.56-1.36-3.48c2.11-.14,7-.7,11.75-1.27l.09,.61c-1.88,1.08-4.75,2.58-8.69,4.46-.05,.09-.09,.19-.14,.28l2.73,1.08h19.69l1.65-1.79c-2.35-1.36-5.69-2.87-8.13-3.62l.28-.66c10.81-1.55,12.88,3.57,10.71,4.84l3.2,2.44c-.28,.38-.89,.8-1.83,.99v10.39c-.05,.42-2.68,1.5-4.51,1.5h-.94v-1.88h-7.8v2.63c0,1.55,.19,1.64,1.97,1.64h10.62c1.32,0,1.97,0,2.35-.47,.42-.47,.94-1.83,1.69-4.32h.56l.05,4.14Zm-29.89-14.48v4.04h7.28v-4.04h-7.28Zm7.28,9.54v-4.18h-7.28v4.18h7.28Zm5.36-9.54v4.04h7.8v-4.04h-7.8Zm7.8,9.54v-4.18h-7.8v4.18h7.8Zm4.23-19.08c.28-1.36,.52-3.01,.71-4.37h-3.71l3.01,4.37Z"/><path class="cls-1" d="M472.72,15.6c9.02,3.85,5.12,10.43,1.83,7.38-.05-1.93-.89-4.28-1.83-6.11v25.75c0,.52-2.12,1.69-4,1.69h-.99V25.19c-1.69,3.01-3.81,5.78-6.3,8.22l-.61-.56c3.24-5.4,5.22-12.69,6.3-19.69h-5.36l-.38-1.32h6.34V.09l6.67,.7c-.14,.7-.52,1.13-1.69,1.32V11.84h.52l2.26-3.48s2.63,2.4,4.14,4.04c-.14,.52-.61,.75-1.27,.75h-5.64v2.44Zm33.41,10.25c-.33,.38-.89,.61-1.79,.8-.14,7.57-.52,10.2-2.3,11.47-1.13,.89-2.63,1.27-4.75,1.27,0-1.41-.09-2.54-.61-3.2-.47-.66-1.22-1.08-2.44-1.41v-.61c.89,.05,2.49,.14,3.2,.14,.56,0,.89-.09,1.08-.28,.52-.56,.7-2.91,.85-8.13h-5.88v16.83c0,.28-1.55,1.36-4.14,1.36h-.94v-11.75c-3.2,3.9-7.47,7.05-12.78,9.49l-.42-.61c5.17-3.9,8.93-9.49,11.04-15.32h-2.73l-1.74,2.12-4.7-2.87c.42-.33,1.03-.75,1.64-1.03,.61-2.77,1.27-7.28,1.46-9.63l5.69,2.63h2.54v-6.77h-9.49l-.42-1.36h13.96c.85-2.63,1.88-6.25,2.44-8.79l7,2.3c-.19,.56-.8,.94-1.79,.85-1.69,1.55-4.23,3.81-6.53,5.64h3.85l2.4-2.54,4.93,3.71c-.23,.38-.89,.75-1.79,.94v7.9c-.05,.28-2.54,1.22-4.18,1.22h-.89v-1.79h-4.42v6.11h5.41l2.54-2.44,4.7,3.76ZM481.75,.38c11.7,2.59,6.96,11.33,2.59,7.66-.19-2.58-1.55-5.5-3.01-7.43l.42-.24Zm6.67,24.16v-6.11h-3.81c-.33,1.88-.75,4.23-1.18,6.11h4.98Zm5.08-7.43h4.42v-6.77h-4.42v6.77Z"/><path class="cls-1" d="M532.46,21.05l4.75,3.9c-.33,.42-.89,.71-1.88,.85-.42,10.29-1.36,14.8-3.67,16.54-1.41,1.13-3.2,1.64-5.5,1.64,0-1.5-.14-2.77-.75-3.48-.61-.71-1.79-1.27-3.43-1.65l.05-.66c1.41,.14,3.71,.28,4.61,.28,.7,0,1.08-.09,1.46-.42,1.08-.89,1.74-5.17,2.12-13.11h-7.33c-1.03,7.28-3.38,14.8-11.04,19.41l-.52-.61c5.83-6.25,6.63-16.36,6.81-25.14-.66,.28-1.5,.47-2.54,.47h-.89V1.27l5.59,2.16h8.69l2.44-2.68,5.12,3.9c-.28,.33-.94,.8-1.88,.94v11.47c-.05,.38-2.68,1.27-4.37,1.27h-.85v-1.93h-9.78v.99c0,.19-.28,.52-.85,.85l6.16,.56c-.09,.66-.52,1.13-1.6,1.27-.09,1.18-.23,2.35-.38,3.57h6.72l2.73-2.59Zm-12.78-16.31V15.09h9.78V4.75h-9.78Zm23.92,27.31c0,.42-2.21,1.41-4.18,1.41h-.94V4.18l6.86,.61c-.14,.66-.52,1.17-1.74,1.36v25.9Zm11.42-30.41c-.09,.7-.56,1.13-1.74,1.32V37.55c0,3.85-.85,6.02-7.24,6.63-.19-1.83-.42-3.1-1.17-3.95-.8-.85-1.93-1.46-4.42-1.88v-.66s5.22,.33,6.3,.33c.8,0,1.03-.23,1.03-.85V.94l7.24,.7Z"/><path class="cls-1" d="M600.87,37.79s3.29,2.58,5.31,4.37c-.14,.52-.66,.75-1.32,.75h-42.39l-.38-1.36h19.17v-6.2h-13.54l-.38-1.32h13.91v-4.61l7.24,.61c-.09,.61-.42,1.08-1.69,1.27v2.73h6.96l2.87-3.67s3.24,2.49,5.17,4.23c-.09,.52-.61,.75-1.27,.75h-13.72v6.2h11.09l2.96-3.76Zm-38.21-11.84c1.97-.09,5.22-.28,9.12-.56v-3.38h-7.66l-.38-1.36h8.04v-4.09h-2.77v1.18c0,.28-1.41,1.36-3.76,1.36h-.8V1.41l5.17,2.02h9.31l2.3-2.4,4.7,3.52c-.23,.33-.94,.75-1.79,.89v11.23c-.05,.23-1.18,.85-2.4,1.18,.8,.61,2.82,2.16,4.14,3.38-.09,.52-.56,.75-1.22,.75h-7.99v3.01c2.82-.24,5.87-.47,8.93-.75l.09,.7c-4.18,1.41-10.15,3.2-19.08,5.55-.28,.61-.8,.99-1.27,1.08l-2.68-5.64Zm6.34-21.2v4.51h2.77V4.75h-2.77Zm2.77,10.48v-4.61h-2.77v4.61h2.77Zm4.89-10.48v4.51h2.73V4.75h-2.73Zm2.73,5.87h-2.73v4.61h2.73v-4.61Zm-2.73,10.01h2.21l2.11-2.63c-.28,.05-.56,.09-.8,.09h-.8v-1.55h-2.73v4.09Zm9.35-15.88l-.42-1.32h12.31l2.73-2.63,4.61,4.37c-.42,.38-.94,.52-1.93,.56-1.74,1.03-4.61,2.4-7.05,3.38,1.46,1.41,1.46,3.15,.66,4.14h2.35l2.58-2.63,4.65,4.37c-.38,.38-.89,.52-1.83,.56-1.64,1.69-4.42,4.04-6.53,5.4l-.47-.28c.56-1.64,1.32-4.18,1.79-6.11h-3.05v10.29c0,3.38-.75,5.45-6.25,5.92-.05-1.46-.19-2.63-.75-3.29-.56-.71-1.41-1.22-3.43-1.55v-.66s3.76,.23,4.56,.23c.66,0,.85-.23,.85-.75V14.57h-6.16l-.42-1.32h8.55c-.99-2.26-3.29-4.7-5.17-6.06l.38-.38c2.91,.05,4.98,.61,6.39,1.36,.89-1.08,1.88-2.35,2.63-3.43h-11.56Z"/></g></g></svg>