<?xml version="1.0" encoding="UTF-8"?><svg id="_層_2" xmlns="http://www.w3.org/2000/svg" viewBox="0 0 396.48 45.94"><defs><style>.cls-1{fill:#41210d;}</style></defs><g id="_層_1-2"><g><path class="cls-1" d="M43.68,37.59c1.78,.72,2.16,1.54,2.16,2.83,0,2.74-2.26,4.08-10.32,4.08h-4.51c-5.47,0-6.62-1.15-6.62-5.62v-13.15h-4.22c-.77,9.36-2.93,16.56-19.83,20.02l-.34-.58c11.33-5.38,12.43-11.91,12.72-19.44H2.35l-.38-1.34H35.28l3.31-4.18s3.79,2.83,6.05,4.75c-.14,.53-.67,.77-1.34,.77h-12v11.42c0,.67,.24,.86,1.39,.86h6.48c.62-.05,.91-.19,1.3-.72,.62-.86,1.44-3.02,2.64-6.05h.43l.14,6.34ZM8.45,9.89c.58,3.79-.53,6.53-2.45,7.73-1.87,1.2-4.99,.34-5.81-2.21-.62-2.4,.77-4.18,2.74-5.09,1.54-.77,3.7-2.74,3.65-4.8h.53c.48,1.06,.82,2.06,1.06,3.02h14.45c-.62-.19-1.3-.48-1.92-.96,.05-2.69-1.1-5.47-2.98-7.06l.24-.24c12.62-.72,11.52,6.96,7.2,8.26h11.19l3.46-3.46,5.95,5.62c-.38,.43-.86,.58-1.87,.62-1.97,1.68-5.18,3.79-7.78,4.99l-.29-.29c.38-1.73,.72-4.22,.91-6.14H8.45Zm22.03,2.69s3.65,2.69,5.9,4.61c-.14,.53-.67,.77-1.34,.77H9.79l-.38-1.34H27.27l3.22-4.03Z"/><path class="cls-1" d="M86.39,25.44s4.08,3.07,6.53,5.14c-.14,.53-.67,.77-1.39,.77h-18.1c-1.58,6.91-6.05,11.76-24.29,14.45l-.24-.67c11.81-3.79,15.5-8.11,16.75-13.78h-14.69l-.38-1.34h15.31c.29-1.78,.38-3.75,.43-5.81l9.55,.62c-.1,.67-.58,1.2-1.68,1.34-.14,1.34-.29,2.64-.53,3.84h9.12l3.6-4.56Zm-19.59-3.02v-5.81h-12.48l-.38-1.34h12.87v-5.42h-14.98l-.38-1.34h10.8c-.34-.14-.67-.38-1.01-.62-.19-2.69-1.49-5.47-2.93-7.25l.34-.24c10.71,.38,10.51,6.43,7.3,8.11h7.63c.86-2.5,1.63-5.91,2.06-8.26l8.98,1.78c-.19,.62-.67,1.06-1.82,1.06-1.82,1.63-4.8,3.74-7.58,5.42h6.86l3.46-4.37s3.94,2.93,6.29,4.94c-.14,.53-.67,.77-1.39,.77h-15.99v5.42h4.99l3.26-4.03s3.7,2.69,5.95,4.61c-.14,.53-.67,.77-1.34,.77h-12.87v5.81h8.35l3.55-4.66s4.03,3.12,6.38,5.23c-.1,.53-.67,.77-1.34,.77H49.62l-.38-1.34h17.57Zm7.49,10.42c22.51,.38,20.79,14.69,13.15,12.29-3.12-4.22-8.88-9.12-13.49-11.91l.34-.38Z"/><path class="cls-1" d="M135.58,36.77s4.46,3.36,7.15,5.62c-.14,.53-.67,.77-1.44,.77h-43.73l-.38-1.34h18.77v-14.69h-12.53l-.38-1.34h12.91V13.44h-7.3c-3.12,5.18-6.96,9.12-11.52,12.05l-.48-.34c3.41-5.71,6.72-14.64,8.02-23.33l9.7,2.78c-.19,.62-.82,1.06-1.97,1.06-.91,2.3-1.87,4.46-2.98,6.43h6.53V.48l9.46,.86c-.1,.72-.43,1.2-1.78,1.39V12.1h5.86l3.79-4.66s4.18,2.98,6.86,5.23c-.14,.53-.67,.77-1.44,.77h-15.07v12.34h4.42l3.84-4.8s4.37,3.22,7.01,5.38c-.14,.53-.67,.77-1.39,.77h-13.87v14.69h7.97l3.98-5.04Z"/><path class="cls-1" d="M145.56,11.62c14.45,.24,9.75,11.47,3.84,7.78-.58-2.74-2.45-5.66-4.18-7.49l.34-.29Zm39.94,.14s3.84,3.17,6.05,5.28c-.1,.53-.67,.77-1.34,.77h-12.05v9.12h2.54l3.12-3.36,6.24,4.75c-.34,.38-.91,.86-1.92,1.06v14.11c-.05,.43-3.36,1.82-5.71,1.82h-1.2v-4.13h-12.82v2.3c0,.62-2.98,2.11-5.86,2.11h-.96V24.19l7.11,2.74h2.35v-9.12h-11.57l-.34-1.2c-1.63,4.85-3.26,10.08-3.74,11.81-.43,1.58-.86,3.41-.82,4.66,.1,2.74,2.4,4.08,2.26,8.4-.1,2.59-2.11,4.32-4.9,4.32-1.25,0-2.69-.62-3.22-2.5,1.01-5.04,.82-9.7-.34-10.46-.72-.48-1.58-.77-2.59-.86v-.82h2.26c.82,0,1.06,0,1.68-.96q1.3-1.82,10.75-19.63l.67,.19c-.58,1.58-1.25,3.6-1.97,5.71h11.86v-7.87c-3.79,.29-7.73,.48-11.33,.53l-.1-.62c7.97-1.87,18.24-5.38,23.43-7.97l6.58,6.34c-.62,.48-1.82,.53-3.5-.1-2.26,.38-4.99,.77-7.97,1.15v8.54h3.94l3.41-4.71ZM149.17,1.1c14.98,.05,10.71,11.52,4.51,8.06-.86-2.78-3.02-5.86-4.85-7.78l.34-.29Zm19.25,27.17v11.57h12.82v-11.57h-12.82Z"/><path class="cls-1" d="M217.47,35.33c3.6,2.54,9.55,3.26,20.59,3.22,5.52,0,10.08-.05,15.6-.38v.53c-2.74,.62-4.32,3.22-4.66,5.86h-13.34c-10.71,0-14.79-2.26-18.77-7.25-.72-1.01-1.3-.91-1.73,.1-.72,1.54-1.68,4.03-2.64,6.67,.1,.48-.14,.77-.48,.96l-4.42-6.58c2.35-1.01,5.62-2.98,7.2-3.55,1.44-2.98,2.59-6.91,3.07-10.18h-1.25l-1.92,1.87-5.38-3.55c.48-.34,1.2-.72,1.92-1.01,1.49-2.16,3.46-5.33,4.66-7.58h-7.01l-.43-1.34h7.49l2.78-2.78,5.47,4.99c-.43,.48-1.34,.72-2.4,.82-1.25,1.97-3.17,5.04-4.61,7.25h.38l3.26-3.31,5.33,4.13c.24-2.78,.24-5.57,.24-8.16V4.18l6.14,1.78c3.98-1.82,8.3-4.22,10.71-5.9l6.58,6.24c-.67,.53-1.87,.53-3.46-.05-3.36,.58-8.45,1.1-13.25,1.34V15.6h9.07l3.46-4.51s3.89,3.02,6.24,5.09c-.14,.53-.72,.77-1.39,.77h-6.67v19.35c0,.29-2.06,1.39-5.57,1.39h-1.25V16.95h-3.89c-.05,6.43-1.01,14.93-9.75,20.21l-.43-.53c1.92-3.5,2.78-7.54,3.17-11.62-.29,.1-.62,.19-1.2,.24-1.44,3.46-4.32,7.06-7.92,9.84l.43,.24ZM209.89,1.06c15.5-.48,10.46,11.76,3.98,7.83-.58-2.78-2.45-5.76-4.27-7.58l.29-.24Z"/><path class="cls-1" d="M271.1,21.99c-.19,.48-.62,.77-1.54,.96v20.83c-.1,.48-2.98,1.82-5.71,1.82h-1.34V27.79c-2.21,1.73-4.66,3.26-7.34,4.61l-.38-.43c6.1-5.42,10.37-12.96,13.2-20.35h-11.67l-.38-1.34h12.53c1.3-3.6,2.21-7.1,2.83-10.27l9.7,2.45c-.14,.58-.58,1.01-1.82,1.1-.77,2.16-1.73,4.46-2.83,6.72h12.91l3.89-4.94s4.37,3.31,7.01,5.52c-.14,.53-.67,.77-1.39,.77h-23.09c-1.73,3.31-3.84,6.62-6.43,9.7l1.87,.67Zm22.85,14.5s4.13,3.12,6.67,5.23c-.14,.53-.72,.77-1.44,.77h-28.85l-.38-1.34h9.79v-14.74h-8.21l-.38-1.34h8.59V13.68l8.59,.72c-.05,.62-.38,1.06-1.54,1.25v9.41h1.3l3.41-4.32s3.84,2.88,6.14,4.9c-.1,.53-.67,.77-1.34,.77h-9.5v14.74h3.46l3.7-4.66Z"/><path class="cls-1" d="M339.2,26.79c-.24,.48-.72,.77-1.87,.62-2.26,3.02-5.42,6.43-9.41,8.98,3.12,1.2,6.91,1.58,11.57,1.58,2.16,0,7.44,0,9.99-.05v.53c-2.26,.58-3.36,3.17-3.41,6.1h-7.01c-13.63,0-20.35-4.32-22.23-23.04h-2.45c-.14,8.4-1.25,17.86-10.08,24.43l-.48-.34c4.13-7.63,4.32-17.38,4.32-26.5V1.34l7.2,2.5h3.79l2.83-3.12,5.86,4.46c-.29,.38-.91,.82-1.92,1.01V22.37c-.05,.34-3.17,1.49-5.23,1.49h-1.06v-2.35h-2.16c1.92,7.82,4.8,12.05,9.17,14.26,2.26-3.46,4.03-8.11,4.94-11.71-.53,.1-1.06,.14-1.63,.14h-.91V1.97l6.48,2.54h4.75l2.88-3.17,5.95,4.51c-.29,.38-.91,.86-1.92,1.06v14.5c-.05,.38-3.22,1.49-5.33,1.49h-1.1v-2.21h-5.47v1.49c0,.34-.77,.86-1.87,1.34l5.81,3.26Zm-24.82-6.62h5.23V5.18h-5.23v14.98Zm20.88-14.31v13.49h5.47V5.86h-5.47Zm3.84,17.23c14.93,4.51,9.07,16.32,3.36,11.33-.19-3.84-1.87-8.06-3.79-11.09l.43-.24Z"/><path class="cls-1" d="M374.55,20.07c1.97,7.49,8.4,14.11,21.94,17.81l-.05,.62c-3.55,.67-5.57,2.78-6.05,6.77-11.47-5.76-15.26-16.32-16.61-25.2h-6.96c-.43,8.83-2.83,19.15-14.79,25.54l-.38-.34c7.44-8.59,8.3-19.39,8.3-29.19V1.58l7.97,2.69h15.27l3.02-3.36,6.29,4.75c-.29,.38-.86,.86-1.87,1.06v14.98c-.05,.38-3.5,1.58-5.76,1.58h-1.2v-3.22h-9.12Zm-7.63-4.03c0,.86,0,1.78-.05,2.69h16.8V5.62h-16.75v10.42Z"/></g></g></svg>