<?xml version="1.0" encoding="UTF-8"?><svg id="_層_2" xmlns="http://www.w3.org/2000/svg" viewBox="0 0 407.71 23.95"><defs><style>.cls-1{fill:#fff;}.cls-2{fill:#d2c7a8;}</style></defs><g id="_層_1-2"><g><g><path class="cls-1" d="M86,8.69c5.29,2.07,2.95,5.94,1.02,4.15-.03-1.12-.5-2.45-1.02-3.47v13.38c0,.3-1.12,.92-2.12,.92h-.52V13.66c-.87,1.5-1.92,2.9-3.15,4.15l-.32-.27c1.62-2.9,2.6-6.74,3.12-10.46h-2.65l-.2-.7h3.2V.15l3.57,.38c-.05,.37-.25,.6-.92,.7V6.29l1.1-1.67s1.35,1.22,2.12,2.05c-.07,.27-.32,.4-.65,.4h-2.57v1.62ZM91.97,.35l3.32,.35c-.05,.35-.22,.6-.87,.7V12.79c-.05,5.19-1.85,8.66-7.24,10.86l-.22-.3c3.65-2.47,4.94-5.57,5.02-10.19-.6,.85-1.35,1.9-2.2,3.05,0,.32-.15,.67-.42,.82l-1.75-2.7c.8-.38,2.55-1.35,4.37-2.45v-2.67c-.35,.75-1.22,1.02-2,.22-.05-1.57-.77-3.55-1.45-4.87l.3-.15c1.87,.97,2.8,2.12,3.15,3.12V.35Zm10.71,19.95c.67,.32,.9,.6,.9,1.07,0,1.02-.95,1.5-3.75,1.5h-1.47c-1.95,0-2.4-.6-2.4-2.3V.4l3.37,.4c-.03,.32-.22,.6-.85,.7V7.77c.67-1.42,1.37-3,1.72-3.9l2.95,2.07c-.12,.2-.47,.4-.97,.22-.8,.77-2.3,2.02-3.7,3.05v1.5c6.09,2.45,3.87,6.97,1.55,5.07-.17-1.3-.85-2.72-1.55-3.95v7.97c0,.47,.1,.65,.62,.65h.92c.4,0,.72,0,.95-.03,.17,0,.35-.05,.47-.25,.22-.33,.6-1.62,.85-2.7h.27l.1,2.82Z"/><path class="cls-1" d="M130.37,2.7c-.18,.22-.52,.42-1.02,.55V22.55c-.03,.22-1.4,.95-2.5,.95h-.45v-1.9h-14.93v.95c0,.37-1.15,1.1-2.4,1.1h-.5V.75l3.15,1.3h14.43l1.42-1.6,2.8,2.25Zm-3.97,18.2V2.75h-14.93V20.9h4.07l-1.27-1.92c.77-.5,.9-.7,.9-1.1v-1.17c-1.05,.45-2.17,.82-3.35,1.15l-.2-.42c2-.87,3.8-2.12,4.99-3.47h-.77v.1c0,.2-1.1,.67-2.05,.67h-.35v-5.52l2.5,1h5.92l1.1-1.12,2.3,1.7c-.12,.15-.37,.3-.72,.37v2.67c0,.05-.1,.1-.22,.17l1.62,1.45c-.15,.2-.37,.25-.8,.08-.52,.22-1.3,.5-2.07,.75,4.05,2.05,2.7,4.64,1.05,3.75-.72-1.17-2.75-3.17-5.34-4.77l.17-.35c1.25,.27,2.3,.6,3.17,.95,.45-.5,.95-1.07,1.37-1.55-.35,.08-.7,.15-1,.15h-.42v-.5h-2.55c-.57,.57-1.25,1.07-2,1.55v1.35h-.03v1.25c.95-.27,2.05-.57,3.12-.9l.08,.32c-.9,.6-2.77,1.85-4.69,3.05-.1,.15-.22,.25-.32,.33h10.74Zm-2.42-14.48s1.45,1.1,2.32,1.87c-.08,.27-.32,.4-.67,.4h-13.63l-.2-.7h5.79v-1.82h-4.5l-.2-.7h4.7V3.27l3.32,.3c-.03,.3-.2,.5-.7,.57v1.32h1.7l1.22-1.45s1.4,1,2.25,1.75c-.05,.27-.3,.4-.65,.4h-4.52v1.82h2.5l1.27-1.57Zm-1.92,4.52h-6.22v2.32h6.22v-2.32Z"/><path class="cls-1" d="M154.82,2.22s1.97,1.47,3.12,2.52c-.05,.27-.3,.4-.67,.4h-9.59v3.35h3.82l1.32-1.52,2.92,2.2c-.17,.2-.5,.43-1.02,.52v7.39c0,1.92-.42,3.05-3.7,3.35-.05-.92-.17-1.6-.5-2.05-.35-.4-.8-.75-1.9-.92v-.35s2.02,.12,2.62,.12c.37,0,.5-.15,.5-.45v-7.59h-4.07v13.68c-.03,.2-.95,.82-2.52,.82h-.57V9.19h-4.1v10.04c0,.32-1.27,.97-2.52,.97h-.42V7.22l3.15,1.27h3.9v-3.35h-9.94l-.2-.7h18.63l1.75-2.22ZM143.31,.17c7.27,.07,4.92,5.59,1.97,3.8-.3-1.35-1.3-2.75-2.15-3.65l.17-.15Z"/><path class="cls-1" d="M173.92,8.47c.87,4.62,3.77,9.21,10.76,12.04l-.05,.27c-1.52,.27-2.42,1.2-2.7,2.9-5.82-3.55-7.69-9.61-8.37-14.61-.75,5.94-3.25,11.04-12.31,14.61l-.22-.37c6.94-4.2,8.89-9.14,9.44-14.83h-9.01l-.2-.72h9.26c.17-2.35,.15-4.84,.15-7.44l4.2,.4c-.08,.37-.3,.62-.9,.72-.05,2.17-.07,4.29-.25,6.32h5.62l1.85-2.27s2.02,1.52,3.27,2.6c-.08,.27-.35,.4-.72,.4h-9.81Z"/><path class="cls-1" d="M211.43,2.7c-.17,.22-.52,.42-1.02,.55V22.55c-.03,.22-1.4,.95-2.5,.95h-.45v-1.9h-14.93v.95c0,.37-1.15,1.1-2.4,1.1h-.5V.75l3.15,1.3h14.43l1.42-1.6,2.8,2.25Zm-3.97,18.2V2.75h-14.93V20.9h4.07l-1.27-1.92c.77-.5,.9-.7,.9-1.1v-1.17c-1.05,.45-2.17,.82-3.35,1.15l-.2-.42c2-.87,3.8-2.12,4.99-3.47h-.77v.1c0,.2-1.1,.67-2.05,.67h-.35v-5.52l2.5,1h5.92l1.1-1.12,2.3,1.7c-.12,.15-.37,.3-.72,.37v2.67c0,.05-.1,.1-.22,.17l1.62,1.45c-.15,.2-.37,.25-.8,.08-.52,.22-1.3,.5-2.07,.75,4.05,2.05,2.7,4.64,1.05,3.75-.72-1.17-2.75-3.17-5.34-4.77l.17-.35c1.25,.27,2.3,.6,3.17,.95,.45-.5,.95-1.07,1.37-1.55-.35,.08-.7,.15-1,.15h-.42v-.5h-2.55c-.57,.57-1.25,1.07-2,1.55v1.35h-.03v1.25c.95-.27,2.05-.57,3.12-.9l.07,.32c-.9,.6-2.77,1.85-4.69,3.05-.1,.15-.22,.25-.33,.33h10.74Zm-2.42-14.48s1.45,1.1,2.32,1.87c-.08,.27-.32,.4-.67,.4h-13.63l-.2-.7h5.79v-1.82h-4.5l-.2-.7h4.69V3.27l3.32,.3c-.03,.3-.2,.5-.7,.57v1.32h1.7l1.22-1.45s1.4,1,2.25,1.75c-.05,.27-.3,.4-.65,.4h-4.52v1.82h2.5l1.27-1.57Zm-1.92,4.52h-6.22v2.32h6.22v-2.32Z"/><path class="cls-1" d="M236.67,20.15c1.4,.25,1.72,.65,1.72,1.15,0,1.37-1.67,1.62-10.09,1.62h-5.52c-4.05,0-5.84-.42-5.84-3.27V2.7h-.87l-.22-.7h17.66l1.5-2s1.67,1.37,2.7,2.3c-.08,.27-.35,.4-.7,.4h-17.36V19.28c0,1.12,.67,1.47,2.85,1.47h6.04c2.15,0,4.07-.05,4.82-.12,.47-.02,1.07-.1,1.47-.15,.35-.05,.87-.17,1.42-.35h.27l.15,.03Zm-11.16-.67v-1.22h-2.07v1.05c0,.2-1.05,.75-2.05,.75h-.35V11.59l2.5,1h1.75l1.12-1.17,2.35,1.77c-.13,.15-.42,.35-.82,.4v5.24c-.03,.18-1.22,.65-2.02,.65h-.4Zm5.64-9.66h-4.97v.7c0,.25-1.25,.85-2.37,.85h-.4V3.62l2.9,1.12h4.62l1.27-1.37,2.67,2.02c-.15,.17-.45,.38-.9,.47v4.39c-.03,.18-1.45,.67-2.32,.67h-.5v-1.12Zm-5.64,7.72v-4.22h-2.07v4.22h2.07Zm5.64-8.44v-3.62h-4.97v3.62h4.97Zm2.75,10.29v-1.12h-2.15v.65c0,.22-1.07,.75-2.07,.75h-.35V11.59l2.52,1h1.82l1.15-1.2,2.4,1.82c-.12,.15-.42,.32-.82,.4v5.12c-.03,.15-1.27,.65-2.07,.65h-.42Zm0-1.85v-4.22h-2.15v4.22h2.15Z"/><path class="cls-1" d="M249.4,5.17s1.42,1.45,2.15,2.4c-.05,.27-.33,.4-.65,.4h-2.92v7.07c1.07-.33,2.2-.65,3.3-1l.08,.27c-1.5,1.17-3.92,2.92-7.34,4.99-.1,.35-.35,.62-.62,.72l-1.47-3.35c.67-.15,1.82-.45,3.2-.82V7.97h-2.67l-.2-.72h2.87V.57l3.8,.32c-.08,.35-.25,.62-.92,.72V7.24h.18l1.25-2.07Zm5.84-3.95c-.05,.35-.25,.62-.87,.72V11.99c-.05,5.04-1.5,9.16-6.34,11.69l-.22-.22c2.95-3,3.75-6.82,3.75-11.49V.87l3.7,.35Zm1.27,.67l3.52,.35c-.03,.3-.2,.52-.8,.62V19.58c0,.27-1.22,.87-2.2,.87h-.52V1.9Zm8.81-.75c-.08,.32-.22,.57-.82,.67V22.62c0,.3-1.25,1.02-2.35,1.02h-.57V.77l3.75,.38Z"/><path class="cls-1" d="M280.78,18.25c-1.95,1.02-4.82,2.4-9.09,4.17-.15,.32-.4,.57-.67,.65l-1.55-3.27c1.15-.13,3.25-.48,5.77-.87,.4-1.6,.82-3.67,1.05-5.17l3.5,.9c-.08,.3-.37,.53-.92,.53-.62,1.02-1.67,2.4-2.72,3.57,1.47-.25,3.02-.52,4.59-.8l.05,.3ZM290.32,.2s1.77,1.4,2.87,2.37c-.08,.27-.33,.4-.7,.4h-4.44c-.75,1.05-1.67,2.17-2.5,3h3l1.32-1.4,2.62,2.05c-.15,.17-.45,.35-.87,.42v10.79c-.03,.2-1.4,.77-2.37,.77h-.47v-1.02h-4.72v.6c0,.07-.07,.17-.25,.3l2.92,1.87c-.12,.22-.4,.25-.82,.15-1.9,1.37-5.72,2.72-8.94,3.17l-.15-.35c2.4-1.02,5.17-2.95,6.62-4.62-.45,.2-1.1,.4-1.75,.4h-.45V4.79l2.95,1.17h.45c.05-.85,.12-2.02,.17-3h-3.95l.05,.05c-.07,.27-.35,.4-.7,.4h-10.39l-.2-.7h7.07l1.5-2.02s1.12,.92,2.1,1.77l-.05-.2h8.47l1.62-2.07Zm-13.48,13.29v-1.05h-3.67v.5c0,.22-1.05,.75-2.02,.75h-.32V5.52l2.47,1h3.3l1.22-1.3,2.55,1.92c-.15,.17-.47,.4-.97,.5v5.07c-.03,.2-1.22,.77-2.1,.77h-.45Zm-5.22,.45c5.24,2.37,2.3,6.29,.35,4.19,.15-1.37-.17-2.97-.62-4.1l.27-.1Zm5.22-2.2V7.22h-3.67v4.52h3.67Zm7.22-5.04v2.9h4.72v-2.9h-4.72Zm0,6.54h4.72v-2.95h-4.72v2.95Zm4.72,3.65v-2.95h-4.72v2.95h4.72Zm-1.87,1.82c7.92,.5,6.69,5.99,3.82,4.72-.77-1.57-2.6-3.45-4.02-4.52l.2-.2Z"/><path class="cls-1" d="M304.17,18.83c1.22-.27,2.52-.55,3.8-.85l.1,.27c-2.05,1.1-4.99,2.62-9.21,4.5-.13,.3-.38,.57-.65,.65l-1.25-3.1c.37-.05,.85-.15,1.42-.25V11.14l2.75,.25c-.03,.22-.17,.43-.57,.47v7.77l1.07-.22V8.76h-.67v.35c0,.17-.8,.72-2.07,.72h-.45V.92l2.85,1.12h2.62l1.22-1.32,2.55,1.95c-.15,.17-.47,.38-.95,.48v5.72c-.05,.17-1.3,.62-2.12,.62h-.42v3.35h.32l1.25-1.95s1.42,1.35,2.22,2.25c-.08,.27-.32,.4-.67,.4h-3.12v5.29Zm-3.22-10.79h3.2V2.75h-3.2v5.29Zm18.38-3.75c-.17,.27-.45,.35-1.02,.4-.8,1.77-1.87,3.42-3.25,4.89,1.67,.97,3.7,1.72,6.07,2.2l-.05,.25c-1.17,.42-1.77,1.25-1.97,2.65-.57-.22-1.12-.45-1.62-.7l1.62,1.22c-.17,.2-.4,.35-.92,.45v7.27c0,.15-.92,.62-2.4,.62h-.52v-1.77h-4.42v1.2c0,.2-.85,.67-2.27,.67h-.47V14.28c-.77,.33-1.6,.6-2.45,.85l-.2-.33c2.77-1.32,5.09-3.15,6.87-5.29-.65-.92-1.17-1.95-1.65-3.05-1.15,1.32-2.45,2.37-3.87,3.2l-.27-.22c1.82-2.15,3.47-5.57,4.25-9.26l3.7,1.2c-.12,.32-.42,.55-1,.5-.25,.58-.5,1.12-.77,1.65h2.6l1.55-1.47,2.5,2.25Zm-2.95,9.06c-1.1-.67-2.05-1.45-2.85-2.32-1.32,1.12-2.85,2.1-4.62,2.9l2.2,.82h4.05l1.22-1.4Zm-1.12,7.72v-5.59h-4.42v5.59h4.42Zm-3-16.83c-.35,.6-.72,1.15-1.15,1.67,.57,.87,1.3,1.67,2.12,2.37,.87-1.27,1.57-2.62,2.07-4.05h-3.05Z"/><path class="cls-2" d="M337.44,23.47h-13.2v-.36c4.05-4.82,6.5-8.06,7.37-9.73,.87-1.66,1.3-3.29,1.3-4.88,0-1.16-.36-2.12-1.08-2.89-.72-.77-1.59-1.15-2.63-1.15-1.7,0-3.02,.85-3.95,2.55l-.61-.21c.6-2.12,1.5-3.68,2.71-4.7,1.21-1.01,2.61-1.52,4.2-1.52,1.14,0,2.17,.26,3.11,.79,.94,.53,1.67,1.25,2.2,2.17,.53,.92,.79,1.78,.79,2.59,0,1.47-.41,2.96-1.22,4.47-1.11,2.04-3.55,4.88-7.29,8.53h4.85c1.19,0,1.97-.05,2.32-.15,.36-.1,.65-.27,.88-.5,.23-.24,.53-.74,.91-1.5h.6l-1.26,6.48Z"/><path class="cls-2" d="M348.41,12.23v-.58c1.26-.36,2.13-.7,2.61-1.02,.49-.31,.9-.79,1.26-1.44,.35-.65,.53-1.3,.53-1.96,0-.92-.33-1.7-1-2.36-.67-.66-1.5-.98-2.49-.98-1.54,0-2.86,.82-3.94,2.45l-.61-.21c.79-1.84,1.81-3.23,3.05-4.15,1.24-.93,2.62-1.39,4.14-1.39s2.84,.47,3.85,1.42,1.51,2.06,1.51,3.32c0,.83-.23,1.62-.7,2.39-.47,.77-1.2,1.44-2.21,2.03,1.29,.63,2.27,1.4,2.95,2.32,.68,.92,1.02,2.08,1.02,3.47,0,2.34-.85,4.33-2.54,5.96-1.69,1.64-3.96,2.46-6.81,2.46-1.9,0-3.28-.31-4.15-.94-.63-.44-.94-1.01-.94-1.7,0-.51,.18-.94,.55-1.3,.36-.36,.78-.54,1.26-.54,.36,0,.71,.08,1.03,.23,.18,.09,.8,.57,1.88,1.45,1.08,.88,2.08,1.32,3.02,1.32,.82,0,1.52-.32,2.1-.97,.58-.64,.88-1.46,.88-2.46,0-1.51-.53-2.9-1.59-4.18-1.06-1.27-2.61-2.15-4.65-2.64Z"/><path class="cls-2" d="M363.95,23.94v-.46c1.83-.42,3.38-1.04,4.65-1.85,1.27-.82,2.28-1.83,3.03-3.03,.74-1.2,1.27-2.58,1.56-4.15-.68,.35-1.27,.6-1.74,.74-.48,.14-.98,.21-1.51,.21-1.7,0-3.11-.61-4.24-1.84-1.13-1.22-1.69-2.9-1.69-5.03,0-1.48,.31-2.83,.92-4.06,.61-1.23,1.49-2.18,2.62-2.86,1.13-.68,2.31-1.02,3.54-1.02,1.31,0,2.55,.38,3.72,1.13,1.17,.75,2.1,1.84,2.79,3.26,.7,1.42,1.04,3.04,1.04,4.86,0,2.36-.56,4.62-1.7,6.78-1.13,2.16-2.81,3.89-5.05,5.2-2.24,1.31-4.89,2.02-7.94,2.13Zm9.49-10.88c.11-1.23,.17-2.32,.17-3.26,0-2.01-.23-3.88-.69-5.61-.26-.96-.66-1.66-1.17-2.12-.28-.24-.63-.36-1.08-.36-.55,0-.98,.24-1.29,.71-.43,.65-.65,1.89-.65,3.72,0,3.05,.36,5.16,1.09,6.32,.47,.75,1.11,1.12,1.92,1.12,.43,0,1-.18,1.7-.53Z"/><path class="cls-1" d="M407.71,6.44c-.18,.22-.43,.27-.92,.3-.65,.5-1.72,1.17-2.52,1.52l-.25-.15c.07-.48,.15-1.25,.2-1.87h-7.79v3.32l1.9-.15v-2.77l3.12,.27c-.05,.32-.3,.52-.75,.6v1.7l1.15-.1,1.07-1.52s1.42,.87,2.27,1.52c-.02,.27-.3,.45-.6,.48l-3.9,.35v1.02c0,.27,.07,.37,.65,.37h1.6c.57,0,1.17,0,1.42-.02,.17,0,.45,0,.57-.03,.17-.02,.42-.1,.6-.15h.22l.13,.05c.65,.27,.87,.45,.87,.85,0,.97-.9,1.22-4.1,1.22h-1.97c-2.05,0-2.37-.47-2.37-1.92v-1.2l-1.67,.15-.22-.65v2.47c0,3.9-.32,8.52-5.12,11.54l-.27-.25c2.57-3.17,2.8-7.24,2.8-11.26v-1.65h-4.62c-.2,.87-.62,2.27-.97,3.3h1.57l1.27-1.27,2.35,1.95c-.15,.22-.47,.35-.97,.42-.3,4.22-.97,6.39-2.12,7.27-.72,.5-1.62,.75-2.8,.75,0-.7-.07-1.3-.42-1.65-.35-.35-1.02-.62-1.87-.8v-.35c.82,.05,2.2,.15,2.67,.15,.4,0,.6-.05,.8-.22,.55-.43,1.02-2.27,1.3-5.54h-1.77l-1.12,1.25-2.4-1.62c.25-.17,.6-.38,.97-.52,.3-.92,.65-2.2,.85-3.1h-2.25l-.2-.72h6.74l1.27-1.7s.92,.77,1.72,1.5V4.44l3.05,1.1h1.47V.2l3.52,.33c-.05,.35-.25,.6-.9,.67v1.8h2.32l1.3-1.65s1.45,1.15,2.35,1.95c-.07,.27-.33,.4-.67,.4h-5.29v1.85h3.02l1.35-1.35,2.37,2.25Zm-19.95,1.67c0,.22-1.1,.77-2.2,.77h-.35V.85l2.65,1.07h2.07l1.22-1.35,2.62,1.97c-.15,.2-.52,.4-1.02,.5V7.72c-.03,.17-1.32,.62-2.15,.62h-.43v-.8h-2.42v.57Zm0-5.49V6.84h2.42V2.62h-2.42Zm6.29,20.7c3.3-2.22,3.7-5.84,3.35-9.24l3.57,.72c-.1,.38-.37,.57-.97,.6-.25,3.25-1,6.42-5.77,8.24l-.17-.32Zm12.89-2.82c.6,.27,.67,.55,.67,.97,0,.95-.85,1.4-2.97,1.4h-1.1c-1.75,0-1.95-.55-1.95-2.02v-6.49l3.17,.3c-.05,.33-.27,.55-.72,.62v5.02c0,.25,.05,.32,.32,.32h1.02c.17,0,.25-.02,.37-.22,.17-.32,.48-1.45,.82-2.65h.27l.07,2.75Z"/></g><g><path class="cls-1" d="M2.47,12.53h1.36v.74h-1.36v2.43l1.18-.39,.11,.74c-.42,.14-.86,.3-1.29,.44v3.5c0,.45-.11,.67-.37,.8-.27,.13-.72,.15-1.45,.14-.02-.19-.12-.51-.23-.74,.51,.02,.98,.02,1.11,.01,.15,0,.21-.05,.21-.21v-3.27l-1.51,.5-.23-.75c.48-.14,1.07-.33,1.74-.55v-2.66H.17v-.74H1.74v-2.42h.73v2.42Zm7.3,4.39c-.29,.91-.7,1.63-1.31,2.23,.92,.41,1.76,.85,2.37,1.22l-.58,.56c-.58-.37-1.44-.82-2.4-1.29-.87,.62-2.03,1.04-3.55,1.3-.06-.23-.23-.5-.37-.68,1.31-.19,2.34-.51,3.12-.98-.81-.35-1.66-.69-2.42-.95,.31-.39,.64-.88,.98-1.41h-1.69v-.7h2.11c.24-.41,.43-.83,.6-1.2l.75,.15c-.15,.33-.33,.7-.52,1.05h2.31c.05-.23,.09-.45,.14-.7l.76,.16c-.04,.19-.07,.37-.11,.55h1.08v.7h-1.28Zm1.16-2.06H4.05v-.69h4.01c.36-.54,.75-1.33,.97-1.9l.74,.21c-.27,.56-.61,1.18-.92,1.68h2.07v.69Zm-.24-2.78H4.36v-.69h2.96c-.14-.38-.35-.83-.54-1.18l.81-.15c.25,.42,.5,.93,.64,1.33h2.44v.69Zm-4.53,1.98c-.15-.41-.54-1.07-.89-1.54l.64-.26c.37,.47,.76,1.09,.93,1.49l-.68,.31Zm.27,2.86c-.23,.41-.49,.79-.73,1.11,.64,.24,1.32,.5,1.99,.79,.57-.49,.97-1.12,1.25-1.9h-2.52Z"/><path class="cls-1" d="M19.47,13.01c-.26,.5-.6,.99-.95,1.47v6.47h-.76v-5.54c-.46,.5-.94,.98-1.43,1.36-.06-.18-.3-.57-.43-.76,1.06-.79,2.21-2.01,2.88-3.25l.69,.26Zm-.13-2.6c-.68,1-1.81,2.12-2.85,2.83-.08-.19-.29-.49-.42-.64,.93-.62,2-1.62,2.52-2.47l.75,.29Zm3.24,1.26v-1.51h.8v1.51h3.41v.74h-3.41v1.59h2.86v.73h-6.66v-.73h3v-1.59h-3.49v-.74h3.49Zm4.24,5.17h-1.7v3.14c0,.5-.12,.72-.49,.85-.37,.12-.99,.13-1.96,.12-.05-.23-.17-.53-.27-.75,.77,.02,1.45,.02,1.67,.01,.19-.01,.24-.06,.24-.23v-3.14h-5.05v-.74h5.05v-1.04h.81v1.04h1.7v.74Zm-5.94,.41c.56,.62,1.23,1.48,1.51,2.03l-.68,.41c-.26-.56-.92-1.44-1.48-2.07l.64-.36Z"/><path class="cls-1" d="M37.59,10.33c-.05,.07-.11,.14-.17,.21,1.13,1.12,3.22,2.11,5.08,2.55-.18,.15-.39,.42-.5,.62-.97-.27-2.01-.7-2.96-1.23v.38h-4.14v-.33c-.92,.5-1.94,.92-2.94,1.24-.08-.14-.32-.45-.45-.61,2.15-.6,4.27-1.65,5.39-3.1l.69,.26Zm-4.6,3.17h7.93v2.96h-7.93v-2.96Zm.68,2.4h2.92v-1.84h-2.92v1.84Zm.02,1.16h6.64v3.85h-.8v-.37h-5.07v.41h-.78v-3.89Zm1.32-2.83c.33,.41,.64,.98,.75,1.36l-.61,.24c-.11-.38-.41-.97-.72-1.41l.57-.19Zm-.55,3.41v.86h5.07v-.86h-5.07Zm5.07,2.31v-.87h-5.07v.87h5.07Zm-.83-7.67c-.64-.38-1.23-.82-1.7-1.28-.48,.46-1.04,.91-1.66,1.28h3.36Zm1.49,1.78h-2.93v1.84h2.93v-1.84Zm-2.11,1.55c.24-.39,.55-1.03,.7-1.43l.67,.22c-.26,.52-.58,1.07-.82,1.43l-.55-.21Z"/><path class="cls-1" d="M50.36,10.25c-.07,.14-.15,.29-.25,.42,.62,.39,1.35,.88,1.74,1.18l-.38,.6c-.39-.32-1.1-.83-1.7-1.25-.61,.82-1.38,1.56-2.16,2.09-.06-.14-.25-.53-.37-.68,.94-.61,1.92-1.55,2.48-2.57l.64,.23Zm.19,7.65c.45,.76,1,1.79,1.25,2.37l-.58,.31c-.11-.26-.26-.6-.44-.95-2.38,.99-2.71,1.16-2.91,1.32-.05-.18-.15-.53-.29-.69,.17-.07,.43-.23,.43-.66v-5.91h3.36v3.95h-2.66v2.13l1.78-.68c-.15-.35-.33-.67-.5-.97l.56-.23Zm-1.84-3.59v1h1.96v-1h-1.96Zm1.96,2.71v-1.1h-1.96v1.1h1.96Zm.17-4.7v.58h-2.01v-.58h2.01Zm7.14-.85v1.9h-.67v-1.23h-4.73v1.23h-.66v-1.9h2.86c-.13-.33-.35-.8-.52-1.14l.68-.29c.21,.41,.46,.93,.58,1.26l-.32,.17h2.78Zm-4.57,5.78h4.1v3.62h-.7v-.49h-3.4v.55h-.7v-7.66h4.28v2.92h-3.58v1.06Zm0-3.33v1.61h2.9v-1.61h-2.9Zm0,4v1.76h3.4v-1.76h-3.4Z"/><path class="cls-1" d="M69.07,10.62h.72l-3.68,11.56h-.72l3.68-11.56Z"/></g></g></g></svg>