<?xml version="1.0" encoding="UTF-8"?><svg id="_層_2" xmlns="http://www.w3.org/2000/svg" viewBox="0 0 287.74 28.73"><defs><style>.cls-1{fill:#fff;}.cls-2{fill:#d2c7a8;}</style></defs><g id="_層_1-2"><g><g><path class="cls-2" d="M91.83,17.42c0,2.14-.3,4.14-.9,5.99-.36,1.14-.84,2.07-1.45,2.8-.61,.73-1.29,1.3-2.06,1.73-.77,.43-1.61,.64-2.51,.64-1.03,0-1.97-.26-2.8-.79-.83-.53-1.57-1.28-2.21-2.26-.46-.72-.87-1.67-1.22-2.86-.45-1.61-.68-3.28-.68-5,0-2.33,.33-4.47,.98-6.42,.54-1.61,1.35-2.85,2.45-3.71,1.1-.86,2.26-1.29,3.48-1.29s2.41,.42,3.49,1.27c1.08,.85,1.87,1.99,2.38,3.42,.71,1.97,1.06,4.13,1.06,6.47Zm-4.87-.03c0-3.75-.02-5.94-.06-6.56-.11-1.47-.36-2.46-.76-2.97-.26-.34-.69-.51-1.28-.51-.45,0-.81,.13-1.08,.38-.39,.37-.65,1.02-.79,1.95-.14,.93-.21,4.19-.21,9.76,0,3.04,.1,5.07,.32,6.1,.16,.75,.38,1.25,.68,1.5,.29,.25,.68,.38,1.17,.38,.53,0,.92-.17,1.19-.51,.44-.59,.7-1.5,.76-2.74l.06-6.8Z"/><path class="cls-2" d="M98.62,17.38v-.55c1.2-.35,2.03-.67,2.5-.97,.46-.3,.86-.76,1.2-1.37,.34-.62,.51-1.24,.51-1.87,0-.87-.32-1.63-.96-2.25-.64-.63-1.43-.94-2.38-.94-1.48,0-2.73,.78-3.76,2.34l-.58-.21c.76-1.76,1.73-3.08,2.92-3.97,1.19-.89,2.51-1.33,3.96-1.33s2.71,.45,3.68,1.36c.96,.91,1.45,1.97,1.45,3.18,0,.79-.22,1.55-.67,2.28-.45,.73-1.15,1.38-2.11,1.94,1.23,.6,2.17,1.34,2.82,2.22,.65,.88,.97,1.98,.97,3.31,0,2.24-.81,4.14-2.43,5.7-1.62,1.57-3.79,2.35-6.51,2.35-1.81,0-3.14-.3-3.97-.9-.6-.42-.9-.96-.9-1.63,0-.48,.17-.9,.52-1.24s.75-.51,1.2-.51c.35,0,.67,.07,.98,.22,.17,.09,.77,.55,1.8,1.38,1.03,.84,1.99,1.26,2.89,1.26,.78,0,1.45-.31,2.01-.92,.56-.62,.84-1.4,.84-2.35,0-1.44-.51-2.77-1.52-3.99-1.01-1.22-2.49-2.06-4.44-2.52Z"/><path class="cls-2" d="M120.84,22.33h-9.22v-3.27h9.22v3.27Z"/><path class="cls-2" d="M128.58,14.31v-.71c1.55-.45,2.62-.86,3.21-1.25,.6-.39,1.11-.98,1.54-1.77,.43-.79,.65-1.6,.65-2.41,0-1.12-.41-2.09-1.23-2.9-.82-.81-1.84-1.21-3.06-1.21-1.9,0-3.51,1-4.84,3.01l-.75-.26c.98-2.26,2.23-3.96,3.75-5.1,1.52-1.14,3.22-1.71,5.09-1.71s3.49,.58,4.73,1.75c1.24,1.17,1.86,2.53,1.86,4.09,0,1.02-.29,2-.86,2.94-.58,.94-1.48,1.77-2.71,2.49,1.59,.77,2.79,1.73,3.63,2.86,.83,1.13,1.25,2.55,1.25,4.26,0,2.87-1.04,5.32-3.12,7.33-2.08,2.01-4.87,3.02-8.37,3.02-2.33,0-4.03-.39-5.1-1.16-.77-.54-1.16-1.24-1.16-2.09,0-.62,.22-1.16,.67-1.6,.45-.44,.96-.66,1.54-.66,.45,0,.87,.1,1.26,.29,.22,.11,.99,.7,2.31,1.78,1.32,1.08,2.56,1.62,3.71,1.62,1,0,1.86-.4,2.58-1.19,.72-.79,1.08-1.8,1.08-3.02,0-1.86-.65-3.57-1.95-5.13s-3.2-2.65-5.71-3.24Z"/><path class="cls-2" d="M158.47,12.56c1.94,1.42,3.28,2.75,4.04,3.97,.75,1.23,1.13,2.63,1.13,4.22,0,2.22-.84,4.1-2.51,5.64-1.67,1.54-3.95,2.31-6.82,2.31-2.72,0-4.83-.67-6.32-2.01s-2.24-2.98-2.24-4.92c0-1.48,.43-2.77,1.29-3.88,.86-1.11,2.29-2.13,4.3-3.05-2.18-1.67-3.58-3.03-4.2-4.09-.62-1.06-.92-2.28-.92-3.68,0-1.84,.78-3.47,2.35-4.87,1.57-1.4,3.71-2.1,6.43-2.1s4.65,.62,6.07,1.86c1.42,1.24,2.12,2.73,2.12,4.46,0,1.3-.38,2.45-1.15,3.45-.77,1-1.95,1.89-3.57,2.69Zm-5.61,3.25c-.42,.38-.72,.72-.89,1.04-.27,.47-.51,1.17-.73,2.07-.22,.91-.33,1.86-.33,2.85,0,1.27,.16,2.34,.49,3.2,.33,.86,.79,1.48,1.39,1.86,.6,.38,1.22,.57,1.86,.57,.99,0,1.82-.36,2.5-1.09,.68-.72,1.02-1.72,1.02-2.98,0-2.63-1.77-5.14-5.31-7.52Zm4.07-4.29c.5-.68,.87-1.44,1.12-2.28,.24-.84,.37-1.76,.37-2.76,0-1.76-.38-3.11-1.14-4.05-.57-.72-1.35-1.08-2.36-1.08-.91,0-1.68,.33-2.32,.99-.64,.66-.96,1.47-.96,2.45s.36,2.02,1.07,3.08c.71,1.06,2.12,2.28,4.22,3.65Z"/><path class="cls-2" d="M185.7,0V.57c-2.45,.62-4.42,1.43-5.91,2.41-1.49,.98-2.66,2.18-3.52,3.58-.86,1.4-1.53,3.14-2,5.22,.6-.41,1.09-.67,1.48-.79,.88-.27,1.77-.41,2.66-.41,2.06,0,3.78,.75,5.15,2.25,1.38,1.5,2.06,3.54,2.06,6.13,0,1.82-.37,3.48-1.12,5-.75,1.52-1.8,2.69-3.17,3.52-1.37,.83-2.83,1.24-4.39,1.24-1.69,0-3.26-.46-4.7-1.39s-2.56-2.29-3.36-4.08c-.81-1.79-1.21-3.73-1.21-5.83,0-3.09,.74-5.97,2.23-8.63,1.49-2.66,3.59-4.78,6.32-6.36,2.73-1.58,5.89-2.38,9.46-2.41Zm-11.69,13.42c-.11,1.87-.16,3.24-.16,4.11,0,1.87,.18,3.68,.54,5.43,.36,1.75,.85,2.98,1.47,3.68,.45,.5,.98,.75,1.59,.75s1.18-.36,1.67-1.09c.49-.73,.73-2.2,.73-4.42,0-3.74-.45-6.32-1.36-7.75-.58-.92-1.37-1.38-2.36-1.38-.54,0-1.25,.22-2.11,.67Z"/><path class="cls-2" d="M200.87,20.68h-11.85v-4.21h11.85v4.21Z"/><path class="cls-2" d="M220.15,28.14h-16.22v-.45c4.97-5.92,7.99-9.91,9.06-11.95,1.06-2.05,1.6-4.05,1.6-6,0-1.42-.44-2.6-1.32-3.55-.88-.94-1.96-1.41-3.23-1.41-2.09,0-3.71,1.04-4.86,3.13l-.75-.26c.73-2.6,1.84-4.53,3.33-5.77,1.49-1.25,3.21-1.87,5.16-1.87,1.4,0,2.67,.33,3.82,.98,1.15,.65,2.05,1.54,2.7,2.67,.65,1.13,.98,2.19,.98,3.18,0,1.8-.5,3.63-1.5,5.49-1.37,2.51-4.36,6-8.96,10.49h5.96c1.46,0,2.42-.06,2.86-.18,.44-.12,.8-.33,1.09-.62,.29-.29,.66-.91,1.12-1.84h.73l-1.54,7.97Z"/><path class="cls-2" d="M238.96,12.56c1.94,1.42,3.28,2.75,4.04,3.97,.75,1.23,1.13,2.63,1.13,4.22,0,2.22-.84,4.1-2.51,5.64-1.67,1.54-3.95,2.31-6.82,2.31-2.72,0-4.83-.67-6.32-2.01s-2.24-2.98-2.24-4.92c0-1.48,.43-2.77,1.29-3.88,.86-1.11,2.29-2.13,4.3-3.05-2.18-1.67-3.58-3.03-4.2-4.09-.62-1.06-.92-2.28-.92-3.68,0-1.84,.78-3.47,2.35-4.87,1.57-1.4,3.71-2.1,6.43-2.1s4.65,.62,6.07,1.86c1.42,1.24,2.12,2.73,2.12,4.46,0,1.3-.38,2.45-1.15,3.45-.77,1-1.95,1.89-3.57,2.69Zm-5.61,3.25c-.42,.38-.72,.72-.89,1.04-.27,.47-.51,1.17-.73,2.07-.22,.91-.33,1.86-.33,2.85,0,1.27,.16,2.34,.49,3.2,.33,.86,.79,1.48,1.39,1.86s1.22,.57,1.86,.57c.99,0,1.82-.36,2.5-1.09,.68-.72,1.02-1.72,1.02-2.98,0-2.63-1.77-5.14-5.31-7.52Zm4.07-4.29c.5-.68,.87-1.44,1.12-2.28,.24-.84,.37-1.76,.37-2.76,0-1.76-.38-3.11-1.14-4.05-.57-.72-1.35-1.08-2.36-1.08-.91,0-1.68,.33-2.32,.99-.64,.66-.96,1.47-.96,2.45s.36,2.02,1.07,3.08c.71,1.06,2.12,2.28,4.22,3.65Z"/><path class="cls-2" d="M260.82,12.56c1.94,1.42,3.28,2.75,4.04,3.97,.75,1.23,1.13,2.63,1.13,4.22,0,2.22-.84,4.1-2.51,5.64-1.67,1.54-3.95,2.31-6.82,2.31-2.72,0-4.83-.67-6.32-2.01s-2.24-2.98-2.24-4.92c0-1.48,.43-2.77,1.29-3.88,.86-1.11,2.29-2.13,4.3-3.05-2.18-1.67-3.58-3.03-4.2-4.09-.62-1.06-.92-2.28-.92-3.68,0-1.84,.78-3.47,2.35-4.87,1.57-1.4,3.71-2.1,6.43-2.1s4.65,.62,6.07,1.86c1.42,1.24,2.12,2.73,2.12,4.46,0,1.3-.38,2.45-1.15,3.45-.77,1-1.95,1.89-3.57,2.69Zm-5.61,3.25c-.42,.38-.72,.72-.89,1.04-.27,.47-.51,1.17-.73,2.07-.22,.91-.33,1.86-.33,2.85,0,1.27,.16,2.34,.49,3.2,.33,.86,.79,1.48,1.39,1.86,.6,.38,1.22,.57,1.86,.57,.99,0,1.82-.36,2.5-1.09,.68-.72,1.02-1.72,1.02-2.98,0-2.63-1.77-5.14-5.31-7.52Zm4.07-4.29c.5-.68,.87-1.44,1.12-2.28,.24-.84,.37-1.76,.37-2.76,0-1.76-.38-3.11-1.14-4.05-.57-.72-1.35-1.08-2.36-1.08-.91,0-1.68,.33-2.32,.99-.64,.66-.96,1.47-.96,2.45s.36,2.02,1.07,3.08c.71,1.06,2.12,2.28,4.22,3.65Z"/><path class="cls-2" d="M274.83,.57h12.91l-2.05,5.25h-10.86l-1.04,2.74c4.68,.18,8.27,1.34,10.8,3.5,2.07,1.78,3.11,3.98,3.11,6.63,0,1.69-.48,3.35-1.44,4.97-.96,1.62-2.32,2.87-4.07,3.74-1.75,.87-3.67,1.31-5.75,1.31-2.25,0-3.98-.42-5.18-1.26-.84-.6-1.26-1.27-1.26-2.03,0-.58,.22-1.1,.66-1.54,.44-.45,.95-.67,1.53-.67,.53,0,1.06,.11,1.61,.33,.54,.22,1.47,.79,2.79,1.71,.83,.57,1.54,.96,2.14,1.18,.42,.16,.89,.24,1.42,.24,1.11,0,2.06-.41,2.84-1.22,.78-.81,1.17-1.79,1.17-2.93,0-2.39-1.19-4.32-3.58-5.81s-5.39-2.24-9.03-2.24c-.37,0-.91,0-1.65,.02l4.94-13.91Z"/></g><g><path class="cls-1" d="M10.54,18.09v.63H0v-.63H4.86v-.68H1.6v-2.03h3.27v-.7h.77v.7h3.43v2.03h-3.43v.68h4.9Zm-6.31,6.17c-.98,.53-2.48,1.03-3.66,1.31-.13-.15-.39-.45-.57-.6,1.22-.23,2.65-.61,3.52-1.04l.72,.32Zm4.95-.48H1.5v-4.45h7.68v4.45Zm-.79-3.92H2.28v.79h6.12v-.79Zm0,1.3H2.28v.76h6.12v-.76Zm0,1.29H2.28v.8h6.12v-.8Zm-3.53-5.59v-.93H2.35v.93h2.52Zm.77-.93v.93h2.67v-.93h-2.67Zm1.29,8.04c1.32,.34,2.74,.82,3.61,1.17l-.89,.41c-.75-.33-2.04-.79-3.37-1.17l.66-.41Z"/><path class="cls-1" d="M22.66,23.93c1.29,.33,2.62,.79,3.48,1.14l-.7,.48c-.8-.36-2.13-.82-3.47-1.22l.46-.41h-3.15l.64,.39c-.97,.52-2.55,.99-3.84,1.22-.11-.14-.32-.42-.49-.56,1.24-.2,2.79-.64,3.56-1.05h-1.8v-3.83c-.51,.07-1.03,.13-1.51,.19-.08-.18-.3-.51-.43-.69,1.67-.12,3.52-.35,5.11-.73v-1.32h-2.79v-.6h6.4v.6h-2.9v1.14c1-.27,1.87-.61,2.51-1.01l.67,.37c-.92,.61-2.21,1.07-3.64,1.42h3.86v4.46h-2Zm-5.88-6.39h-.73v-1.92h4.42c-.13-.26-.29-.54-.42-.76l.7-.26c.2,.31,.44,.72,.6,1.03h4.45v1.92h-.75v-1.25h-8.27v1.25Zm2.43,.38c-.56,.58-1.47,1.16-2.24,1.5-.11-.13-.36-.39-.51-.51,.76-.31,1.61-.73,2.09-1.19l.67,.2Zm-1.09,2.07v.79h5.73v-.8h-5.73Zm5.73,1.3h-5.73v.81h5.73v-.81Zm-5.73,2.12h5.73v-.81h-5.73v.81Z"/><path class="cls-1" d="M41.63,22.87h-2.87v1.8c0,.43-.1,.64-.45,.75-.36,.12-.94,.12-1.91,.12-.04-.2-.14-.49-.25-.7,.75,.02,1.41,.02,1.6,.02,.19-.01,.25-.06,.25-.2v-1.79h-7.11v-.67h7.11v-.77c-2.47,.07-4.88,.12-6.6,.14l-.04-.64c1.19,0,2.78-.01,4.49-.04v-.69h-3.69v-3.21h3.69v-.72h-4.61v-.64h4.61v-.93h.76v.93h4.53v.64h-4.53v.72h3.8v3.21h-1.53c.86,.32,1.78,.8,2.29,1.18l-.48,.48c-.18-.15-.42-.32-.69-.49l-1.97,.06h.72v.77h2.87v.67Zm-8.31,.05c.72,.41,1.59,1.03,2.01,1.48l-.56,.54c-.43-.47-1.28-1.11-1.99-1.55l.54-.46Zm-.42-4.59h2.94v-.77h-2.94v.77Zm2.94,1.31v-.79h-2.94v.79h2.94Zm.76-2.09v.77h3.03v-.77h-3.03Zm3.03,1.3h-3.03v.79h3.03v-.79Zm-3.03,2.03c.79-.01,1.6-.02,2.4-.04-.32-.15-.67-.29-.98-.38l.29-.26h-1.7v.68Z"/><path class="cls-1" d="M47.57,22.38c-.13,1.04-.37,2.17-.62,2.92-.13-.07-.45-.17-.63-.23,.3-.75,.49-1.81,.6-2.8l.65,.11Zm2.22-.49c-.03-.21-.08-.45-.14-.73-2.41,.37-2.77,.45-2.97,.56-.05-.17-.18-.55-.26-.75,.24-.06,.51-.36,.86-.79,.19-.21,.58-.74,1.03-1.41-1.28,.15-1.54,.21-1.7,.3-.05-.17-.16-.54-.25-.74,.19-.05,.41-.3,.65-.66,.25-.35,1.07-1.73,1.54-3.02l.74,.31c-.51,1.14-1.16,2.33-1.82,3.22l1.32-.12c.3-.5,.61-1.06,.87-1.6l.7,.41c-.77,1.41-1.72,2.81-2.68,3.91l1.84-.24c-.11-.42-.23-.85-.36-1.24l.61-.14c.3,.82,.61,1.9,.69,2.53l-.64,.19Zm-1.13,.36c.14,.81,.29,1.86,.31,2.55l-.63,.12c-.02-.7-.14-1.75-.29-2.56l.61-.11Zm1.06-.27c.24,.62,.5,1.43,.61,1.95l-.6,.19c-.09-.53-.36-1.36-.57-1.99l.56-.15Zm3.65-.7c-.45,1.8-1.5,3.06-2.72,3.72-.09-.18-.3-.43-.46-.56,.94-.46,1.85-1.42,2.29-2.63h-1.65v-.67h1.94l.12-.04,.48,.18Zm3.63-.24c-.51,.5-1.14,1.06-1.68,1.47,.52,.81,1.2,1.49,1.98,1.9-.17,.14-.39,.42-.51,.63-.99-.6-1.79-1.62-2.36-2.85v2.47c0,.43-.08,.64-.38,.77-.31,.13-.8,.14-1.57,.14-.04-.23-.13-.52-.23-.74,.57,.01,1.07,.01,1.23,0,.16,0,.2-.04,.2-.18v-4.55h-2.39v-4.15h1.85c.15-.39,.32-.91,.41-1.26l.88,.19c-.17,.36-.35,.75-.5,1.07h2.72v4.15h-2.2v.42c.15,.51,.34,1,.6,1.47,.49-.44,1.05-1,1.38-1.41l.6,.46Zm-4.98-3.33h3.85v-1.12h-3.85v1.12Zm0,1.75h3.85v-1.14h-3.85v1.14Z"/><path class="cls-1" d="M68.33,15.2h.72l-3.68,11.56h-.72l3.68-11.56Z"/></g></g></g></svg>